<?xml version="1.0" standalone="no"?>
<!DOCTYPE svg PUBLIC "-//W3C//DTD SVG 1.1//EN" "http://www.w3.org/Graphics/SVG/1.1/DTD/svg11.dtd" >
<svg>
<metadata>
Created by FontForge 20120731 at Mon Jun 12 06:22:49 2017
 By www
Copyright (c) 2014 by Fontfabric. All rights reserved.
</metadata>
<defs>
<font id="MullerBold" horiz-adv-x="590" >
  <font-face 
    font-family="MullerBold"
    font-weight="400"
    font-stretch="normal"
    units-per-em="1000"
    panose-1="0 0 0 0 0 0 0 0 0 0"
    ascent="757"
    descent="-243"
    x-height="480"
    cap-height="700"
    bbox="-160 -263 1300 974"
    underline-thickness="50"
    underline-position="-75"
    unicode-range="U+0020-25CA"
  />
<missing-glyph horiz-adv-x="222" 
 />
    <glyph glyph-name="f_f" unicode="ff" horiz-adv-x="729" 
d="M740 594q-38 20 -84 20q-85 0 -85 -76v-58h146v-117h-146v-363h-139v363h-188v-363h-138v363h-83v117h83v29q0 97 58.5 146t150.5 49q82 0 156 -35q50 61 151 61q65 0 118 -20v-116zM244 480h188v51q0 24 1 35q-36 24 -90 24q-46 0 -72.5 -21t-26.5 -61v-28z" />
    <glyph glyph-name="f_f_i" unicode="ffi" horiz-adv-x="951" 
d="M244 0h-138v363h-83v117h83v29q0 97 58.5 146t150.5 49q82 0 167 -37q60 63 176 63q83 0 167 -31v-118q-72 33 -141 33q-51 0 -82 -22t-31 -68v-44h319v-480h-139v363h-180v-363h-139v363h-188v-363zM244 508v-28h188v45q0 23 3 43q-43 22 -96 22q-44 0 -69.5 -21
t-25.5 -61z" />
    <glyph glyph-name="f_f_l" unicode="ffl" horiz-adv-x="961" 
d="M632 724q81 0 150 -30l118 20v-714h-139v587q-46 20 -94 20q-43 0 -69.5 -21t-26.5 -64v-42h129v-117h-129v-363h-139v363h-188v-363h-138v363h-83v117h83v29q0 97 58.5 146t150.5 49q83 0 167 -37q54 57 150 57zM432 480v45q0 23 3 43q-43 22 -96 22q-44 0 -69.5 -21
t-25.5 -61v-28h188z" />
    <glyph glyph-name=".notdef" horiz-adv-x="222" 
 />
    <glyph glyph-name=".null" horiz-adv-x="0" 
 />
    <glyph glyph-name="nonmarkingreturn" horiz-adv-x="333" 
 />
    <glyph glyph-name="space" unicode=" " horiz-adv-x="222" 
 />
    <glyph glyph-name="exclam" unicode="!" horiz-adv-x="270" 
d="M199 240h-128l-9 460h146zM219 69q0 -41 -24 -61.5t-60 -20.5t-60 21t-24 61q0 39 24.5 60t59.5 21q36 0 60 -21t24 -60z" />
    <glyph glyph-name="quotedbl" unicode="&#x22;" horiz-adv-x="402" 
d="M338 481h-98v219h124zM150 481h-98v219h124z" />
    <glyph glyph-name="numbersign" unicode="#" horiz-adv-x="687" 
d="M199 0h-132l35 151h-68v102h92l42 175h-84v102h108l36 151h132l-36 -151h129l36 151h132l-36 -151h67v-102h-91l-42 -175h83v-102h-107l-35 -151h-132l35 151h-129zM300 428l-42 -175h129l42 175h-129z" />
    <glyph glyph-name="dollar" unicode="$" horiz-adv-x="605" 
d="M352 -130h-109v119q-115 11 -201 60v143q112 -74 251 -74q64 0 95.5 15.5t31.5 51.5q0 26 -20.5 45t-53.5 30.5t-73 23t-80 27t-73 37t-53.5 59.5t-20.5 88q0 85 54 134.5t143 61.5v119h109v-120q106 -10 177 -50v-140q-89 64 -216 62q-114 -2 -114 -65q0 -24 20.5 -41.5
t54 -28.5t73.5 -22t79.5 -27t73 -37.5t54 -59.5t20.5 -89q0 -98 -60.5 -147t-161.5 -57v-118z" />
    <glyph glyph-name="percent" unicode="%" horiz-adv-x="921" 
d="M308 -60h-100l409 820h100zM391 542q0 -81 -52 -126.5t-128 -45.5q-77 0 -129.5 45.5t-52.5 126.5t52.5 126.5t129.5 45.5q76 0 128 -45.5t52 -126.5zM141 542q0 -29 17.5 -49t52.5 -20q33 0 50.5 20t17.5 49t-17.5 49t-50.5 20q-35 0 -52.5 -20t-17.5 -49zM892 158
q0 -81 -52 -126.5t-128 -45.5q-77 0 -129.5 45.5t-52.5 126.5t52.5 126.5t129.5 45.5q76 0 128 -45.5t52 -126.5zM642 158q0 -29 17.5 -49t52.5 -20q33 0 50.5 20t17.5 49t-17.5 49t-50.5 20q-35 0 -52.5 -20t-17.5 -49z" />
    <glyph glyph-name="ampersand" unicode="&#x26;" horiz-adv-x="725" 
d="M594 129l134 -129h-159l-57 53q-96 -67 -227 -67q-110 0 -177 52t-67 135q0 113 139 191q-78 84 -78 159q0 83 66.5 137t168.5 54q91 0 151 -49t60 -126q0 -67 -47.5 -113t-126.5 -85l128 -124q34 60 33 125h137q0 -115 -78 -213zM415 533q0 32 -21 50.5t-60 18.5
q-45 0 -72 -24t-27 -57q0 -44 58 -102q57 26 89.5 52.5t32.5 61.5zM184 186q0 -39 31.5 -61t88.5 -22q66 0 119 33l-160 149q-79 -44 -79 -99z" />
    <glyph glyph-name="quotesingle" unicode="'" horiz-adv-x="214" 
d="M150 481h-98v219h124z" />
    <glyph glyph-name="parenleft" unicode="(" horiz-adv-x="315" 
d="M186 810h112q-56 -97 -88 -218.5t-32 -241.5t32 -241.5t88 -218.5h-112q-69 97 -109.5 219t-40.5 241t40.5 241t109.5 219z" />
    <glyph glyph-name="parenright" unicode=")" horiz-adv-x="315" 
d="M17 810h112q69 -97 109.5 -219t40.5 -241t-40.5 -241t-109.5 -219h-112q56 97 88 218.5t32 241.5t-32 241.5t-88 218.5z" />
    <glyph glyph-name="asterisk" unicode="*" horiz-adv-x="480" 
d="M240 445l-65 -123l-106 74l88 90l-124 25l44 122l114 -57l-16 124h130l-16 -124l114 57l44 -122l-124 -25l88 -90l-106 -74z" />
    <glyph glyph-name="plus" unicode="+" horiz-adv-x="540" 
d="M329 409h175v-118h-175v-175h-118v175h-175v118h175v175h118v-175z" />
    <glyph glyph-name="comma" unicode="," horiz-adv-x="262" 
d="M118 -145h-112l63 269h147z" />
    <glyph glyph-name="hyphen" unicode="-" horiz-adv-x="482" 
d="M55 302h372v-117h-372v117z" />
    <glyph glyph-name="period" unicode="." horiz-adv-x="249" 
d="M209 69q0 -40 -24 -61t-60 -21t-60.5 21t-24.5 61t24.5 61t60.5 21t60 -21t24 -61z" />
    <glyph glyph-name="slash" unicode="/" horiz-adv-x="451" 
d="M122 -59h-99l306 818h99z" />
    <glyph glyph-name="zero" unicode="0" horiz-adv-x="706" 
d="M43 340q0 157 77.5 255.5t232.5 98.5t232.5 -98.5t77.5 -255.5t-77.5 -255.5t-232.5 -98.5t-232.5 98.5t-77.5 255.5zM513 340q0 222 -160 222t-160 -222t160 -222t160 222z" />
    <glyph glyph-name="one" unicode="1" horiz-adv-x="461" 
d="M216 680h109v-551h114v-129h-388v129h128v401l-128 -48v135z" />
    <glyph glyph-name="two" unicode="2" horiz-adv-x="596" 
d="M63 622q101 72 234 72q109 0 178.5 -51t69.5 -150q0 -77 -49.5 -131.5t-134.5 -104.5q-100 -59 -123 -80q-27 -26 -28 -49l340 1v-129h-510v67q0 130 114 217q28 22 110 70q6 4 25.5 14.5t25.5 14.5t21 13.5t21 15t15.5 15.5t13.5 18t7 19t3 23q0 37 -30 56.5t-83 19.5
q-114 0 -220 -81v140z" />
    <glyph glyph-name="three" unicode="3" horiz-adv-x="596" 
d="M527 506q0 -52 -27.5 -90.5t-75.5 -55.5q57 -17 94 -60.5t37 -113.5q0 -52 -22.5 -91.5t-61.5 -62.5t-86.5 -34.5t-101.5 -11.5q-125 0 -236 46v139q98 -55 224 -53q63 0 102 22t39 67q0 79 -118 79h-112l1 128l94 -1q51 0 79.5 18.5t28.5 53.5q0 37 -32 57.5t-93 20.5
q-101 0 -201 -61v139q98 53 222 53q110 0 178 -49t68 -139z" />
    <glyph glyph-name="four" unicode="4" horiz-adv-x="655" 
d="M373 680h149v-431h103v-125h-103v-124h-143v124h-357v124zM379 249v248l-201 -248h201z" />
    <glyph glyph-name="five" unicode="5" horiz-adv-x="589" 
d="M89 681h432v-129l-297 1l-9 -133q48 10 88 10q110 0 179.5 -53t69.5 -164q0 -112 -83 -169.5t-205 -57.5q-124 0 -219 46v139q85 -54 202 -54q70 0 112.5 25t42.5 73q0 100 -166 100q-90 0 -171 -29z" />
    <glyph glyph-name="six" unicode="6" horiz-adv-x="642" 
d="M192 394q86 46 182 46q98 0 167.5 -58t69.5 -162q0 -111 -75 -172.5t-185 -61.5q-308 0 -308 354q0 90 26 159.5t71 111t102 62.5t124 21q97 0 187 -42v-132q-73 48 -167 48q-171 0 -194 -174zM192 273q10 -90 47 -127.5t100 -37.5q54 0 88 26t34 79q0 102 -133 102
q-72 0 -136 -42z" />
    <glyph glyph-name="seven" unicode="7" horiz-adv-x="566" 
d="M25 681h523v-108l-279 -573h-162l269 552h-351v129z" />
    <glyph glyph-name="eight" unicode="8" horiz-adv-x="658" 
d="M66 506q0 76 66 132t196 56q123 0 193 -57.5t71 -134.5q1 -92 -86 -157q111 -55 111 -161q0 -83 -71.5 -140.5t-215.5 -57.5q-143 0 -216 59t-73 144q0 51 29 96.5t77 74.5q-81 55 -81 146zM345 280q-14 5 -48.5 16t-52.5 18q-55 -46 -53 -107q1 -46 38.5 -74.5
t111.5 -28.5q55 0 91 21t36 55q0 17 -7 31t-16 22.5t-28.5 18t-32 14.5t-39.5 14zM448 491q0 37 -32.5 61t-93.5 24q-52 0 -82.5 -20.5t-30.5 -50.5q0 -17 8 -31.5t17 -23.5t30 -18.5t33 -14t40 -13.5q11 -3 32.5 -9.5t30.5 -8.5q50 50 48 105z" />
    <glyph glyph-name="nine" unicode="9" horiz-adv-x="642" 
d="M31 460q0 111 75 172.5t185 61.5q308 0 308 -354q0 -90 -26 -159.5t-71 -111t-102 -62.5t-124 -21q-97 0 -187 42v132q73 -48 167 -48q171 0 194 174q-86 -46 -181 -46q-99 0 -168.5 58t-69.5 162zM303 572q-54 0 -88 -26t-34 -79q0 -102 133 -102q69 0 136 41
q-10 91 -47 128.5t-100 37.5z" />
    <glyph glyph-name="colon" unicode=":" horiz-adv-x="281" 
d="M225 373q0 -41 -24 -61.5t-60 -20.5t-60.5 21t-24.5 61t24.5 61t60.5 21t60 -21t24 -61zM225 69q0 -40 -24 -61t-60 -21t-60.5 21t-24.5 61t24.5 61t60.5 21t60 -21t24 -61z" />
    <glyph glyph-name="semicolon" unicode=";" horiz-adv-x="291" 
d="M132 -145h-112l63 269h147zM231 401q0 -41 -24 -62t-61 -21q-36 0 -60 21.5t-24 61.5t24 60.5t60 20.5q37 0 61 -20.5t24 -60.5z" />
    <glyph glyph-name="less" unicode="&#x3c;" horiz-adv-x="506" 
d="M437 261v-125l-398 145v138l398 145v-125l-277 -89z" />
    <glyph glyph-name="equal" unicode="=" horiz-adv-x="578" 
d="M519 391h-460v117h460v-117zM519 192h-460v117h460v-117z" />
    <glyph glyph-name="greater" unicode="&#x3e;" horiz-adv-x="506" 
d="M467 281l-398 -145v125l277 89l-277 89v125l398 -145v-138z" />
    <glyph glyph-name="question" unicode="?" horiz-adv-x="499" 
d="M292 230h-132q0 35 16.5 69.5t39.5 61.5t46 51.5t39.5 49t16.5 45.5q0 75 -114 75q-84 0 -169 -49v132q91 49 194 49q104 0 171.5 -43t67.5 -132q0 -38 -18 -75.5t-44 -67t-52 -57t-44 -56t-18 -53.5zM311 69q0 -40 -24 -61t-60 -21t-60.5 21t-24.5 61t24.5 61t60.5 21
t60 -21t24 -61z" />
    <glyph glyph-name="at" unicode="@" horiz-adv-x="1048" 
d="M37 240q0 92 33 176.5t93.5 151.5t156.5 106.5t212 39.5q115 0 208.5 -40.5t150 -105t86.5 -139t30 -149.5q0 -136 -58.5 -205t-160.5 -69q-60 0 -104 27t-61 74q-44 -76 -141 -76q-87 0 -138 62t-51 145q0 85 50.5 146.5t140.5 61.5q89 0 136 -67v55h106v-247
q0 -78 69 -78q85 0 85 171q0 56 -22 111.5t-63.5 102t-110 75.5t-152.5 29q-169 0 -268.5 -105t-99.5 -253q0 -173 115.5 -265t291.5 -92q109 0 217 35v-115q-101 -36 -221 -36q-107 0 -201.5 30.5t-168.5 88t-117 149t-43 205.5zM609 277q-10 30 -36 49.5t-62 19.5
q-45 0 -71.5 -31.5t-26.5 -76.5t26.5 -76.5t71.5 -31.5q35 0 61 20t37 49v78z" />
    <glyph glyph-name="A" unicode="A" horiz-adv-x="739" 
d="M158 0h-155l286 700h162l285 -700h-155l-51 131h-320zM354 506l-97 -251h226l-98 251q-10 28 -15 55q-6 -31 -16 -55z" />
    <glyph glyph-name="B" unicode="B" horiz-adv-x="686" 
d="M75 700h306q115 0 178.5 -44.5t63.5 -132.5q0 -117 -106 -153q58 -17 96 -59.5t38 -114.5q0 -57 -25 -97.5t-67.5 -60.5t-87 -29t-95.5 -9h-301v700zM501 212q0 90 -119 90h-158v-180h150q59 0 93 19t34 71zM474 497q0 80 -106 80h-143v-160h151q44 0 71 20.5t27 59.5z
" />
    <glyph glyph-name="C" unicode="C" horiz-adv-x="654" 
d="M36 342q0 92 32.5 165.5t86 117.5t119.5 66.5t138 22.5q110 0 200 -45v-143q-71 55 -175 55q-102 0 -174.5 -60.5t-72.5 -178.5q0 -56 21 -99.5t56.5 -69.5t79 -39.5t90.5 -13.5q116 0 180 58v-147q-93 -45 -203 -45q-72 0 -138 22t-120.5 64t-87 112t-32.5 158z" />
    <glyph glyph-name="D" unicode="D" horiz-adv-x="742" 
d="M75 700h262q180 0 273.5 -95.5t93.5 -254.5t-93.5 -254.5t-273.5 -95.5h-262v700zM551 350q0 108 -54.5 163t-159.5 55h-112v-436h112q105 0 159.5 55t54.5 163z" />
    <glyph glyph-name="E" unicode="E" horiz-adv-x="618" 
d="M75 700h493v-132h-343v-149h313v-131h-313v-156h349v-132h-499v700z" />
    <glyph glyph-name="F" unicode="F" horiz-adv-x="603" 
d="M75 700h494v-135h-344v-163h315v-135h-315v-267h-150v700z" />
    <glyph glyph-name="G" unicode="G" horiz-adv-x="702" 
d="M37 350q0 92 32 163.5t86.5 114.5t121.5 64.5t141 21.5q114 0 215 -45v-143q-82 54 -195 54q-104 0 -176 -57.5t-72 -172.5q0 -66 22.5 -114t59.5 -72.5t76 -35.5t82 -11t77 13v250h143v-347q-110 -47 -228 -47q-60 0 -115.5 13t-105 41.5t-85.5 70t-57.5 103
t-21.5 136.5z" />
    <glyph glyph-name="H" unicode="H" horiz-adv-x="764" 
d="M539 700h150v-700h-150v282h-314v-282h-150v700h150v-282h314v282z" />
    <glyph glyph-name="I" unicode="I" horiz-adv-x="300" 
d="M75 700h150v-700h-150v700z" />
    <glyph glyph-name="J" unicode="J" horiz-adv-x="515" 
d="M109 700h336v-489q0 -116 -70 -170t-180 -54q-102 0 -181 36v140q62 -38 145 -38q136 0 136 103v337h-186v135z" />
    <glyph glyph-name="K" unicode="K" horiz-adv-x="691" 
d="M225 0h-150v700h150v-278h113l177 278h167l-227 -341l240 -359h-166l-191 286h-113v-286z" />
    <glyph glyph-name="L" unicode="L" horiz-adv-x="581" 
d="M75 700h150v-565h343v-135h-493v700z" />
    <glyph glyph-name="M" unicode="M" horiz-adv-x="907" 
d="M693 700h139v-700h-150v431l-185 -281h-87l-185 282v-432h-150v700h139l240 -364z" />
    <glyph glyph-name="N" unicode="N" horiz-adv-x="764" 
d="M225 0h-150v700h141l326 -457q-3 43 -3 96v361h150v-700h-141l-326 457q3 -43 3 -96v-361z" />
    <glyph glyph-name="O" unicode="O" horiz-adv-x="816" 
d="M36 350q0 72 23.5 137t69 116t117.5 81t162 30t162 -30t117.5 -81t69 -116t23.5 -137t-23.5 -137t-69 -116t-117.5 -81t-162 -30t-162 30t-117.5 81t-69 116t-23.5 137zM626 350q0 97 -57 161t-161 64q-105 0 -162 -64t-57 -161t57 -161t162 -64q104 0 161 64t57 161z
" />
    <glyph glyph-name="P" unicode="P" horiz-adv-x="666" 
d="M75 700h264q302 0 302 -235t-302 -235h-114v-230h-150v700zM488 465q0 103 -142 103h-121v-206h121q142 0 142 103z" />
    <glyph glyph-name="Q" unicode="Q" horiz-adv-x="816" 
d="M780 32l-101 -91l-86 86q-80 -41 -185 -41q-90 0 -162 30t-117.5 81t-69 116t-23.5 137t23.5 137t69 116t117.5 81t162 30t162 -30t117.5 -81t69 -116t23.5 -137q0 -139 -81 -238zM189 350q0 -97 57 -161t162 -64q40 0 74 13l-84 84l96 95l96 -95q36 54 36 128
q0 97 -57 162t-161 65q-105 0 -162 -64.5t-57 -162.5z" />
    <glyph glyph-name="R" unicode="R" horiz-adv-x="706" 
d="M225 0h-150v700h288q55 0 101.5 -11t88 -36t65 -71t23.5 -110q0 -159 -153 -208l209 -264h-173l-189 245h-110v-245zM225 568v-198h145q51 0 84.5 24.5t33.5 74.5q0 51 -33 75t-85 24h-145z" />
    <glyph glyph-name="S" unicode="S" horiz-adv-x="606" 
d="M44 515q0 97 73 148t183 51q132 0 227 -54v-140q-89 64 -216 62q-114 -2 -114 -65q0 -28 28.5 -49t71 -33.5t92 -32t92 -42t71 -66.5t28.5 -102q0 -57 -21.5 -98t-60.5 -64t-86 -33.5t-105 -10.5q-146 0 -259 63v143q112 -74 248 -74q131 0 131 67q0 30 -28.5 52.5
t-71 36t-92 33t-92 42t-71 65.5t-28.5 101z" />
    <glyph glyph-name="T" unicode="T" horiz-adv-x="605" 
d="M13 700h579v-135h-215v-565h-149v565h-215v135z" />
    <glyph glyph-name="U" unicode="U" horiz-adv-x="750" 
d="M533 700h149v-437q0 -60 -17 -108t-46 -79t-69 -52t-83.5 -29.5t-91.5 -8.5t-91.5 8.5t-83.5 29.5t-69 52t-46 79t-17 108v437h150v-429q0 -150 157 -150q158 0 158 150v429z" />
    <glyph glyph-name="V" unicode="V" horiz-adv-x="711" 
d="M432 0h-154l-272 700h162l187 -524l188 524h162z" />
    <glyph glyph-name="W" unicode="W" horiz-adv-x="1056" 
d="M884 700h162l-216 -700h-163l-139 477l-139 -477h-163l-216 700h162l139 -529l151 529h132l151 -529z" />
    <glyph glyph-name="X" unicode="X" horiz-adv-x="678" 
d="M169 0h-175l251 363l-236 337h175l155 -230l154 230h176l-236 -337l251 -363h-176l-169 255z" />
    <glyph glyph-name="Y" unicode="Y" horiz-adv-x="702" 
d="M426 0h-149v248l-274 452h169l179 -314l179 314h169l-273 -452v-248z" />
    <glyph glyph-name="Z" unicode="Z" horiz-adv-x="614" 
d="M580 0h-548v108l338 457h-323v135h521v-108l-339 -457h351v-135z" />
    <glyph glyph-name="bracketleft" unicode="[" horiz-adv-x="331" 
d="M302 -110h-241v920h241v-125h-101v-669h101v-126z" />
    <glyph glyph-name="backslash" unicode="\" horiz-adv-x="451" 
d="M428 -59h-99l-306 818h99z" />
    <glyph glyph-name="bracketright" unicode="]" horiz-adv-x="331" 
d="M270 -110h-241v126h101v669h-101v125h241v-920z" />
    <glyph glyph-name="asciicircum" unicode="^" 
d="M181 354h-149l202 346h122l202 -346h-149l-114 208z" />
    <glyph glyph-name="underscore" unicode="_" horiz-adv-x="484" 
d="M484 -173h-484v118h484v-118z" />
    <glyph glyph-name="grave" unicode="`" horiz-adv-x="253" 
d="M243 764h-134l-108 148h152z" />
    <glyph glyph-name="a" unicode="a" horiz-adv-x="555" 
d="M488 124q0 -32 34 -32q14 0 26 4v-91q-38 -14 -77 -14q-76 0 -106 54q-75 -59 -173 -59q-71 0 -119.5 39.5t-48.5 107.5q0 57 34 95t79 51.5t98 13.5q59 0 114 -13v17q0 37 -29 59t-84 22q-80 0 -170 -36v120q96 32 186 32q236 0 236 -217v-153zM267 210q-43 0 -72 -16
t-29 -50q0 -26 21.5 -42.5t53.5 -16.5q63 0 108 39v75q-46 11 -82 11z" />
    <glyph glyph-name="b" unicode="b" horiz-adv-x="622" 
d="M59 700h139v-271q57 65 158 65q109 0 171.5 -74.5t62.5 -179.5t-62.5 -179.5t-171.5 -74.5q-115 0 -174 84v-70h-123v700zM448 240q0 58 -34 97.5t-92 39.5q-43 0 -76.5 -23t-48.5 -57v-114q15 -34 48.5 -57t76.5 -23q58 0 92 39.5t34 97.5z" />
    <glyph glyph-name="c" unicode="c" horiz-adv-x="490" 
d="M32 233q0 66 23.5 118t62.5 82.5t86 46t99 15.5q83 0 148 -35v-122q-56 36 -128 36q-63 0 -106 -33t-43 -101q0 -65 43 -99.5t104 -34.5q77 0 135 35v-123q-75 -32 -162 -32q-108 0 -185 63.5t-77 183.5z" />
    <glyph glyph-name="d" unicode="d" horiz-adv-x="622" 
d="M425 700h138v-700h-122v70q-61 -84 -174 -84q-109 0 -172 74.5t-63 179.5t63 179.5t172 74.5q99 0 158 -65v271zM425 297q-15 34 -48.5 57t-76.5 23q-58 0 -92 -39.5t-34 -97.5t34 -97.5t92 -39.5q43 0 76.5 23t48.5 57v114z" />
    <glyph glyph-name="e" unicode="e" horiz-adv-x="547" 
d="M32 240q0 65 23 115.5t60.5 79.5t79 44t84.5 15q72 0 124.5 -27t77.5 -69.5t34.5 -96t-5.5 -106.5h-338q11 -50 58 -74.5t111 -24.5q79 0 145 29v-109q-71 -30 -176 -30q-120 0 -199 67t-79 187zM385 285q5 33 -19 68t-82 35q-46 0 -79 -27.5t-34 -75.5h214z" />
    <glyph glyph-name="f" unicode="f" horiz-adv-x="403" 
d="M244 0h-138v363h-83v117h83v47q0 52 16.5 90t44.5 58.5t59.5 29.5t68.5 9q66 0 118 -20v-117q-35 20 -83 20q-86 0 -86 -76v-41h147v-117h-147v-363z" />
    <glyph glyph-name="g" unicode="g" horiz-adv-x="622" 
d="M32 240q0 105 63 179.5t172 74.5q113 0 174 -84v70h122v-467q0 -66 -23 -115.5t-62.5 -77t-87.5 -41t-103 -13.5q-110 0 -203 45v122q84 -50 185 -50q156 0 156 124v44q-59 -65 -158 -65q-109 0 -172 74.5t-63 179.5zM425 297q-15 34 -48.5 57t-76.5 23q-58 0 -92 -39.5
t-34 -97.5t34 -97.5t92 -39.5q43 0 76.5 22t48.5 55v117z" />
    <glyph glyph-name="h" unicode="h" 
d="M59 700h139v-264q62 58 144 58q92 0 143.5 -55.5t51.5 -141.5v-297h-139v279q0 47 -25.5 71t-67.5 24q-65 0 -107 -61v-313h-139v700z" />
    <glyph glyph-name="i" unicode="i" horiz-adv-x="260" 
d="M199 0h-139v480h139v-480zM211 639q0 -39 -23 -59t-59 -20q-35 0 -58 20t-23 59q0 38 23 58t58 20t58.5 -20t23.5 -58z" />
    <glyph glyph-name="j" unicode="j" horiz-adv-x="259" 
d="M199 -68q0 -87 -47.5 -126.5t-120.5 -39.5q-52 0 -86 14v119q21 -10 50 -10q66 0 66 68v523h138v-548zM211 639q0 -39 -23 -59t-58 -20t-58.5 20t-23.5 59q0 38 23.5 58t58.5 20t58 -20t23 -58z" />
    <glyph glyph-name="k" unicode="k" horiz-adv-x="547" 
d="M548 0h-156l-138 190h-56v-190h-139v700h139v-399h58l122 179h156l-165 -237z" />
    <glyph glyph-name="l" unicode="l" horiz-adv-x="261" 
d="M61 730h139v-730h-139v730z" />
    <glyph glyph-name="m" unicode="m" horiz-adv-x="875" 
d="M198 0h-139v480h123v-56q23 27 63 48.5t90 21.5q99 0 147 -71q73 71 160 71q92 0 135.5 -57.5t43.5 -132.5v-304h-138v295q0 37 -20.5 58t-54.5 21q-53 0 -95 -48q1 -7 1 -22v-304h-138v295q0 37 -20.5 58t-54.5 21q-59 0 -103 -58v-316z" />
    <glyph glyph-name="n" unicode="n" 
d="M182 419q65 75 160 75q92 0 143.5 -55.5t51.5 -141.5v-297h-139v279q0 47 -25.5 71t-67.5 24q-65 0 -107 -61v-313h-139v480h123v-61z" />
    <glyph glyph-name="o" unicode="o" horiz-adv-x="594" 
d="M32 240q0 120 77 187t188 67q112 0 188.5 -67t76.5 -187t-76.5 -187t-188.5 -67q-111 0 -188 67t-77 187zM421 240q0 57 -33 93.5t-91 36.5t-90.5 -36.5t-32.5 -93.5t32.5 -93.5t90.5 -36.5t91 36.5t33 93.5z" />
    <glyph glyph-name="p" unicode="p" horiz-adv-x="622" 
d="M182 410q59 84 174 84q109 0 171.5 -74.5t62.5 -179.5t-62.5 -179.5t-171.5 -74.5q-99 0 -158 65v-271h-139v700h123v-70zM448 240q0 58 -34 97.5t-92 39.5q-43 0 -76.5 -23t-48.5 -57v-114q15 -34 48.5 -57t76.5 -23q58 0 92 39.5t34 97.5z" />
    <glyph glyph-name="q" unicode="q" horiz-adv-x="622" 
d="M32 240q0 105 63 179.5t172 74.5q113 0 174 -84v70h122v-700h-138v271q-59 -65 -158 -65q-109 0 -172 74.5t-63 179.5zM425 297q-15 34 -48.5 57t-76.5 23q-58 0 -92 -39.5t-34 -97.5t34 -97.5t92 -39.5q43 0 76.5 23t48.5 57v114z" />
    <glyph glyph-name="r" unicode="r" horiz-adv-x="391" 
d="M182 408q27 42 78 65t116 17v-135q-57 10 -106.5 -10t-71.5 -63v-282h-139v480h123v-72z" />
    <glyph glyph-name="s" unicode="s" horiz-adv-x="477" 
d="M38 346q0 77 57 112.5t143 35.5q93 0 177 -41v-114q-31 21 -78.5 35t-89.5 14q-67 0 -67 -38q0 -22 28 -36t68 -24.5t79.5 -25.5t67.5 -48t28 -82q0 -54 -31.5 -88t-78 -47t-108.5 -13q-115 0 -191 45v115q78 -51 183 -51q84 0 84 36q0 21 -28 35t-67.5 25t-79.5 26.5
t-68 48t-28 80.5z" />
    <glyph glyph-name="t" unicode="t" horiz-adv-x="418" 
d="M95 620l138 33v-173h152v-117h-152v-188q0 -72 77 -72q46 0 87 16v-112q-60 -21 -129 -21q-76 0 -124.5 39t-48.5 123v215h-81v117h81v140z" />
    <glyph glyph-name="u" unicode="u" 
d="M392 480h139v-480h-123v61q-65 -75 -160 -75q-94 0 -144.5 55t-50.5 142v297h139v-279q0 -47 24 -71t68 -24q64 0 108 61v313z" />
    <glyph glyph-name="v" unicode="v" horiz-adv-x="560" 
d="M403 480h148l-198 -480h-146l-198 480h148l123 -333z" />
    <glyph glyph-name="w" unicode="w" horiz-adv-x="817" 
d="M658 480h147l-154 -480h-147l-95 313l-95 -313h-148l-154 480h148l87 -329l96 329h132l95 -329z" />
    <glyph glyph-name="x" unicode="x" horiz-adv-x="530" 
d="M362 480h157l-173 -238l183 -242h-157l-106 147l-107 -147h-157l183 242l-174 238h157l98 -144z" />
    <glyph glyph-name="y" unicode="y" horiz-adv-x="563" 
d="M290 156l119 324h144l-213 -538q-71 -175 -207 -175q-29 0 -75 11v115q33 -7 57 -7q76 0 114 105l1 2l-227 487h147z" />
    <glyph glyph-name="z" unicode="z" horiz-adv-x="482" 
d="M44 480h391v-90l-225 -274h241v-116h-420v90l225 275h-212v115z" />
    <glyph glyph-name="braceleft" unicode="{" horiz-adv-x="357" 
d="M319 12v-122q-102 -23 -160 16t-58 125v191q0 69 -74 67v122q74 -2 74 67v191q0 86 58 125t160 16v-122q-43 7 -60.5 -13t-17.5 -67v-148q0 -51 -25.5 -79.5t-59.5 -30.5q34 -2 59.5 -30.5t25.5 -79.5v-148q0 -47 17.5 -67t60.5 -13z" />
    <glyph glyph-name="bar" unicode="|" horiz-adv-x="262" 
d="M201 -100h-140v910h140v-910z" />
    <glyph glyph-name="braceright" unicode="}" horiz-adv-x="357" 
d="M256 31q0 -86 -58 -125t-160 -16v122q43 -7 60.5 13t17.5 67v148q0 51 25.5 79.5t59.5 30.5q-34 2 -59.5 30.5t-25.5 79.5v148q0 47 -17.5 67t-60.5 13v122q102 23 160 -16t58 -125v-191q0 -69 74 -67v-122q-74 2 -74 -67v-191z" />
    <glyph glyph-name="asciitilde" unicode="~" horiz-adv-x="601" 
d="M546 407q9 -76 -27 -118t-100 -42q-39 0 -113.5 27t-96.5 26q-35 0 -29 -43h-118q-9 77 27.5 118t96.5 41q44 0 115.5 -26t96.5 -26q35 0 30 43h118z" />
    <glyph glyph-name="exclamdown" unicode="&#xa1;" horiz-adv-x="260" 
d="M203 -219h-146l9 460h128zM214 412q0 -40 -24 -60.5t-60 -20.5t-60 20.5t-24 60.5t24 61t60 21t60 -20.5t24 -61.5z" />
    <glyph glyph-name="cent" unicode="&#xa2;" horiz-adv-x="507" 
d="M366 109q54 9 92 32v-123q-44 -19 -92 -26v-112h-96v107q-100 7 -168 70t-68 176q0 118 68 184t168 76v107h96v-110q49 -9 87 -30v-122q-39 25 -87 32v-261zM270 367q-94 -27 -94 -127q0 -50 26 -82t68 -44v253z" />
    <glyph glyph-name="sterling" unicode="&#xa3;" horiz-adv-x="603" 
d="M566 0h-528v122h26q32 0 50.5 24t18.5 61v72h-80v112h80v62q0 121 70 181t175 60q85 0 161 -37v-122q-56 44 -133 44q-58 0 -95.5 -32t-37.5 -97v-59h194v-112h-194v-72q0 -60 -34 -85h327v-122z" />
    <glyph glyph-name="currency" unicode="&#xa4;" horiz-adv-x="569" 
d="M180 177l-62 -62l-69 69l58 57q-31 46 -31 109q0 62 31 109l-58 58l68 69l63 -63q46 24 104 24t104 -24l63 63l69 -69l-59 -59q31 -47 31 -108q0 -63 -31 -108l59 -58l-69 -69l-62 62q-47 -24 -105 -24t-104 24zM195 350q0 -38 23.5 -63t65.5 -25t65.5 25t23.5 63
t-23.5 63t-65.5 25t-65.5 -25t-23.5 -63z" />
    <glyph glyph-name="yen" unicode="&#xa5;" horiz-adv-x="714" 
d="M525 680h161l-201 -332h108v-96h-162v-52h162v-96h-162v-104h-149v104h-161v96h161v52h-161v96h107l-201 332h161l168 -300z" />
    <glyph glyph-name="brokenbar" unicode="&#xa6;" horiz-adv-x="274" 
d="M207 438h-140v372h140v-372zM207 -100h-140v372h140v-372z" />
    <glyph glyph-name="section" unicode="&#xa7;" horiz-adv-x="522" 
d="M467 113q0 -54 -31.5 -88t-78 -47t-108.5 -13q-105 0 -181 45v111q77 -49 174 -49q42 0 62.5 7.5t20.5 29.5q0 28 -63 49q-12 4 -56 17q-35 11 -59 21.5t-49 27.5t-38 43t-13 59q0 81 71 129q-61 41 -61 111q0 77 58 112.5t146 35.5q90 0 174 -41v-110q-32 19 -78.5 32
t-85.5 13q-72 0 -72 -38q0 -12 7.5 -21.5t29.5 -19t33 -13t47 -13.5q2 -1 3.5 -1t3 -1t3.5 -1q71 -21 112 -53.5t41 -93.5q0 -76 -70 -126q58 -43 58 -114zM249 291l57 -17q39 24 39 59q0 21 -17 34t-49 26l-61 20q-43 -21 -43 -61q0 -22 18 -34.5t56 -26.5z" />
    <glyph glyph-name="dieresis" unicode="&#xa8;" horiz-adv-x="346" 
d="M355 833q0 -31 -21.5 -52.5t-52.5 -21.5t-53 21.5t-22 52.5t22 53t53 22t52.5 -22t21.5 -53zM141 833q0 -31 -21.5 -52.5t-52.5 -21.5t-53 21.5t-22 52.5t22 53t53 22t52.5 -22t21.5 -53z" />
    <glyph glyph-name="copyright" unicode="&#xa9;" horiz-adv-x="846" 
d="M806 350q0 -87 -33 -158t-87.5 -115t-122 -67.5t-140.5 -23.5t-140.5 23.5t-122 67.5t-87.5 115t-33 158t33 158t87.5 115t122 67.5t140.5 23.5t140.5 -23.5t122 -67.5t87.5 -115t33 -158zM578 180q-65 -34 -142 -34q-38 0 -73.5 11.5t-66.5 34.5t-49.5 61.5t-18.5 88.5
q0 105 64.5 158.5t155.5 53.5q75 0 130 -34v-89q-53 30 -110 30q-52 0 -88.5 -27t-36.5 -86q0 -58 35.5 -83.5t87.5 -25.5q57 0 112 30v-89zM90 350q0 -149 99.5 -233.5t233.5 -84.5t233.5 84.5t99.5 233.5t-99.5 233.5t-233.5 84.5t-233.5 -84.5t-99.5 -233.5z" />
    <glyph glyph-name="guillemotleft" unicode="&#xab;" horiz-adv-x="559" 
d="M526 46h-140l-129 181v26l129 181h140l-136 -194zM298 46h-140l-129 181v26l129 181h140l-136 -194z" />
    <glyph glyph-name="logicalnot" unicode="&#xac;" horiz-adv-x="577" 
d="M515 238h-119v124h-349v118h468v-242z" />
    <glyph glyph-name="registered" unicode="&#xae;" horiz-adv-x="839" 
d="M799 350q0 -113 -56 -198t-141 -125.5t-182 -40.5q-98 0 -183 40.5t-141 125.5t-56 198t56 198t141 125.5t183 40.5q97 0 182 -40.5t141 -125.5t56 -198zM90 350q0 -150 97 -233t233 -83q87 0 160.5 34t121.5 107.5t48 174.5t-48 174.5t-121.5 107.5t-160.5 34
q-136 0 -233 -83t-97 -233zM360 159h-96v391h189q63 0 109.5 -33t46.5 -101q0 -47 -23 -77.5t-60 -41.5l106 -138h-109l-96 128h-9h-58v-128zM360 460v-95h81q66 0 66 47q0 48 -66 48h-81z" />
    <glyph glyph-name="macron" unicode="&#xaf;" horiz-adv-x="360" 
d="M17 877h326v-110h-326v110z" />
    <glyph glyph-name="degree" unicode="&#xb0;" horiz-adv-x="416" 
d="M384 547q0 -80 -50.5 -125t-125.5 -45t-126 45t-51 125q0 77 51.5 122t125.5 45t125 -45t51 -122zM134 547q0 -34 20.5 -54.5t54.5 -20.5t53.5 20t19.5 55q0 33 -19.5 52.5t-53.5 19.5t-54.5 -19.5t-20.5 -52.5z" />
    <glyph glyph-name="plusminus" unicode="&#xb1;" horiz-adv-x="576" 
d="M347 648v-175h175v-118h-175v-175h-118v175h-175v118h175v175h118zM522 0h-468v118h468v-118z" />
    <glyph glyph-name="acute" unicode="&#xb4;" horiz-adv-x="240" 
d="M143 764h-134l90 148h152z" />
    <glyph glyph-name="paragraph" unicode="&#xb6;" horiz-adv-x="731" 
d="M402 -220h-143v487q-107 0 -168.5 57.5t-61.5 159.5q0 101 61.5 158.5t168.5 57.5h398v-920h-143v785h-112v-785z" />
    <glyph glyph-name="periodcentered" unicode="&#xb7;" horiz-adv-x="264" 
d="M216 239q0 -41 -24 -61.5t-60 -20.5t-60.5 21t-24.5 61t24.5 61t60.5 21t60 -21t24 -61z" />
    <glyph glyph-name="cedilla" unicode="&#xb8;" horiz-adv-x="222" 
d="M62 0h97l-13 -48q94 -9 94 -87q1 -49 -42 -74t-102 -25t-102 19v86q34 -20 80 -20q62 0 62 30q0 18 -27.5 24.5t-68.5 1.5z" />
    <glyph glyph-name="guillemotright" unicode="&#xbb;" horiz-adv-x="559" 
d="M401 46h-140l136 194l-136 194h140l129 -181v-26zM173 46h-140l136 194l-136 194h140l129 -181v-26z" />
    <glyph glyph-name="onequarter" unicode="&#xbc;" horiz-adv-x="916" 
d="M729 408h97v-254h59v-82h-59v-72h-92v72h-212v81zM734 154v135l-110 -135h110zM236 -14h-45l458 728h45zM159 680h70v-324h75v-84h-258v84h89v227l-86 -28v87z" />
    <glyph glyph-name="onehalf" unicode="&#xbd;" horiz-adv-x="879" 
d="M232 -14h-45l458 728h45zM551 373q63 44 143 44q67 0 108.5 -31t41.5 -92q0 -47 -29.5 -80t-79.5 -63q-26 -15 -35 -20t-25 -15.5t-22 -18t-6 -14.5l198 1v-84h-307v43q0 28 9.5 52.5t19 39.5t33.5 33.5t33.5 24t38.5 22.5q4 3 16.5 10t17 9.5t13.5 8.5t12.5 10t8.5 10.5
t6.5 12.5t1.5 14q0 42 -63 42q-68 0 -134 -50v91zM155 680h70v-324h75v-84h-258v84h89v227l-86 -28v87z" />
    <glyph glyph-name="threequarters" unicode="&#xbe;" horiz-adv-x="971" 
d="M294 -14h-45l458 728h45zM784 408h97v-254h59v-82h-59v-72h-92v72h-212v81zM789 154v135l-110 -135h110zM332 581q0 -65 -57 -88q74 -25 74 -104q0 -61 -48 -91t-118 -30t-141 28v90q59 -34 133 -32q82 0 82 48q0 43 -66 43h-68l1 83h56q61 0 61 39q0 42 -71 42
q-63 0 -121 -38v90q61 33 134 33q66 0 107.5 -29.5t41.5 -83.5z" />
    <glyph glyph-name="questiondown" unicode="&#xbf;" horiz-adv-x="492" 
d="M460 -184q-93 -49 -194 -49q-104 0 -171.5 43t-67.5 132q0 38 18 76t44 67t52 56.5t44 56t18 53.5h132q0 -43 -24.5 -85.5t-54.5 -71.5t-54.5 -62t-24.5 -58q0 -75 114 -75q84 0 169 49v-132zM352 412q0 -40 -24 -60.5t-60 -20.5q-37 0 -61 20.5t-24 60.5q0 41 24 61.5
t61 20.5q36 0 60 -21t24 -61z" />
    <glyph glyph-name="Agrave" unicode="&#xc0;" horiz-adv-x="739" 
d="M158 0h-155l286 700h162l285 -700h-155l-51 131h-320zM354 506l-97 -251h226l-98 251q-10 28 -15 55q-6 -31 -16 -55zM456 764h-134l-108 148h152z" />
    <glyph glyph-name="Aacute" unicode="&#xc1;" horiz-adv-x="739" 
d="M158 0h-155l286 700h162l285 -700h-155l-51 131h-320zM354 506l-97 -251h226l-98 251q-10 28 -15 55q-6 -31 -16 -55zM415 764h-134l90 148h152z" />
    <glyph glyph-name="Acircumflex" unicode="&#xc2;" horiz-adv-x="739" 
d="M158 0h-155l286 700h162l285 -700h-155l-51 131h-320zM354 506l-97 -251h226l-98 251q-10 28 -15 55q-6 -31 -16 -55zM308 912h123l124 -155h-132l-53 65l-53 -65h-133z" />
    <glyph glyph-name="Atilde" unicode="&#xc3;" horiz-adv-x="739" 
d="M158 0h-155l286 700h162l285 -700h-155l-51 131h-320zM354 506l-97 -251h226l-98 251q-10 28 -15 55q-6 -31 -16 -55zM547 885q14 -60 -14 -99.5t-80 -39.5q-37 0 -84 21t-58 21q-16 0 -21.5 -11.5t-1.5 -24.5h-100q-14 60 14 99.5t79 39.5q37 0 84 -21t59 -21
q16 0 21.5 11.5t1.5 24.5h100z" />
    <glyph glyph-name="Adieresis" unicode="&#xc4;" horiz-adv-x="739" 
d="M158 0h-155l286 700h162l285 -700h-155l-51 131h-320zM354 506l-97 -251h226l-98 251q-10 28 -15 55q-6 -31 -16 -55zM550 833q0 -31 -21.5 -52.5t-52.5 -21.5t-53 21.5t-22 52.5t22 53t53 22t52.5 -22t21.5 -53zM336 833q0 -31 -21.5 -52.5t-52.5 -21.5t-53 21.5
t-22 52.5t22 53t53 22t52.5 -22t21.5 -53z" />
    <glyph glyph-name="Aring" unicode="&#xc5;" horiz-adv-x="739" 
d="M158 0h-155l286 700h162l285 -700h-155l-51 131h-320zM354 506l-97 -251h226l-98 251q-10 28 -15 55q-6 -31 -16 -55zM493 852q0 -56 -36 -88.5t-89 -32.5q-52 0 -88.5 32.5t-36.5 88.5q0 54 36.5 86t88.5 32t88.5 -32t36.5 -86zM327 851q0 -19 12 -31t30 -12t30 12
t12 31t-12 30.5t-30 11.5t-30 -11.5t-12 -30.5z" />
    <glyph glyph-name="AE" unicode="&#xc6;" horiz-adv-x="1012" 
d="M644 288v-156h325v-132h-475v135h-266l-88 -135h-156l457 700h522v-132h-319v-149h289v-131h-289zM303 255h190v292z" />
    <glyph glyph-name="Ccedilla" unicode="&#xc7;" horiz-adv-x="654" 
d="M617 178v-147q-67 -33 -149 -42l-10 -37q94 -9 94 -87q1 -49 -42 -74t-102 -25t-102 19v86q34 -20 80 -20q62 0 62 30q0 18 -27.5 24.5t-68.5 1.5l19 81q-66 6 -125 31t-106.5 67t-75.5 108.5t-28 147.5q0 92 32.5 165.5t86 117.5t119.5 66.5t138 22.5q110 0 200 -45
v-143q-71 55 -175 55q-102 0 -174.5 -60.5t-72.5 -178.5q0 -56 21 -99.5t56.5 -69.5t79 -39.5t90.5 -13.5q116 0 180 58z" />
    <glyph glyph-name="Egrave" unicode="&#xc8;" horiz-adv-x="618" 
d="M75 700h493v-132h-343v-149h313v-131h-313v-156h349v-132h-499v700zM418 764h-134l-108 148h152z" />
    <glyph glyph-name="Eacute" unicode="&#xc9;" horiz-adv-x="618" 
d="M75 700h493v-132h-343v-149h313v-131h-313v-156h349v-132h-499v700zM377 764h-134l90 148h152z" />
    <glyph glyph-name="Ecircumflex" unicode="&#xca;" horiz-adv-x="618" 
d="M75 700h493v-132h-343v-149h313v-131h-313v-156h349v-132h-499v700zM270 912h123l124 -155h-132l-53 65l-53 -65h-133z" />
    <glyph glyph-name="Edieresis" unicode="&#xcb;" horiz-adv-x="618" 
d="M75 700h493v-132h-343v-149h313v-131h-313v-156h349v-132h-499v700zM512 833q0 -31 -21.5 -52.5t-52.5 -21.5t-53 21.5t-22 52.5t22 53t53 22t52.5 -22t21.5 -53zM298 833q0 -31 -21.5 -52.5t-52.5 -21.5t-53 21.5t-22 52.5t22 53t53 22t52.5 -22t21.5 -53z" />
    <glyph glyph-name="Igrave" unicode="&#xcc;" horiz-adv-x="300" 
d="M75 700h150v-700h-150v700zM238 764h-134l-108 148h152z" />
    <glyph glyph-name="Iacute" unicode="&#xcd;" horiz-adv-x="300" 
d="M75 700h150v-700h-150v700zM197 764h-134l90 148h152z" />
    <glyph glyph-name="Icircumflex" unicode="&#xce;" horiz-adv-x="300" 
d="M75 700h150v-700h-150v700zM90 912h123l124 -155h-132l-53 65l-53 -65h-133z" />
    <glyph glyph-name="Idieresis" unicode="&#xcf;" horiz-adv-x="300" 
d="M75 700h150v-700h-150v700zM332 833q0 -31 -21.5 -52.5t-52.5 -21.5t-53 21.5t-22 52.5t22 53t53 22t52.5 -22t21.5 -53zM118 833q0 -31 -21.5 -52.5t-52.5 -21.5t-53 21.5t-22 52.5t22 53t53 22t52.5 -22t21.5 -53z" />
    <glyph glyph-name="Eth" unicode="&#xd0;" horiz-adv-x="752" 
d="M86 700h262q180 0 273.5 -95.5t93.5 -254.5t-93.5 -254.5t-273.5 -95.5h-262v294h-74v111h74v295zM236 132h112q105 0 159.5 55t54.5 163t-54.5 163t-159.5 55h-112v-163h155v-111h-155v-162z" />
    <glyph glyph-name="Ntilde" unicode="&#xd1;" horiz-adv-x="764" 
d="M225 0h-150v700h141l326 -457q-3 43 -3 96v361h150v-700h-141l-326 457q3 -43 3 -96v-361zM560 885q14 -60 -14 -99.5t-80 -39.5q-37 0 -84 21t-58 21q-16 0 -21.5 -11.5t-1.5 -24.5h-100q-14 60 14 99.5t79 39.5q37 0 84 -21t59 -21q16 0 21.5 11.5t1.5 24.5h100z" />
    <glyph glyph-name="Ograve" unicode="&#xd2;" horiz-adv-x="816" 
d="M36 350q0 72 23.5 137t69 116t117.5 81t162 30t162 -30t117.5 -81t69 -116t23.5 -137t-23.5 -137t-69 -116t-117.5 -81t-162 -30t-162 30t-117.5 81t-69 116t-23.5 137zM626 350q0 97 -57 161t-161 64q-105 0 -162 -64t-57 -161t57 -161t162 -64q104 0 161 64t57 161z
M495 764h-134l-108 148h152z" />
    <glyph glyph-name="Oacute" unicode="&#xd3;" horiz-adv-x="816" 
d="M36 350q0 72 23.5 137t69 116t117.5 81t162 30t162 -30t117.5 -81t69 -116t23.5 -137t-23.5 -137t-69 -116t-117.5 -81t-162 -30t-162 30t-117.5 81t-69 116t-23.5 137zM626 350q0 97 -57 161t-161 64q-105 0 -162 -64t-57 -161t57 -161t162 -64q104 0 161 64t57 161z
M454 764h-134l90 148h152z" />
    <glyph glyph-name="Ocircumflex" unicode="&#xd4;" horiz-adv-x="816" 
d="M36 350q0 72 23.5 137t69 116t117.5 81t162 30t162 -30t117.5 -81t69 -116t23.5 -137t-23.5 -137t-69 -116t-117.5 -81t-162 -30t-162 30t-117.5 81t-69 116t-23.5 137zM626 350q0 97 -57 161t-161 64q-105 0 -162 -64t-57 -161t57 -161t162 -64q104 0 161 64t57 161z
M347 912h123l124 -155h-132l-53 65l-53 -65h-133z" />
    <glyph glyph-name="Otilde" unicode="&#xd5;" horiz-adv-x="816" 
d="M36 350q0 72 23.5 137t69 116t117.5 81t162 30t162 -30t117.5 -81t69 -116t23.5 -137t-23.5 -137t-69 -116t-117.5 -81t-162 -30t-162 30t-117.5 81t-69 116t-23.5 137zM626 350q0 97 -57 161t-161 64q-105 0 -162 -64t-57 -161t57 -161t162 -64q104 0 161 64t57 161z
M586 885q14 -60 -14 -99.5t-80 -39.5q-37 0 -84 21t-58 21q-16 0 -21.5 -11.5t-1.5 -24.5h-100q-14 60 14 99.5t79 39.5q37 0 84 -21t59 -21q16 0 21.5 11.5t1.5 24.5h100z" />
    <glyph glyph-name="Odieresis" unicode="&#xd6;" horiz-adv-x="816" 
d="M36 350q0 72 23.5 137t69 116t117.5 81t162 30t162 -30t117.5 -81t69 -116t23.5 -137t-23.5 -137t-69 -116t-117.5 -81t-162 -30t-162 30t-117.5 81t-69 116t-23.5 137zM626 350q0 97 -57 161t-161 64q-105 0 -162 -64t-57 -161t57 -161t162 -64q104 0 161 64t57 161z
M589 833q0 -31 -21.5 -52.5t-52.5 -21.5t-53 21.5t-22 52.5t22 53t53 22t52.5 -22t21.5 -53zM375 833q0 -31 -21.5 -52.5t-52.5 -21.5t-53 21.5t-22 52.5t22 53t53 22t52.5 -22t21.5 -53z" />
    <glyph glyph-name="multiply" unicode="&#xd7;" horiz-adv-x="504" 
d="M252 273l-125 -125l-78 77l125 126l-125 125l78 77l125 -125l125 125l78 -77l-125 -125l125 -126l-78 -77z" />
    <glyph glyph-name="Oslash" unicode="&#xd8;" horiz-adv-x="816" 
d="M739 748l-83 -115q61 -51 92.5 -125t31.5 -158q0 -72 -23.5 -137t-69 -116t-117.5 -81t-162 -30q-106 0 -187 42l-54 -76h-100l87 120q-58 51 -88 123.5t-30 154.5q0 72 23.5 137t69 116t117.5 81t162 30q101 0 180 -38l52 72h99zM408 575q-105 0 -162 -64t-57 -161
q0 -94 53 -155l260 362q-39 18 -94 18zM306 146q44 -21 102 -21q104 0 161 64t57 161q0 100 -57 161z" />
    <glyph glyph-name="Ugrave" unicode="&#xd9;" horiz-adv-x="750" 
d="M533 700h149v-437q0 -60 -17 -108t-46 -79t-69 -52t-83.5 -29.5t-91.5 -8.5t-91.5 8.5t-83.5 29.5t-69 52t-46 79t-17 108v437h150v-429q0 -150 157 -150q158 0 158 150v429zM461 764h-134l-108 148h152z" />
    <glyph glyph-name="Uacute" unicode="&#xda;" horiz-adv-x="750" 
d="M533 700h149v-437q0 -60 -17 -108t-46 -79t-69 -52t-83.5 -29.5t-91.5 -8.5t-91.5 8.5t-83.5 29.5t-69 52t-46 79t-17 108v437h150v-429q0 -150 157 -150q158 0 158 150v429zM420 764h-134l90 148h152z" />
    <glyph glyph-name="Ucircumflex" unicode="&#xdb;" horiz-adv-x="750" 
d="M533 700h149v-437q0 -60 -17 -108t-46 -79t-69 -52t-83.5 -29.5t-91.5 -8.5t-91.5 8.5t-83.5 29.5t-69 52t-46 79t-17 108v437h150v-429q0 -150 157 -150q158 0 158 150v429zM313 912h123l124 -155h-132l-53 65l-53 -65h-133z" />
    <glyph glyph-name="Udieresis" unicode="&#xdc;" horiz-adv-x="750" 
d="M533 700h149v-437q0 -60 -17 -108t-46 -79t-69 -52t-83.5 -29.5t-91.5 -8.5t-91.5 8.5t-83.5 29.5t-69 52t-46 79t-17 108v437h150v-429q0 -150 157 -150q158 0 158 150v429zM555 833q0 -31 -21.5 -52.5t-52.5 -21.5t-53 21.5t-22 52.5t22 53t53 22t52.5 -22t21.5 -53z
M341 833q0 -31 -21.5 -52.5t-52.5 -21.5t-53 21.5t-22 52.5t22 53t53 22t52.5 -22t21.5 -53z" />
    <glyph glyph-name="Yacute" unicode="&#xdd;" horiz-adv-x="702" 
d="M426 0h-149v248l-274 452h169l179 -314l179 314h169l-273 -452v-248zM396 764h-134l90 148h152z" />
    <glyph glyph-name="Thorn" unicode="&#xde;" horiz-adv-x="665" 
d="M225 585h114q302 0 302 -235q0 -233 -302 -235h-114v-115h-150v700h150v-115zM225 247h121q142 0 142 103t-142 103h-121v-206z" />
    <glyph glyph-name="germandbls" unicode="&#xdf;" 
d="M568 143q0 -77 -58.5 -117t-139.5 -40q-64 0 -118 24v109q46 -23 90 -23q38 0 61.5 15t23.5 44q0 21 -22 48t-49 49.5t-49 52.5t-22 58q0 36 36 85.5t36 89.5q0 33 -20.5 50t-54.5 17q-39 0 -61.5 -21.5t-22.5 -60.5v-523h-139v490q0 107 58 165t165 59q102 1 154.5 -47
t52.5 -106q0 -37 -19.5 -71t-39 -61t-19.5 -46q0 -21 24.5 -47.5t54 -50t54 -62t24.5 -80.5z" />
    <glyph glyph-name="agrave" unicode="&#xe0;" horiz-adv-x="555" 
d="M488 124q0 -32 34 -32q14 0 26 4v-91q-38 -14 -77 -14q-76 0 -106 54q-75 -59 -173 -59q-71 0 -119.5 39.5t-48.5 107.5q0 57 34 95t79 51.5t98 13.5q59 0 114 -13v17q0 37 -29 59t-84 22q-80 0 -170 -36v120q96 32 186 32q236 0 236 -217v-153zM267 210q-43 0 -72 -16
t-29 -50q0 -26 21.5 -42.5t53.5 -16.5q63 0 108 39v75q-46 11 -82 11zM340 551h-134l-108 148h152z" />
    <glyph glyph-name="aacute" unicode="&#xe1;" horiz-adv-x="555" 
d="M488 124q0 -32 34 -32q14 0 26 4v-91q-38 -14 -77 -14q-76 0 -106 54q-75 -59 -173 -59q-71 0 -119.5 39.5t-48.5 107.5q0 57 34 95t79 51.5t98 13.5q59 0 114 -13v17q0 37 -29 59t-84 22q-80 0 -170 -36v120q96 32 186 32q236 0 236 -217v-153zM267 210q-43 0 -72 -16
t-29 -50q0 -26 21.5 -42.5t53.5 -16.5q63 0 108 39v75q-46 11 -82 11zM299 551h-134l90 148h152z" />
    <glyph glyph-name="acircumflex" unicode="&#xe2;" horiz-adv-x="555" 
d="M488 124q0 -32 34 -32q14 0 26 4v-91q-38 -14 -77 -14q-76 0 -106 54q-75 -59 -173 -59q-71 0 -119.5 39.5t-48.5 107.5q0 57 34 95t79 51.5t98 13.5q59 0 114 -13v17q0 37 -29 59t-84 22q-80 0 -170 -36v120q96 32 186 32q236 0 236 -217v-153zM267 210q-43 0 -72 -16
t-29 -50q0 -26 21.5 -42.5t53.5 -16.5q63 0 108 39v75q-46 11 -82 11zM192 699h123l124 -155h-132l-53 65l-53 -65h-133z" />
    <glyph glyph-name="atilde" unicode="&#xe3;" horiz-adv-x="555" 
d="M488 124q0 -32 34 -32q14 0 26 4v-91q-38 -14 -77 -14q-76 0 -106 54q-75 -59 -173 -59q-71 0 -119.5 39.5t-48.5 107.5q0 57 34 95t79 51.5t98 13.5q59 0 114 -13v17q0 37 -29 59t-84 22q-80 0 -170 -36v120q96 32 186 32q236 0 236 -217v-153zM267 210q-43 0 -72 -16
t-29 -50q0 -26 21.5 -42.5t53.5 -16.5q63 0 108 39v75q-46 11 -82 11zM431 672q14 -60 -14 -99.5t-80 -39.5q-37 0 -84 21t-58 21q-16 0 -21.5 -11.5t-1.5 -24.5h-100q-14 60 14 99.5t79 39.5q37 0 84 -21t59 -21q16 0 21.5 11.5t1.5 24.5h100z" />
    <glyph glyph-name="adieresis" unicode="&#xe4;" horiz-adv-x="555" 
d="M488 124q0 -32 34 -32q14 0 26 4v-91q-38 -14 -77 -14q-76 0 -106 54q-75 -59 -173 -59q-71 0 -119.5 39.5t-48.5 107.5q0 57 34 95t79 51.5t98 13.5q59 0 114 -13v17q0 37 -29 59t-84 22q-80 0 -170 -36v120q96 32 186 32q236 0 236 -217v-153zM267 210q-43 0 -72 -16
t-29 -50q0 -26 21.5 -42.5t53.5 -16.5q63 0 108 39v75q-46 11 -82 11zM434 620q0 -31 -21.5 -52.5t-52.5 -21.5t-53 21.5t-22 52.5t22 53t53 22t52.5 -22t21.5 -53zM220 620q0 -31 -21.5 -52.5t-52.5 -21.5t-53 21.5t-22 52.5t22 53t53 22t52.5 -22t21.5 -53z" />
    <glyph glyph-name="aring" unicode="&#xe5;" horiz-adv-x="555" 
d="M488 124q0 -32 34 -32q14 0 26 4v-91q-38 -14 -77 -14q-76 0 -106 54q-75 -59 -173 -59q-71 0 -119.5 39.5t-48.5 107.5q0 57 34 95t79 51.5t98 13.5q59 0 114 -13v17q0 37 -29 59t-84 22q-80 0 -170 -36v120q96 32 186 32q236 0 236 -217v-153zM267 210q-43 0 -72 -16
t-29 -50q0 -26 21.5 -42.5t53.5 -16.5q63 0 108 39v75q-46 11 -82 11zM377 643q0 -56 -36 -88.5t-89 -32.5q-52 0 -88.5 32.5t-36.5 88.5q0 54 36.5 86t88.5 32t88.5 -32t36.5 -86zM211 642q0 -19 12 -31t30 -12t30 12t12 31t-12 30.5t-30 11.5t-30 -11.5t-12 -30.5z" />
    <glyph glyph-name="ae" unicode="&#xe6;" horiz-adv-x="868" 
d="M431 63q-98 -77 -231 -77q-75 0 -125.5 39t-50.5 108q0 45 18.5 77.5t51.5 50t70.5 25t81.5 7.5q67 0 118 -13v16q0 81 -126 81q-84 0 -172 -37v122q96 32 187 32q133 0 184 -74q68 74 172 74q91 0 148.5 -46.5t74 -113.5t-0.5 -141h-338q11 -48 58 -72.5t111 -24.5
q80 0 144 29v-108q-73 -31 -176 -31q-130 0 -199 77zM167 144q0 -29 21.5 -43.5t55.5 -14.5q78 0 142 50q-11 29 -14 66q-59 9 -93 9q-48 0 -80 -16t-32 -51zM605 387q-47 0 -79.5 -28t-33.5 -77h214q5 35 -19 70t-82 35z" />
    <glyph glyph-name="ccedilla" unicode="&#xe7;" horiz-adv-x="490" 
d="M456 141v-123q-53 -22 -108 -28l-10 -38q93 -9 93 -87q1 -49 -42 -74t-102 -25t-102 19v86q34 -20 80 -20q62 0 62 30q0 18 -27.5 24.5t-68.5 1.5l20 82q-94 12 -156.5 74t-62.5 170q0 66 23.5 118t62.5 82.5t86 46t99 15.5q83 0 148 -35v-122q-56 36 -128 36
q-63 0 -106 -33t-43 -101q0 -65 43 -99.5t104 -34.5q77 0 135 35z" />
    <glyph glyph-name="egrave" unicode="&#xe8;" horiz-adv-x="547" 
d="M32 240q0 65 23 115.5t60.5 79.5t79 44t84.5 15q72 0 124.5 -27t77.5 -69.5t34.5 -96t-5.5 -106.5h-338q11 -50 58 -74.5t111 -24.5q79 0 145 29v-109q-71 -30 -176 -30q-120 0 -199 67t-79 187zM385 285q5 33 -19 68t-82 35q-46 0 -79 -27.5t-34 -75.5h214zM367 544
h-134l-108 148h152z" />
    <glyph glyph-name="eacute" unicode="&#xe9;" horiz-adv-x="547" 
d="M32 240q0 65 23 115.5t60.5 79.5t79 44t84.5 15q72 0 124.5 -27t77.5 -69.5t34.5 -96t-5.5 -106.5h-338q11 -50 58 -74.5t111 -24.5q79 0 145 29v-109q-71 -30 -176 -30q-120 0 -199 67t-79 187zM385 285q5 33 -19 68t-82 35q-46 0 -79 -27.5t-34 -75.5h214zM326 544
h-134l90 148h152z" />
    <glyph glyph-name="ecircumflex" unicode="&#xea;" horiz-adv-x="547" 
d="M32 240q0 65 23 115.5t60.5 79.5t79 44t84.5 15q72 0 124.5 -27t77.5 -69.5t34.5 -96t-5.5 -106.5h-338q11 -50 58 -74.5t111 -24.5q79 0 145 29v-109q-71 -30 -176 -30q-120 0 -199 67t-79 187zM385 285q5 33 -19 68t-82 35q-46 0 -79 -27.5t-34 -75.5h214zM219 692h123
l124 -155h-132l-53 65l-53 -65h-133z" />
    <glyph glyph-name="edieresis" unicode="&#xeb;" horiz-adv-x="547" 
d="M32 240q0 65 23 115.5t60.5 79.5t79 44t84.5 15q72 0 124.5 -27t77.5 -69.5t34.5 -96t-5.5 -106.5h-338q11 -50 58 -74.5t111 -24.5q79 0 145 29v-109q-71 -30 -176 -30q-120 0 -199 67t-79 187zM385 285q5 33 -19 68t-82 35q-46 0 -79 -27.5t-34 -75.5h214zM461 613
q0 -31 -21.5 -52.5t-52.5 -21.5t-53 21.5t-22 52.5t22 53t53 22t52.5 -22t21.5 -53zM247 613q0 -31 -21.5 -52.5t-52.5 -21.5t-53 21.5t-22 52.5t22 53t53 22t52.5 -22t21.5 -53z" />
    <glyph glyph-name="igrave" unicode="&#xec;" horiz-adv-x="259" 
d="M199 0h-139v480h139v-480zM211 544h-131l-81 148h148z" />
    <glyph glyph-name="iacute" unicode="&#xed;" horiz-adv-x="259" 
d="M60 480h139v-480h-139v480zM176 544h-134l90 148h152z" />
    <glyph glyph-name="icircumflex" unicode="&#xee;" horiz-adv-x="259" 
d="M69 689h123l103 -152h-125l-39 61l-40 -61h-124zM60 480h139v-480h-139v480z" />
    <glyph glyph-name="idieresis" unicode="&#xef;" horiz-adv-x="259" 
d="M293 613q0 -29 -20.5 -49t-48.5 -20q-29 0 -49.5 20t-20.5 49t20.5 49.5t49.5 20.5q28 0 48.5 -20.5t20.5 -49.5zM106 613q0 -28 -20.5 -48.5t-49.5 -20.5q-28 0 -48.5 20t-20.5 49t20.5 49.5t48.5 20.5t49 -20.5t21 -49.5zM60 480h139v-480h-139v480z" />
    <glyph glyph-name="eth" unicode="&#xf0;" horiz-adv-x="585" 
d="M546 277q0 -149 -70.5 -220t-186.5 -71q-112 0 -184 61t-72 170q0 100 60 160.5t149 60.5q54 0 98.5 -20t66.5 -54q0 8 -2 26q-19 109 -114 166l-80 -80l-64 64l55 54q-49 11 -101 11v105q98 0 185 -31l75 75l64 -64l-54 -54q175 -115 175 -359zM175 217
q0 -46 28.5 -79.5t85.5 -33.5q56 0 83 31.5t30 76.5q0 46 -30 81t-86 35q-54 0 -82.5 -33t-28.5 -78z" />
    <glyph glyph-name="ntilde" unicode="&#xf1;" 
d="M182 419q65 75 160 75q92 0 143.5 -55.5t51.5 -141.5v-297h-139v279q0 47 -25.5 71t-67.5 24q-65 0 -107 -61v-313h-139v480h123v-61zM468 665q14 -60 -14 -99.5t-80 -39.5q-37 0 -84 21t-58 21q-16 0 -21.5 -11.5t-1.5 -24.5h-100q-14 60 14 99.5t79 39.5q37 0 84 -21
t59 -21q16 0 21.5 11.5t1.5 24.5h100z" />
    <glyph glyph-name="ograve" unicode="&#xf2;" horiz-adv-x="594" 
d="M32 240q0 120 77 187t188 67q112 0 188.5 -67t76.5 -187t-76.5 -187t-188.5 -67q-111 0 -188 67t-77 187zM421 240q0 57 -33 93.5t-91 36.5t-90.5 -36.5t-32.5 -93.5t32.5 -93.5t90.5 -36.5t91 36.5t33 93.5zM385 538h-134l-108 148h152z" />
    <glyph glyph-name="oacute" unicode="&#xf3;" horiz-adv-x="594" 
d="M32 240q0 120 77 187t188 67q112 0 188.5 -67t76.5 -187t-76.5 -187t-188.5 -67q-111 0 -188 67t-77 187zM421 240q0 57 -33 93.5t-91 36.5t-90.5 -36.5t-32.5 -93.5t32.5 -93.5t90.5 -36.5t91 36.5t33 93.5zM344 538h-134l90 148h152z" />
    <glyph glyph-name="ocircumflex" unicode="&#xf4;" horiz-adv-x="594" 
d="M32 240q0 120 77 187t188 67q112 0 188.5 -67t76.5 -187t-76.5 -187t-188.5 -67q-111 0 -188 67t-77 187zM421 240q0 57 -33 93.5t-91 36.5t-90.5 -36.5t-32.5 -93.5t32.5 -93.5t90.5 -36.5t91 36.5t33 93.5zM237 686h123l124 -155h-132l-53 65l-53 -65h-133z" />
    <glyph glyph-name="otilde" unicode="&#xf5;" horiz-adv-x="594" 
d="M32 240q0 120 77 187t188 67q112 0 188.5 -67t76.5 -187t-76.5 -187t-188.5 -67q-111 0 -188 67t-77 187zM421 240q0 57 -33 93.5t-91 36.5t-90.5 -36.5t-32.5 -93.5t32.5 -93.5t90.5 -36.5t91 36.5t33 93.5zM476 659q14 -60 -14 -99.5t-80 -39.5q-37 0 -84 21t-58 21
q-16 0 -21.5 -11.5t-1.5 -24.5h-100q-14 60 14 99.5t79 39.5q37 0 84 -21t59 -21q16 0 21.5 11.5t1.5 24.5h100z" />
    <glyph glyph-name="odieresis" unicode="&#xf6;" horiz-adv-x="594" 
d="M32 240q0 120 77 187t188 67q112 0 188.5 -67t76.5 -187t-76.5 -187t-188.5 -67q-111 0 -188 67t-77 187zM421 240q0 57 -33 93.5t-91 36.5t-90.5 -36.5t-32.5 -93.5t32.5 -93.5t90.5 -36.5t91 36.5t33 93.5zM479 607q0 -31 -21.5 -52.5t-52.5 -21.5t-53 21.5t-22 52.5
t22 53t53 22t52.5 -22t21.5 -53zM265 607q0 -31 -21.5 -52.5t-52.5 -21.5t-53 21.5t-22 52.5t22 53t53 22t52.5 -22t21.5 -53z" />
    <glyph glyph-name="divide" unicode="&#xf7;" horiz-adv-x="558" 
d="M519 291h-480v118h480v-118zM364 127q0 -41 -24 -62t-60 -21t-60.5 21t-24.5 62q0 40 24.5 60.5t60.5 20.5t60 -20.5t24 -60.5zM364 574q0 -41 -24 -62t-60 -21t-60.5 21t-24.5 62q0 40 24.5 60.5t60.5 20.5t60 -20.5t24 -60.5z" />
    <glyph glyph-name="oslash" unicode="&#xf8;" horiz-adv-x="594" 
d="M520 543l-61 -96q103 -68 103 -207q0 -120 -76.5 -187t-188.5 -67q-63 0 -118 23l-46 -71h-60l61 96q-102 69 -102 206q0 120 77 187t188 67q64 0 117 -22l46 71h60zM297 370q-58 0 -90.5 -36.5t-32.5 -93.5q0 -58 32 -93l139 215q-24 8 -48 8zM248 118q24 -8 49 -8
q58 0 91 36.5t33 93.5q0 58 -34 94z" />
    <glyph glyph-name="ugrave" unicode="&#xf9;" 
d="M392 480h139v-480h-123v61q-65 -75 -160 -75q-94 0 -144.5 55t-50.5 142v297h139v-279q0 -47 24 -71t68 -24q64 0 108 61v313zM381 544h-134l-108 148h152z" />
    <glyph glyph-name="uacute" unicode="&#xfa;" 
d="M392 480h139v-480h-123v61q-65 -75 -160 -75q-94 0 -144.5 55t-50.5 142v297h139v-279q0 -47 24 -71t68 -24q64 0 108 61v313zM340 544h-134l90 148h152z" />
    <glyph glyph-name="ucircumflex" unicode="&#xfb;" 
d="M392 480h139v-480h-123v61q-65 -75 -160 -75q-94 0 -144.5 55t-50.5 142v297h139v-279q0 -47 24 -71t68 -24q64 0 108 61v313zM233 692h123l124 -155h-132l-53 65l-53 -65h-133z" />
    <glyph glyph-name="udieresis" unicode="&#xfc;" 
d="M392 480h139v-480h-123v61q-65 -75 -160 -75q-94 0 -144.5 55t-50.5 142v297h139v-279q0 -47 24 -71t68 -24q64 0 108 61v313zM475 613q0 -31 -21.5 -52.5t-52.5 -21.5t-53 21.5t-22 52.5t22 53t53 22t52.5 -22t21.5 -53zM261 613q0 -31 -21.5 -52.5t-52.5 -21.5
t-53 21.5t-22 52.5t22 53t53 22t52.5 -22t21.5 -53z" />
    <glyph glyph-name="yacute" unicode="&#xfd;" horiz-adv-x="563" 
d="M290 156l119 324h144l-213 -538q-71 -175 -207 -175q-29 0 -75 11v115q33 -7 57 -7q76 0 114 105l1 2l-227 487h147zM319 544h-134l90 148h152z" />
    <glyph glyph-name="thorn" unicode="&#xfe;" horiz-adv-x="622" 
d="M59 700h139v-278q63 72 161 72q108 0 169.5 -75.5t61.5 -178.5q0 -105 -63 -179.5t-168 -74.5q-99 0 -161 68v-274h-139v920zM448 240q0 58 -34 97.5t-91 39.5q-44 0 -77.5 -23.5t-48.5 -59.5v-107q17 -35 50.5 -57.5t75.5 -23.5q56 -1 90.5 37.5t34.5 96.5z" />
    <glyph glyph-name="ydieresis" unicode="&#xff;" horiz-adv-x="563" 
d="M290 156l119 324h144l-213 -538q-71 -175 -207 -175q-29 0 -75 11v115q33 -7 57 -7q76 0 114 105l1 2l-227 487h147zM454 613q0 -31 -21.5 -52.5t-52.5 -21.5t-53 21.5t-22 52.5t22 53t53 22t52.5 -22t21.5 -53zM240 613q0 -31 -21.5 -52.5t-52.5 -21.5t-53 21.5
t-22 52.5t22 53t53 22t52.5 -22t21.5 -53z" />
    <glyph glyph-name="Amacron" unicode="&#x100;" horiz-adv-x="739" 
d="M158 0h-155l286 700h162l285 -700h-155l-51 131h-320zM354 506l-97 -251h226l-98 251q-10 28 -15 55q-6 -31 -16 -55zM206 877h326v-110h-326v110z" />
    <glyph glyph-name="amacron" unicode="&#x101;" horiz-adv-x="555" 
d="M488 124q0 -32 34 -32q14 0 26 4v-91q-38 -14 -77 -14q-76 0 -106 54q-75 -59 -173 -59q-71 0 -119.5 39.5t-48.5 107.5q0 57 34 95t79 51.5t98 13.5q59 0 114 -13v17q0 37 -29 59t-84 22q-80 0 -170 -36v120q96 32 186 32q236 0 236 -217v-153zM267 210q-43 0 -72 -16
t-29 -50q0 -26 21.5 -42.5t53.5 -16.5q63 0 108 39v75q-46 11 -82 11zM90 664h326v-110h-326v110z" />
    <glyph glyph-name="Abreve" unicode="&#x102;" horiz-adv-x="739" 
d="M158 0h-155l286 700h162l285 -700h-155l-51 131h-320zM354 506l-97 -251h226l-98 251q-10 28 -15 55q-6 -31 -16 -55zM526 794q-64 -45 -157 -45q-92 0 -156 45v109q69 -43 156 -43q88 0 157 43v-109z" />
    <glyph glyph-name="abreve" unicode="&#x103;" horiz-adv-x="555" 
d="M488 124q0 -32 34 -32q14 0 26 4v-91q-38 -14 -77 -14q-76 0 -106 54q-75 -59 -173 -59q-71 0 -119.5 39.5t-48.5 107.5q0 57 34 95t79 51.5t98 13.5q59 0 114 -13v17q0 37 -29 59t-84 22q-80 0 -170 -36v120q96 32 186 32q236 0 236 -217v-153zM267 210q-43 0 -72 -16
t-29 -50q0 -26 21.5 -42.5t53.5 -16.5q63 0 108 39v75q-46 11 -82 11zM410 581q-64 -45 -157 -45q-92 0 -156 45v109q69 -43 156 -43q88 0 157 43v-109z" />
    <glyph glyph-name="Aogonek" unicode="&#x104;" horiz-adv-x="739" 
d="M664 -97q-1 -16 9 -24.5t26 -8.5q21 0 41 13v-94q-36 -23 -87 -23q-54 0 -84 28.5t-29 71.5q0 71 75 134h-34l-51 131h-320l-52 -131h-155l286 700h162l285 -700q-36 -24 -54.5 -50t-17.5 -47zM354 506l-97 -251h226l-98 251q-10 28 -15 55q-8 -37 -16 -55z" />
    <glyph glyph-name="aogonek" unicode="&#x105;" horiz-adv-x="556" 
d="M241 85q63 0 108 39v75q-46 11 -82 11q-43 0 -72 -16t-29 -50q0 -26 21.5 -42.5t53.5 -16.5zM547 -116v-94q-35 -19 -82 -19q-54 -1 -84 28t-29 72q0 71 69 128q-38 13 -56 46q-75 -59 -173 -59q-71 0 -119.5 39.5t-48.5 107.5q0 57 34 95t79 51.5t98 13.5q59 0 114 -13
v17q0 37 -29 59t-84 22q-80 0 -170 -36v120q96 32 186 32q236 0 236 -217v-153q0 -32 34 -32q14 0 26 4v-91q-36 -24 -54.5 -50.5t-17.5 -47.5q-1 -16 8.5 -24t26.5 -8q19 0 36 9z" />
    <glyph glyph-name="Cacute" unicode="&#x106;" horiz-adv-x="654" 
d="M36 342q0 92 32.5 165.5t86 117.5t119.5 66.5t138 22.5q110 0 200 -45v-143q-71 55 -175 55q-102 0 -174.5 -60.5t-72.5 -178.5q0 -56 21 -99.5t56.5 -69.5t79 -39.5t90.5 -13.5q116 0 180 58v-147q-93 -45 -203 -45q-72 0 -138 22t-120.5 64t-87 112t-32.5 158zM450 764
h-134l90 148h152z" />
    <glyph glyph-name="cacute" unicode="&#x107;" horiz-adv-x="490" 
d="M32 233q0 66 23.5 118t62.5 82.5t86 46t99 15.5q83 0 148 -35v-122q-56 36 -128 36q-63 0 -106 -33t-43 -101q0 -65 43 -99.5t104 -34.5q77 0 135 35v-123q-75 -32 -162 -32q-108 0 -185 63.5t-77 183.5zM341 544h-134l90 148h152z" />
    <glyph glyph-name="Cdotaccent" unicode="&#x10a;" horiz-adv-x="654" 
d="M36 342q0 92 32.5 165.5t86 117.5t119.5 66.5t138 22.5q110 0 200 -45v-143q-71 55 -175 55q-102 0 -174.5 -60.5t-72.5 -178.5q0 -56 21 -99.5t56.5 -69.5t79 -39.5t90.5 -13.5q116 0 180 58v-147q-93 -45 -203 -45q-72 0 -138 22t-120.5 64t-87 112t-32.5 158zM322 834
q0 38 23 58.5t58 20.5t58.5 -20.5t23.5 -58.5q0 -39 -23 -59t-59 -20q-35 0 -58 20t-23 59z" />
    <glyph glyph-name="cdotaccent" unicode="&#x10b;" horiz-adv-x="490" 
d="M32 233q0 66 23.5 118t62.5 82.5t86 46t99 15.5q83 0 148 -35v-122q-56 36 -128 36q-63 0 -106 -33t-43 -101q0 -65 43 -99.5t104 -34.5q77 0 135 35v-123q-75 -32 -162 -32q-108 0 -185 63.5t-77 183.5zM213 614q0 38 23 58.5t58 20.5t58.5 -20.5t23.5 -58.5
q0 -39 -23 -59t-59 -20q-35 0 -58 20t-23 59z" />
    <glyph glyph-name="Ccaron" unicode="&#x10c;" horiz-adv-x="654" 
d="M36 342q0 92 32.5 165.5t86 117.5t119.5 66.5t138 22.5q110 0 200 -45v-143q-71 55 -175 55q-102 0 -174.5 -60.5t-72.5 -178.5q0 -56 21 -99.5t56.5 -69.5t79 -39.5t90.5 -13.5q116 0 180 58v-147q-93 -45 -203 -45q-72 0 -138 22t-120.5 64t-87 112t-32.5 158zM597 915
l-130 -155h-123l-131 155h133l59 -71l60 71h132z" />
    <glyph glyph-name="ccaron" unicode="&#x10d;" horiz-adv-x="490" 
d="M32 233q0 66 23.5 118t62.5 82.5t86 46t99 15.5q83 0 148 -35v-122q-56 36 -128 36q-63 0 -106 -33t-43 -101q0 -65 43 -99.5t104 -34.5q77 0 135 35v-123q-75 -32 -162 -32q-108 0 -185 63.5t-77 183.5zM488 695l-130 -155h-123l-131 155h133l59 -71l60 71h132z" />
    <glyph glyph-name="Dcaron" unicode="&#x10e;" horiz-adv-x="742" 
d="M75 700h262q180 0 273.5 -95.5t93.5 -254.5t-93.5 -254.5t-273.5 -95.5h-262v700zM551 350q0 108 -54.5 163t-159.5 55h-112v-436h112q105 0 159.5 55t54.5 163zM536 915l-130 -155h-123l-131 155h133l59 -71l60 71h132z" />
    <glyph glyph-name="dcaron" unicode="&#x10f;" horiz-adv-x="621" 
d="M625 700h119l-32 -202h-103zM425 700h138v-700h-122v70q-61 -84 -174 -84q-109 0 -172 74.5t-63 179.5t63 179.5t172 74.5q99 0 158 -65v271zM425 297q-15 34 -48.5 57t-76.5 23q-58 0 -92 -39.5t-34 -97.5t34 -97.5t92 -39.5q43 0 76.5 23t48.5 57v114z" />
    <glyph glyph-name="Dcroat" unicode="&#x110;" horiz-adv-x="752" 
d="M86 700h262q180 0 273.5 -95.5t93.5 -254.5t-93.5 -254.5t-273.5 -95.5h-262v294h-74v111h74v295zM236 132h112q105 0 159.5 55t54.5 163t-54.5 163t-159.5 55h-112v-163h155v-111h-155v-162z" />
    <glyph glyph-name="dcroat" unicode="&#x111;" horiz-adv-x="621" 
d="M563 636h62v-86h-62v-550h-122v70q-61 -84 -174 -84q-109 0 -172 74.5t-63 179.5t63 179.5t172 74.5q99 0 158 -65v121h-139v86h139v64h138v-64zM300 103q43 0 76.5 23t48.5 57v114q-15 34 -48.5 57t-76.5 23q-58 0 -92 -39.5t-34 -97.5t34 -97.5t92 -39.5z" />
    <glyph glyph-name="Emacron" unicode="&#x112;" horiz-adv-x="618" 
d="M75 700h493v-132h-343v-149h313v-131h-313v-156h349v-132h-499v700zM168 877h326v-110h-326v110z" />
    <glyph glyph-name="emacron" unicode="&#x113;" horiz-adv-x="547" 
d="M32 240q0 65 23 115.5t60.5 79.5t79 44t84.5 15q72 0 124.5 -27t77.5 -69.5t34.5 -96t-5.5 -106.5h-338q11 -50 58 -74.5t111 -24.5q79 0 145 29v-109q-71 -30 -176 -30q-120 0 -199 67t-79 187zM385 285q5 33 -19 68t-82 35q-46 0 -79 -27.5t-34 -75.5h214zM117 657h326
v-110h-326v110z" />
    <glyph glyph-name="Edotaccent" unicode="&#x116;" horiz-adv-x="618" 
d="M75 700h493v-132h-343v-149h313v-131h-313v-156h349v-132h-499v700zM249 834q0 38 23 58.5t58 20.5t58.5 -20.5t23.5 -58.5q0 -39 -23 -59t-59 -20q-35 0 -58 20t-23 59z" />
    <glyph glyph-name="edotaccent" unicode="&#x117;" horiz-adv-x="547" 
d="M32 240q0 65 23 115.5t60.5 79.5t79 44t84.5 15q72 0 124.5 -27t77.5 -69.5t34.5 -96t-5.5 -106.5h-338q11 -50 58 -74.5t111 -24.5q79 0 145 29v-109q-71 -30 -176 -30q-120 0 -199 67t-79 187zM385 285q5 33 -19 68t-82 35q-46 0 -79 -27.5t-34 -75.5h214zM198 614
q0 38 23 58.5t58 20.5t58.5 -20.5t23.5 -58.5q0 -39 -23 -59t-59 -20q-35 0 -58 20t-23 59z" />
    <glyph glyph-name="Eogonek" unicode="&#x118;" horiz-adv-x="618" 
d="M574 132v-132q-36 -24 -56.5 -51t-19.5 -47q-1 -16 8.5 -24t26.5 -8q23 0 41 12v-94q-37 -22 -87 -22q-54 -1 -84 28t-29 72q0 33 21.5 69t59.5 65h-380v700h493v-132h-343v-149h313v-131h-313v-156h349z" />
    <glyph glyph-name="eogonek" unicode="&#x119;" horiz-adv-x="547" 
d="M473 -211q-36 -23 -87 -23q-54 0 -84 28.5t-29 71.5q0 67 68 121q-10 -1 -31 -1q-120 0 -199 67t-79 187q0 65 23 115.5t60.5 79.5t79 44t84.5 15q72 0 124.5 -27t77.5 -69.5t34.5 -96t-5.5 -106.5h-338q11 -50 58 -74.5t111 -24.5q79 0 145 29v-109q-89 -65 -89 -113
q0 -33 35 -33q22 0 41 13v-94zM284 388q-46 0 -79 -27.5t-34 -75.5h214q5 33 -19 68t-82 35z" />
    <glyph glyph-name="Ecaron" unicode="&#x11a;" horiz-adv-x="618" 
d="M75 700h493v-132h-343v-149h313v-131h-313v-156h349v-132h-499v700zM524 915l-130 -155h-123l-131 155h133l59 -71l60 71h132z" />
    <glyph glyph-name="ecaron" unicode="&#x11b;" horiz-adv-x="547" 
d="M32 240q0 65 23 115.5t60.5 79.5t79 44t84.5 15q72 0 124.5 -27t77.5 -69.5t34.5 -96t-5.5 -106.5h-338q11 -50 58 -74.5t111 -24.5q79 0 145 29v-109q-71 -30 -176 -30q-120 0 -199 67t-79 187zM385 285q5 33 -19 68t-82 35q-46 0 -79 -27.5t-34 -75.5h214zM473 695
l-130 -155h-123l-131 155h133l59 -71l60 71h132z" />
    <glyph glyph-name="Gbreve" unicode="&#x11e;" horiz-adv-x="702" 
d="M37 350q0 92 32 163.5t86.5 114.5t121.5 64.5t141 21.5q114 0 215 -45v-143q-82 54 -195 54q-104 0 -176 -57.5t-72 -172.5q0 -66 22.5 -114t59.5 -72.5t76 -35.5t82 -11t77 13v250h143v-347q-110 -47 -228 -47q-60 0 -115.5 13t-105 41.5t-85.5 70t-57.5 103
t-21.5 136.5zM554 794q-64 -45 -157 -45q-92 0 -156 45v109q69 -43 156 -43q88 0 157 43v-109z" />
    <glyph glyph-name="gbreve" unicode="&#x11f;" horiz-adv-x="622" 
d="M32 240q0 105 63 179.5t172 74.5q113 0 174 -84v70h122v-467q0 -66 -23 -115.5t-62.5 -77t-87.5 -41t-103 -13.5q-110 0 -203 45v122q84 -50 185 -50q156 0 156 124v44q-59 -65 -158 -65q-109 0 -172 74.5t-63 179.5zM425 297q-15 34 -48.5 57t-76.5 23q-58 0 -92 -39.5
t-34 -97.5t34 -97.5t92 -39.5q43 0 76.5 22t48.5 55v117zM439 574q-64 -45 -157 -45q-92 0 -156 45v109q69 -43 156 -43q88 0 157 43v-109z" />
    <glyph glyph-name="Gdotaccent" unicode="&#x120;" horiz-adv-x="702" 
d="M37 350q0 92 32 163.5t86.5 114.5t121.5 64.5t141 21.5q114 0 215 -45v-143q-82 54 -195 54q-104 0 -176 -57.5t-72 -172.5q0 -66 22.5 -114t59.5 -72.5t76 -35.5t82 -11t77 13v250h143v-347q-110 -47 -228 -47q-60 0 -115.5 13t-105 41.5t-85.5 70t-57.5 103
t-21.5 136.5zM315 834q0 38 23 58.5t58 20.5t58.5 -20.5t23.5 -58.5q0 -39 -23 -59t-59 -20q-35 0 -58 20t-23 59z" />
    <glyph glyph-name="gdotaccent" unicode="&#x121;" horiz-adv-x="622" 
d="M32 240q0 105 63 179.5t172 74.5q113 0 174 -84v70h122v-467q0 -66 -23 -115.5t-62.5 -77t-87.5 -41t-103 -13.5q-110 0 -203 45v122q84 -50 185 -50q156 0 156 124v44q-59 -65 -158 -65q-109 0 -172 74.5t-63 179.5zM425 297q-15 34 -48.5 57t-76.5 23q-58 0 -92 -39.5
t-34 -97.5t34 -97.5t92 -39.5q43 0 76.5 22t48.5 55v117zM200 614q0 38 23 58.5t58 20.5t58.5 -20.5t23.5 -58.5q0 -39 -23 -59t-59 -20q-35 0 -58 20t-23 59z" />
    <glyph glyph-name="Gcommaaccent" unicode="&#x122;" horiz-adv-x="702" 
d="M37 350q0 92 32 163.5t86.5 114.5t121.5 64.5t141 21.5q114 0 215 -45v-143q-82 54 -195 54q-104 0 -176 -57.5t-72 -172.5q0 -66 22.5 -114t59.5 -72.5t76 -35.5t82 -11t77 13v250h143v-347q-110 -47 -228 -47q-60 0 -115.5 13t-105 41.5t-85.5 70t-57.5 103
t-21.5 136.5zM436 -251h-115l33 188h132z" />
    <glyph glyph-name="gcommaaccent" unicode="&#x123;" horiz-adv-x="622" 
d="M354 540h-119l47 194h103zM32 240q0 105 63 179.5t172 74.5q113 0 174 -84v70h122v-467q0 -66 -23 -115.5t-62.5 -77t-87.5 -41t-103 -13.5q-110 0 -203 45v122q84 -50 185 -50q156 0 156 124v44q-59 -65 -158 -65q-109 0 -172 74.5t-63 179.5zM425 297q-15 34 -48.5 57
t-76.5 23q-58 0 -92 -39.5t-34 -97.5t34 -97.5t92 -39.5q43 0 76.5 22t48.5 55v117z" />
    <glyph glyph-name="Hbar" unicode="&#x126;" horiz-adv-x="778" 
d="M232 0h-150v497h-68v96h68v107h150v-107h314v107h150v-107h68v-96h-68v-497h-150v289h-314v-289zM232 497v-86h314v86h-314z" />
    <glyph glyph-name="hbar" unicode="&#x127;" horiz-adv-x="588" 
d="M196 435q61 59 144 59q92 0 143.5 -55.5t51.5 -141.5v-297h-138v279q0 47 -25.5 71t-67.5 24q-64 0 -108 -61v-313h-138v546h-53v86h53v68h138v-68h141v-86h-141v-111z" />
    <glyph glyph-name="Imacron" unicode="&#x12a;" horiz-adv-x="300" 
d="M75 700h150v-700h-150v700zM-12 877h326v-110h-326v110z" />
    <glyph glyph-name="imacron" unicode="&#x12b;" horiz-adv-x="259" 
d="M6 661h246v-97h-246v97zM60 480h139v-480h-139v480z" />
    <glyph glyph-name="Iogonek" unicode="&#x12e;" horiz-adv-x="300" 
d="M165 -98q-1 -16 8.5 -24t26.5 -8q23 0 41 12v-94q-37 -22 -87 -22q-54 -1 -84 28t-29 72q0 66 66 134h-32v700h150v-700h1q-63 -55 -61 -98z" />
    <glyph glyph-name="iogonek" unicode="&#x12f;" horiz-adv-x="260" 
d="M213 639q0 -39 -23 -59t-58 -20t-58.5 20t-23.5 59q0 38 23.5 58t58.5 20t58 -20t23 -58zM145 -98q0 -32 35 -32q23 0 41 12v-94q-37 -22 -87 -22q-54 -1 -83.5 27.5t-29.5 72.5q0 67 62 134h-22v480h139v-480q-55 -55 -55 -98z" />
    <glyph glyph-name="Idotaccent" unicode="&#x130;" horiz-adv-x="300" 
d="M75 700h150v-700h-150v700zM69 834q0 38 23 58.5t58 20.5t58.5 -20.5t23.5 -58.5q0 -39 -23 -59t-59 -20q-35 0 -58 20t-23 59z" />
    <glyph glyph-name="dotlessi" unicode="&#x131;" horiz-adv-x="261" 
d="M61 480h139v-480h-139v480z" />
    <glyph glyph-name="IJ" unicode="&#x132;" horiz-adv-x="815" 
d="M75 700h150v-700h-150v700zM409 700h336v-489q0 -116 -70 -170t-180 -54q-102 0 -181 36v140q62 -38 145 -38q136 0 136 103v337h-186v135z" />
    <glyph glyph-name="ij" unicode="&#x133;" horiz-adv-x="519" 
d="M199 0h-139v480h139v-480zM211 639q0 -39 -23 -59t-59 -20q-35 0 -58 20t-23 59q0 38 23 58t58 20t58.5 -20t23.5 -58zM459 -68q0 -87 -47.5 -126.5t-120.5 -39.5q-52 0 -86 14v119q21 -10 50 -10q66 0 66 68v523h138v-548zM471 639q0 -39 -23 -59t-58 -20t-58.5 20
t-23.5 59q0 38 23.5 58t58.5 20t58 -20t23 -58z" />
    <glyph glyph-name="Kcommaaccent" unicode="&#x136;" horiz-adv-x="691" 
d="M225 0h-150v700h150v-278h113l177 278h167l-227 -341l240 -359h-166l-191 286h-113v-286zM383 -263h-112l32 210h128z" />
    <glyph glyph-name="kcommaaccent" unicode="&#x137;" horiz-adv-x="547" 
d="M548 0h-156l-138 190h-56v-190h-139v700h139v-399h58l122 179h156l-165 -237zM309 -263h-112l32 210h128z" />
    <glyph glyph-name="Lacute" unicode="&#x139;" horiz-adv-x="581" 
d="M75 700h150v-565h343v-135h-493v700zM196 764h-134l90 148h152z" />
    <glyph glyph-name="lacute" unicode="&#x13a;" horiz-adv-x="261" 
d="M61 730h139v-730h-139v730zM184 777h-134l90 148h152z" />
    <glyph glyph-name="Lcommaaccent" unicode="&#x13b;" horiz-adv-x="581" 
d="M75 700h150v-565h343v-135h-493v700zM342 -263h-112l32 210h128z" />
    <glyph glyph-name="lcommaaccent" unicode="&#x13c;" horiz-adv-x="261" 
d="M61 730h139v-730h-139v730zM152 -263h-112l32 210h128z" />
    <glyph glyph-name="Lcaron" unicode="&#x13d;" horiz-adv-x="582" 
d="M377 700h119l-32 -202h-103zM75 700h150v-565h343v-135h-493v700z" />
    <glyph glyph-name="lcaron" unicode="&#x13e;" horiz-adv-x="260" 
d="M261 730h119l-32 -202h-103zM61 730h139v-730h-139v730z" />
    <glyph glyph-name="Ldot" unicode="&#x13f;" horiz-adv-x="588" 
d="M475 388q0 -38 -22.5 -57.5t-56.5 -19.5t-56.5 19.5t-22.5 57.5q0 37 22.5 56.5t56.5 19.5t56.5 -19.5t22.5 -56.5zM75 700h150v-565h343v-135h-493v700z" />
    <glyph glyph-name="ldot" unicode="&#x140;" horiz-adv-x="397" 
d="M61 730h139v-730h-139v730zM413 350q0 -41 -24 -61.5t-60 -20.5t-60.5 21t-24.5 61t24.5 61t60.5 21t60 -21t24 -61z" />
    <glyph glyph-name="Lslash" unicode="&#x141;" horiz-adv-x="604" 
d="M591 0h-493v247l-80 -31v122l80 31v331h150v-275l174 68v-122l-174 -68v-168h343v-135z" />
    <glyph glyph-name="lslash" unicode="&#x142;" horiz-adv-x="360" 
d="M111 730h139v-288l78 31v-109l-78 -31v-333h-139v278l-78 -31v109l78 32v342z" />
    <glyph glyph-name="Nacute" unicode="&#x143;" horiz-adv-x="764" 
d="M225 0h-150v700h141l326 -457q-3 43 -3 96v361h150v-700h-141l-326 457q3 -43 3 -96v-361zM428 764h-134l90 148h152z" />
    <glyph glyph-name="nacute" unicode="&#x144;" 
d="M182 419q65 75 160 75q92 0 143.5 -55.5t51.5 -141.5v-297h-139v279q0 47 -25.5 71t-67.5 24q-65 0 -107 -61v-313h-139v480h123v-61zM336 544h-134l90 148h152z" />
    <glyph glyph-name="Ncommaaccent" unicode="&#x145;" horiz-adv-x="764" 
d="M225 0h-150v700h141l326 -457q-3 43 -3 96v361h150v-700h-141l-326 457q3 -43 3 -96v-361zM417 -252h-112l32 210h128z" />
    <glyph glyph-name="ncommaaccent" unicode="&#x146;" 
d="M182 419q65 75 160 75q92 0 143.5 -55.5t51.5 -141.5v-297h-139v279q0 47 -25.5 71t-67.5 24q-65 0 -107 -61v-313h-139v480h123v-61zM321 -263h-112l32 210h128z" />
    <glyph glyph-name="Ncaron" unicode="&#x147;" horiz-adv-x="764" 
d="M225 0h-150v700h141l326 -457q-3 43 -3 96v361h150v-700h-141l-326 457q3 -43 3 -96v-361zM575 915l-130 -155h-123l-131 155h133l59 -71l60 71h132z" />
    <glyph glyph-name="ncaron" unicode="&#x148;" 
d="M182 419q65 75 160 75q92 0 143.5 -55.5t51.5 -141.5v-297h-139v279q0 47 -25.5 71t-67.5 24q-65 0 -107 -61v-313h-139v480h123v-61zM483 695l-130 -155h-123l-131 155h133l59 -71l60 71h132z" />
    <glyph glyph-name="Eng" unicode="&#x14a;" horiz-adv-x="764" 
d="M689 -45q0 -89 -46.5 -137.5t-125.5 -48.5q-34 0 -76 11v125q17 -5 34 -5q64 0 64 69v44l-317 444q3 -43 3 -96v-361h-150v700h141l326 -457q-3 43 -3 96v361h150v-745z" />
    <glyph glyph-name="eng" unicode="&#x14b;" 
d="M537 -75q0 -85 -48 -122t-114 -37q-45 0 -80 14v111q17 -7 39 -7q64 0 64 66v329q0 47 -25.5 71t-67.5 24q-65 0 -107 -61v-313h-139v480h123v-61q65 75 160 75q92 0 143.5 -55.5t51.5 -141.5v-372z" />
    <glyph glyph-name="Omacron" unicode="&#x14c;" horiz-adv-x="816" 
d="M36 350q0 72 23.5 137t69 116t117.5 81t162 30t162 -30t117.5 -81t69 -116t23.5 -137t-23.5 -137t-69 -116t-117.5 -81t-162 -30t-162 30t-117.5 81t-69 116t-23.5 137zM626 350q0 97 -57 161t-161 64q-105 0 -162 -64t-57 -161t57 -161t162 -64q104 0 161 64t57 161z
M245 877h326v-110h-326v110z" />
    <glyph glyph-name="omacron" unicode="&#x14d;" horiz-adv-x="594" 
d="M32 240q0 120 77 187t188 67q112 0 188.5 -67t76.5 -187t-76.5 -187t-188.5 -67q-111 0 -188 67t-77 187zM421 240q0 57 -33 93.5t-91 36.5t-90.5 -36.5t-32.5 -93.5t32.5 -93.5t90.5 -36.5t91 36.5t33 93.5zM135 651h326v-110h-326v110z" />
    <glyph glyph-name="Ohungarumlaut" unicode="&#x150;" horiz-adv-x="816" 
d="M36 350q0 72 23.5 137t69 116t117.5 81t162 30t162 -30t117.5 -81t69 -116t23.5 -137t-23.5 -137t-69 -116t-117.5 -81t-162 -30t-162 30t-117.5 81t-69 116t-23.5 137zM626 350q0 97 -57 161t-161 64q-105 0 -162 -64t-57 -161t57 -161t162 -64q104 0 161 64t57 161z
M552 774h-127l72 153h136zM371 774h-127l72 153h136z" />
    <glyph glyph-name="ohungarumlaut" unicode="&#x151;" horiz-adv-x="594" 
d="M32 240q0 120 77 187t188 67q112 0 188.5 -67t76.5 -187t-76.5 -187t-188.5 -67q-111 0 -188 67t-77 187zM421 240q0 57 -33 93.5t-91 36.5t-90.5 -36.5t-32.5 -93.5t32.5 -93.5t90.5 -36.5t91 36.5t33 93.5zM442 548h-127l72 153h136zM261 548h-127l72 153h136z" />
    <glyph glyph-name="OE" unicode="&#x152;" horiz-adv-x="1044" 
d="M529 0q-53 -14 -121 -14q-90 0 -162 30t-117.5 81t-69 116t-23.5 137t23.5 137t69 116t117.5 81t162 30q68 0 121 -14h466v-132h-319v-149h289v-131h-289v-156h325v-132h-472zM190 350q0 -102 63.5 -165.5t163.5 -63.5q55 0 112 21v417q-58 20 -112 20q-100 0 -163.5 -63
t-63.5 -166z" />
    <glyph glyph-name="oe" unicode="&#x153;" horiz-adv-x="935" 
d="M486 84q-62 -98 -201 -98q-104 0 -178.5 67t-74.5 187t74 187t178 67q65 0 118 -24.5t83 -71.5q67 96 189 96q92 0 150 -46.5t74.5 -114t-0.5 -140.5h-338q11 -48 58.5 -72.5t111.5 -24.5q79 0 143 29v-108q-72 -31 -175 -31q-144 0 -212 98zM174 240q0 -57 32.5 -93.5
t90.5 -36.5t91 36.5t33 93.5t-33 93.5t-91 36.5t-90.5 -36.5t-32.5 -93.5zM672 387q-47 0 -79.5 -28t-33.5 -77h214q5 35 -19 70t-82 35z" />
    <glyph glyph-name="Racute" unicode="&#x154;" horiz-adv-x="706" 
d="M225 0h-150v700h288q55 0 101.5 -11t88 -36t65 -71t23.5 -110q0 -159 -153 -208l209 -264h-173l-189 245h-110v-245zM225 568v-198h145q51 0 84.5 24.5t33.5 74.5q0 51 -33 75t-85 24h-145zM385 764h-134l90 148h152z" />
    <glyph glyph-name="racute" unicode="&#x155;" horiz-adv-x="391" 
d="M182 408q27 42 78 65t116 17v-135q-57 10 -106.5 -10t-71.5 -63v-282h-139v480h123v-72zM259 544h-134l90 148h152z" />
    <glyph glyph-name="Rcommaaccent" unicode="&#x156;" horiz-adv-x="706" 
d="M225 0h-150v700h288q55 0 101.5 -11t88 -36t65 -71t23.5 -110q0 -159 -153 -208l209 -264h-173l-189 245h-110v-245zM225 568v-198h145q51 0 84.5 24.5t33.5 74.5q0 51 -33 75t-85 24h-145zM381 -263h-112l32 210h128z" />
    <glyph glyph-name="rcommaaccent" unicode="&#x157;" horiz-adv-x="391" 
d="M182 408q27 42 78 65t116 17v-135q-57 10 -106.5 -10t-71.5 -63v-282h-139v480h123v-72zM147 -263h-112l32 210h128z" />
    <glyph glyph-name="Rcaron" unicode="&#x158;" horiz-adv-x="706" 
d="M225 0h-150v700h288q55 0 101.5 -11t88 -36t65 -71t23.5 -110q0 -159 -153 -208l209 -264h-173l-189 245h-110v-245zM225 568v-198h145q51 0 84.5 24.5t33.5 74.5q0 51 -33 75t-85 24h-145zM532 915l-130 -155h-123l-131 155h133l59 -71l60 71h132z" />
    <glyph glyph-name="rcaron" unicode="&#x159;" horiz-adv-x="390" 
d="M181 408q27 42 78 65t116 17v-135q-57 10 -106.5 -10t-71.5 -63v-282h-139v480h123v-72zM405 695l-130 -155h-123l-131 155h133l59 -71l60 71h132z" />
    <glyph glyph-name="Sacute" unicode="&#x15a;" horiz-adv-x="606" 
d="M44 515q0 97 73 148t183 51q132 0 227 -54v-140q-89 64 -216 62q-114 -2 -114 -65q0 -28 28.5 -49t71 -33.5t92 -32t92 -42t71 -66.5t28.5 -102q0 -57 -21.5 -98t-60.5 -64t-86 -33.5t-105 -10.5q-146 0 -259 63v143q112 -74 248 -74q131 0 131 67q0 30 -28.5 52.5
t-71 36t-92 33t-92 42t-71 65.5t-28.5 101zM340 764h-134l90 148h152z" />
    <glyph glyph-name="sacute" unicode="&#x15b;" horiz-adv-x="477" 
d="M38 346q0 77 57 112.5t143 35.5q93 0 177 -41v-114q-31 21 -78.5 35t-89.5 14q-67 0 -67 -38q0 -22 28 -36t68 -24.5t79.5 -25.5t67.5 -48t28 -82q0 -54 -31.5 -88t-78 -47t-108.5 -13q-115 0 -191 45v115q78 -51 183 -51q84 0 84 36q0 21 -28 35t-67.5 25t-79.5 26.5
t-68 48t-28 80.5zM283 544h-134l90 148h152z" />
    <glyph glyph-name="Scedilla" unicode="&#x15e;" horiz-adv-x="606" 
d="M197 517q0 -28 28.5 -49t71 -33.5t92 -32t92 -42t71 -66.5t28.5 -102q0 -98 -60 -146.5t-160 -56.5l-10 -37q94 -9 94 -87q1 -49 -42 -74t-102 -25t-102 19v86q34 -20 80 -20q62 0 62 30q0 18 -27.5 24.5t-68.5 1.5l19 81q-117 7 -215 61v143q112 -74 248 -74
q131 0 131 67q0 30 -28.5 52.5t-71 36t-92 33t-92 42t-71 65.5t-28.5 101q0 97 73 148t183 51q132 0 227 -54v-140q-89 64 -216 62q-114 -2 -114 -65z" />
    <glyph glyph-name="scedilla" unicode="&#x15f;" horiz-adv-x="477" 
d="M180 350q0 -22 28 -36t68 -24.5t79.5 -25.5t67.5 -48t28 -82q0 -120 -149 -143l-11 -39q92 -9 94 -87q0 -49 -42.5 -74t-101.5 -25q-58 0 -103 19v86q35 -20 81 -20q62 0 62 30q0 18 -28 24.5t-68 1.5l19 80q-96 5 -162 44v115q78 -51 183 -51q84 0 84 36q0 21 -28 35
t-67.5 25t-79.5 26.5t-68 48t-28 80.5q0 77 57 112.5t143 35.5q93 0 177 -41v-114q-31 21 -78.5 35t-89.5 14q-67 0 -67 -38z" />
    <glyph glyph-name="Scaron" unicode="&#x160;" horiz-adv-x="606" 
d="M44 515q0 97 73 148t183 51q132 0 227 -54v-140q-89 64 -216 62q-114 -2 -114 -65q0 -28 28.5 -49t71 -33.5t92 -32t92 -42t71 -66.5t28.5 -102q0 -57 -21.5 -98t-60.5 -64t-86 -33.5t-105 -10.5q-146 0 -259 63v143q112 -74 248 -74q131 0 131 67q0 30 -28.5 52.5
t-71 36t-92 33t-92 42t-71 65.5t-28.5 101zM487 915l-130 -155h-123l-131 155h133l59 -71l60 71h132z" />
    <glyph glyph-name="scaron" unicode="&#x161;" horiz-adv-x="477" 
d="M38 346q0 77 57 112.5t143 35.5q93 0 177 -41v-114q-31 21 -78.5 35t-89.5 14q-67 0 -67 -38q0 -22 28 -36t68 -24.5t79.5 -25.5t67.5 -48t28 -82q0 -54 -31.5 -88t-78 -47t-108.5 -13q-115 0 -191 45v115q78 -51 183 -51q84 0 84 36q0 21 -28 35t-67.5 25t-79.5 26.5
t-68 48t-28 80.5zM430 695l-130 -155h-123l-131 155h133l59 -71l60 71h132z" />
    <glyph glyph-name="Tcommaaccent" unicode="&#x162;" horiz-adv-x="605" 
d="M13 700h579v-135h-215v-565h-149v565h-215v135zM325 -263h-112l32 210h128z" />
    <glyph glyph-name="tcommaaccent" unicode="&#x163;" horiz-adv-x="418" 
d="M95 620l138 33v-173h152v-117h-152v-188q0 -72 77 -72q46 0 87 16v-112q-60 -21 -129 -21q-76 0 -124.5 39t-48.5 123v215h-81v117h81v140zM271 -263h-112l32 210h128z" />
    <glyph glyph-name="Tcaron" unicode="&#x164;" horiz-adv-x="605" 
d="M13 700h579v-135h-215v-565h-149v565h-215v135zM496 915l-130 -155h-123l-131 155h133l59 -71l60 71h132z" />
    <glyph glyph-name="tcaron" unicode="&#x165;" horiz-adv-x="418" 
d="M314 743h119l-32 -198h-103zM95 620l138 33v-173h152v-117h-152v-188q0 -72 77 -72q46 0 87 16v-112q-60 -21 -129 -21q-76 0 -124.5 39t-48.5 123v215h-81v117h81v140z" />
    <glyph glyph-name="Tbar" unicode="&#x166;" horiz-adv-x="617" 
d="M383 0h-149v282h-119v102h119v181h-215v135h579v-135h-215v-181h118v-102h-118v-282z" />
    <glyph glyph-name="tbar" unicode="&#x167;" horiz-adv-x="419" 
d="M234 174q0 -38 19 -55t58 -17q46 0 87 16v-111q-66 -21 -129 -21q-76 0 -124.5 39t-48.5 123v63h-53v83h53v76h-81v110h81v140l138 33v-173h152v-110h-152v-76h123v-83h-123v-37z" />
    <glyph glyph-name="Umacron" unicode="&#x16a;" horiz-adv-x="750" 
d="M533 700h149v-437q0 -60 -17 -108t-46 -79t-69 -52t-83.5 -29.5t-91.5 -8.5t-91.5 8.5t-83.5 29.5t-69 52t-46 79t-17 108v437h150v-429q0 -150 157 -150q158 0 158 150v429zM211 877h326v-110h-326v110z" />
    <glyph glyph-name="umacron" unicode="&#x16b;" 
d="M392 480h139v-480h-123v61q-65 -75 -160 -75q-94 0 -144.5 55t-50.5 142v297h139v-279q0 -47 24 -71t68 -24q64 0 108 61v313zM131 657h326v-110h-326v110z" />
    <glyph glyph-name="Uring" unicode="&#x16e;" horiz-adv-x="750" 
d="M533 700h149v-437q0 -60 -17 -108t-46 -79t-69 -52t-83.5 -29.5t-91.5 -8.5t-91.5 8.5t-83.5 29.5t-69 52t-46 79t-17 108v437h150v-429q0 -150 157 -150q158 0 158 150v429zM498 856q0 -56 -36 -88.5t-89 -32.5q-52 0 -88.5 32.5t-36.5 88.5q0 54 36.5 86t88.5 32
t88.5 -32t36.5 -86zM332 855q0 -19 12 -31t30 -12t30 12t12 31t-12 30.5t-30 11.5t-30 -11.5t-12 -30.5z" />
    <glyph glyph-name="uring" unicode="&#x16f;" 
d="M392 480h139v-480h-123v61q-65 -75 -160 -75q-94 0 -144.5 55t-50.5 142v297h139v-279q0 -47 24 -71t68 -24q64 0 108 61v313zM418 636q0 -56 -36 -88.5t-89 -32.5q-52 0 -88.5 32.5t-36.5 88.5q0 54 36.5 86t88.5 32t88.5 -32t36.5 -86zM252 635q0 -19 12 -31t30 -12
t30 12t12 31t-12 30.5t-30 11.5t-30 -11.5t-12 -30.5z" />
    <glyph glyph-name="Uhungarumlaut" unicode="&#x170;" horiz-adv-x="750" 
d="M533 700h149v-437q0 -60 -17 -108t-46 -79t-69 -52t-83.5 -29.5t-91.5 -8.5t-91.5 8.5t-83.5 29.5t-69 52t-46 79t-17 108v437h150v-429q0 -150 157 -150q158 0 158 150v429zM518 774h-127l72 153h136zM337 774h-127l72 153h136z" />
    <glyph glyph-name="uhungarumlaut" unicode="&#x171;" 
d="M392 480h139v-480h-123v61q-65 -75 -160 -75q-94 0 -144.5 55t-50.5 142v297h139v-279q0 -47 24 -71t68 -24q64 0 108 61v313zM438 554h-127l72 153h136zM257 554h-127l72 153h136z" />
    <glyph glyph-name="Uogonek" unicode="&#x172;" horiz-adv-x="750" 
d="M562 -212q-37 -22 -87 -22q-54 -1 -84 28t-29 72q2 63 56 122q-14 -2 -43 -2q-48 0 -91.5 8.5t-83.5 29.5t-69 52t-46 79t-17 108v437h150v-429q0 -150 157 -150q158 0 158 150v429h149v-437q0 -143 -92 -214q-57 -43 -80.5 -82t-23.5 -65q0 -32 35 -32q23 0 41 12v-94z
" />
    <glyph glyph-name="uogonek" unicode="&#x173;" 
d="M531 480v-480q-36 -24 -54.5 -50t-17.5 -47q-1 -16 9 -24.5t26 -8.5q18 0 37 8v-96q-36 -16 -83 -16q-54 0 -84 28.5t-29 71.5q0 71 73 134v61q-65 -75 -160 -75q-94 0 -144.5 55t-50.5 142v297h139v-279q0 -47 24 -71t68 -24q64 0 108 61v313h139z" />
    <glyph glyph-name="Wcircumflex" unicode="&#x174;" horiz-adv-x="1056" 
d="M884 700h162l-216 -700h-163l-139 477l-139 -477h-163l-216 700h162l139 -529l151 529h132l151 -529zM467 912h123l124 -155h-132l-53 65l-53 -65h-133z" />
    <glyph glyph-name="wcircumflex" unicode="&#x175;" horiz-adv-x="817" 
d="M658 480h147l-154 -480h-147l-95 313l-95 -313h-148l-154 480h148l87 -329l96 329h132l95 -329zM347 692h123l124 -155h-132l-53 65l-53 -65h-133z" />
    <glyph glyph-name="Ycircumflex" unicode="&#x176;" horiz-adv-x="702" 
d="M426 0h-149v248l-274 452h169l179 -314l179 314h169l-273 -452v-248zM289 912h123l124 -155h-132l-53 65l-53 -65h-133z" />
    <glyph glyph-name="ycircumflex" unicode="&#x177;" horiz-adv-x="563" 
d="M290 156l119 324h144l-213 -538q-71 -175 -207 -175q-29 0 -75 11v115q33 -7 57 -7q76 0 114 105l1 2l-227 487h147zM212 692h123l124 -155h-132l-53 65l-53 -65h-133z" />
    <glyph glyph-name="Ydieresis" unicode="&#x178;" horiz-adv-x="702" 
d="M426 0h-149v248l-274 452h169l179 -314l179 314h169l-273 -452v-248zM531 833q0 -31 -21.5 -52.5t-52.5 -21.5t-53 21.5t-22 52.5t22 53t53 22t52.5 -22t21.5 -53zM317 833q0 -31 -21.5 -52.5t-52.5 -21.5t-53 21.5t-22 52.5t22 53t53 22t52.5 -22t21.5 -53z" />
    <glyph glyph-name="Zacute" unicode="&#x179;" horiz-adv-x="614" 
d="M580 0h-548v108l338 457h-323v135h521v-108l-339 -457h351v-135zM358 764h-134l90 148h152z" />
    <glyph glyph-name="zacute" unicode="&#x17a;" horiz-adv-x="482" 
d="M44 480h391v-90l-225 -274h241v-116h-420v90l225 275h-212v115zM292 544h-134l90 148h152z" />
    <glyph glyph-name="Zdotaccent" unicode="&#x17b;" horiz-adv-x="614" 
d="M580 0h-548v108l338 457h-323v135h521v-108l-339 -457h351v-135zM230 834q0 38 23 58.5t58 20.5t58.5 -20.5t23.5 -58.5q0 -39 -23 -59t-59 -20q-35 0 -58 20t-23 59z" />
    <glyph glyph-name="zdotaccent" unicode="&#x17c;" horiz-adv-x="482" 
d="M44 480h391v-90l-225 -274h241v-116h-420v90l225 275h-212v115zM164 614q0 38 23 58.5t58 20.5t58.5 -20.5t23.5 -58.5q0 -39 -23 -59t-59 -20q-35 0 -58 20t-23 59z" />
    <glyph glyph-name="Zcaron" unicode="&#x17d;" horiz-adv-x="614" 
d="M580 0h-548v108l338 457h-323v135h521v-108l-339 -457h351v-135zM505 915l-130 -155h-123l-131 155h133l59 -71l60 71h132z" />
    <glyph glyph-name="zcaron" unicode="&#x17e;" horiz-adv-x="482" 
d="M44 480h391v-90l-225 -274h241v-116h-420v90l225 275h-212v115zM439 695l-130 -155h-123l-131 155h133l59 -71l60 71h132z" />
    <glyph glyph-name="Scommaaccent" unicode="&#x218;" horiz-adv-x="606" 
d="M44 515q0 97 73 148t183 51q132 0 227 -54v-140q-89 64 -216 62q-114 -2 -114 -65q0 -28 28.5 -49t71 -33.5t92 -32t92 -42t71 -66.5t28.5 -102q0 -57 -21.5 -98t-60.5 -64t-86 -33.5t-105 -10.5q-146 0 -259 63v143q112 -74 248 -74q131 0 131 67q0 30 -28.5 52.5
t-71 36t-92 33t-92 42t-71 65.5t-28.5 101zM330 -263h-112l32 210h128z" />
    <glyph glyph-name="scommaaccent" unicode="&#x219;" horiz-adv-x="477" 
d="M38 346q0 77 57 112.5t143 35.5q93 0 177 -41v-114q-31 21 -78.5 35t-89.5 14q-67 0 -67 -38q0 -22 28 -36t68 -24.5t79.5 -25.5t67.5 -48t28 -82q0 -54 -31.5 -88t-78 -47t-108.5 -13q-115 0 -191 45v115q78 -51 183 -51q84 0 84 36q0 21 -28 35t-67.5 25t-79.5 26.5
t-68 48t-28 80.5zM268 -263h-112l32 210h128z" />
    <glyph glyph-name="uni021A" unicode="&#x21a;" horiz-adv-x="605" 
d="M13 700h579v-135h-215v-565h-149v565h-215v135zM325 -263h-112l32 210h128z" />
    <glyph glyph-name="uni021B" unicode="&#x21b;" horiz-adv-x="418" 
d="M95 620l138 33v-173h152v-117h-152v-188q0 -72 77 -72q46 0 87 16v-112q-60 -21 -129 -21q-76 0 -124.5 39t-48.5 123v215h-81v117h81v140zM272 -251h-113l32 198h129z" />
    <glyph glyph-name="circumflex" unicode="&#x2c6;" horiz-adv-x="368" 
d="M122 912h123l124 -155h-132l-53 65l-53 -65h-133z" />
    <glyph glyph-name="caron" unicode="&#x2c7;" horiz-adv-x="368" 
d="M376 915l-130 -155h-123l-131 155h133l59 -71l60 71h132z" />
    <glyph glyph-name="breve" unicode="&#x2d8;" horiz-adv-x="359" 
d="M336 791q-64 -45 -157 -45q-92 0 -156 45v109q69 -43 156 -43q88 0 157 43v-109z" />
    <glyph glyph-name="dotaccent" unicode="&#x2d9;" horiz-adv-x="156" 
d="M-2 837q0 38 23 58.5t58 20.5t58.5 -20.5t23.5 -58.5q0 -39 -23 -59t-59 -20q-35 0 -58 20t-23 59z" />
    <glyph glyph-name="ring" unicode="&#x2da;" horiz-adv-x="247" 
d="M248 856q0 -56 -36 -88.5t-89 -32.5q-52 0 -88.5 32.5t-36.5 88.5q0 54 36.5 86t88.5 32t88.5 -32t36.5 -86zM82 855q0 -19 12 -31t30 -12t30 12t12 31t-12 30.5t-30 11.5t-30 -11.5t-12 -30.5z" />
    <glyph glyph-name="ogonek" unicode="&#x2db;" horiz-adv-x="225" 
d="M83 0h119q-36 -24 -54.5 -50.5t-17.5 -47.5q-1 -16 8.5 -24t26.5 -8q23 0 41 12v-94q-37 -22 -87 -22q-54 -1 -84 28t-29 72q0 75 77 134z" />
    <glyph glyph-name="tilde" unicode="&#x2dc;" horiz-adv-x="400" 
d="M380 885q14 -60 -14 -99.5t-80 -39.5q-37 0 -84 21t-58 21q-16 0 -21.5 -11.5t-1.5 -24.5h-100q-14 60 14 99.5t79 39.5q37 0 84 -21t59 -21q16 0 21.5 11.5t1.5 24.5h100z" />
    <glyph glyph-name="hungarumlaut" unicode="&#x2dd;" horiz-adv-x="430" 
d="M344 774h-127l72 153h136zM163 774h-127l72 153h136z" />
    <glyph glyph-name="uni0326" unicode="&#x326;" horiz-adv-x="160" 
d="M133 -263h-112l32 210h128z" />
    <glyph glyph-name="uni0401" unicode="&#x401;" horiz-adv-x="617" 
d="M512 833q0 -31 -21.5 -52.5t-52.5 -21.5t-53 21.5t-22 52.5t22 53t53 22t52.5 -22t21.5 -53zM298 833q0 -31 -21.5 -52.5t-52.5 -21.5t-53 21.5t-22 52.5t22 53t53 22t52.5 -22t21.5 -53zM75 700h493v-132h-343v-149h313v-131h-313v-156h349v-132h-499v700z" />
    <glyph glyph-name="uni0410" unicode="&#x410;" horiz-adv-x="739" 
d="M158 0h-155l286 700h162l285 -700h-155l-51 131h-320zM354 506l-97 -251h226l-98 251q-10 28 -15 55q-6 -31 -16 -55z" />
    <glyph glyph-name="uni0411" unicode="&#x411;" horiz-adv-x="675" 
d="M225 440h154q55 0 100.5 -10.5t84.5 -34t61 -68.5t22 -107q0 -220 -268 -220h-304v700h515v-135h-365v-125zM225 132h155q53 0 83.5 18.5t30.5 69.5t-30.5 69.5t-83.5 18.5h-155v-176z" />
    <glyph glyph-name="uni0412" unicode="&#x412;" horiz-adv-x="687" 
d="M75 700h306q115 0 178.5 -44.5t63.5 -132.5q0 -117 -106 -153q58 -17 96 -59.5t38 -114.5q0 -57 -25 -97.5t-67.5 -60.5t-87 -29t-95.5 -9h-301v700zM501 212q0 90 -119 90h-158v-180h150q59 0 93 19t34 71zM474 497q0 80 -106 80h-143v-160h151q44 0 71 20.5t27 59.5z
" />
    <glyph glyph-name="uni0413" unicode="&#x413;" horiz-adv-x="576" 
d="M225 0h-150v700h489v-135h-339v-565z" />
    <glyph glyph-name="uni0414" unicode="&#x414;" horiz-adv-x="809" 
d="M153 -152h-132v284h82q111 199 111 568h476v-568h89v-284h-132v152h-494v-152zM354 565q-19 -293 -92 -433h278v433h-186z" />
    <glyph glyph-name="uni0415" unicode="&#x415;" horiz-adv-x="617" 
d="M75 700h493v-132h-343v-149h313v-131h-313v-156h349v-132h-499v700z" />
    <glyph glyph-name="uni0416" unicode="&#x416;" horiz-adv-x="987" 
d="M171 0h-167l209 359l-195 341h167l150 -278h84v278h150v-278h84l150 278h167l-196 -341l210 -359h-167l-165 286h-83v-286h-150v286h-83z" />
    <glyph glyph-name="uni0417" unicode="&#x417;" horiz-adv-x="624" 
d="M587 190q0 -56 -25 -97.5t-68 -63.5t-91.5 -32.5t-104.5 -10.5q-132 0 -259 45v144q114 -56 248 -54q149 0 149 91q0 82 -126 82h-158l1 132h147q51 0 80 18.5t29 54.5q0 80 -139 80q-104 2 -219 -54v143q110 46 232 46q127 0 201.5 -48.5t74.5 -142.5q0 -56 -30 -95.5
t-82 -57.5q61 -17 100.5 -62t39.5 -118z" />
    <glyph glyph-name="uni0418" unicode="&#x418;" horiz-adv-x="764" 
d="M689 0h-150v361q0 53 3 96l-326 -457h-141v700h150v-361q0 -53 -3 -96l326 457h141v-700z" />
    <glyph glyph-name="uni0419" unicode="&#x419;" horiz-adv-x="764" 
d="M539 0h150v700h-141l-326 -457q3 44 3 96v361h-150v-700h141l326 457q-3 -43 -3 -96v-361zM539 794q-64 -45 -157 -45q-92 0 -156 45v109q69 -43 156 -43q88 0 157 43v-109z" />
    <glyph glyph-name="uni041A" unicode="&#x41a;" horiz-adv-x="691" 
d="M225 0h-150v700h150v-278h113l177 278h167l-227 -341l240 -359h-166l-191 286h-113v-286z" />
    <glyph glyph-name="uni041B" unicode="&#x41b;" horiz-adv-x="754" 
d="M199 700h480v-700h-150v565h-192q-6 -76 -11 -126.5t-15 -116.5t-21.5 -109t-30 -88.5t-42 -72t-56.5 -44t-74 -17.5q-42 0 -78 13v132q21 -6 48 -5q19 1 35 12.5t28.5 35t22 48t16.5 65t12 72t9.5 82.5t7 83t6 88t5.5 83z" />
    <glyph glyph-name="uni041C" unicode="&#x41c;" horiz-adv-x="907" 
d="M693 700h139v-700h-150v431l-185 -281h-87l-185 282v-432h-150v700h139l240 -364z" />
    <glyph glyph-name="uni041D" unicode="&#x41d;" horiz-adv-x="764" 
d="M539 700h150v-700h-150v282h-314v-282h-150v700h150v-282h314v282z" />
    <glyph glyph-name="uni041E" unicode="&#x41e;" horiz-adv-x="816" 
d="M36 350q0 72 23.5 137t69 116t117.5 81t162 30t162 -30t117.5 -81t69 -116t23.5 -137t-23.5 -137t-69 -116t-117.5 -81t-162 -30t-162 30t-117.5 81t-69 116t-23.5 137zM626 350q0 97 -57 161t-161 64q-105 0 -162 -64t-57 -161t57 -161t162 -64q104 0 161 64t57 161z
" />
    <glyph glyph-name="uni041F" unicode="&#x41f;" horiz-adv-x="759" 
d="M225 0h-150v700h609v-700h-149v565h-310v-565z" />
    <glyph glyph-name="uni0420" unicode="&#x420;" horiz-adv-x="667" 
d="M75 700h264q302 0 302 -235t-302 -235h-114v-230h-150v700zM488 465q0 103 -142 103h-121v-206h121q142 0 142 103z" />
    <glyph glyph-name="uni0421" unicode="&#x421;" horiz-adv-x="654" 
d="M36 342q0 92 32.5 165.5t86 117.5t119.5 66.5t138 22.5q110 0 200 -45v-143q-71 55 -175 55q-102 0 -174.5 -60.5t-72.5 -178.5q0 -56 21 -99.5t56.5 -69.5t79 -39.5t90.5 -13.5q116 0 180 58v-147q-93 -45 -203 -45q-72 0 -138 22t-120.5 64t-87 112t-32.5 158z" />
    <glyph glyph-name="uni0422" unicode="&#x422;" horiz-adv-x="605" 
d="M13 700h579v-135h-215v-565h-149v565h-215v135z" />
    <glyph glyph-name="uni0423" unicode="&#x423;" horiz-adv-x="666" 
d="M415 160q-45 -96 -101.5 -135t-128.5 -39q-47 0 -106 17v127q39 -13 81 -13q38 0 64.5 13.5t43.5 49.5l12 25l-279 495h166l184 -360l153 360h165z" />
    <glyph glyph-name="uni0424" unicode="&#x424;" horiz-adv-x="879" 
d="M513 -39h-144v88q-160 7 -253.5 86t-93.5 215t93.5 215t253.5 86v88h144v-88q158 -8 251 -87t93 -214t-93 -214t-251 -87v-88zM172 350q0 -73 47.5 -121t149.5 -55v352q-102 -7 -149.5 -55t-47.5 -121zM513 526v-352q100 8 147 56t47 120t-47 120t-147 56z" />
    <glyph glyph-name="uni0425" unicode="&#x425;" horiz-adv-x="678" 
d="M169 0h-175l251 363l-236 337h175l155 -230l154 230h176l-236 -337l251 -363h-176l-169 255z" />
    <glyph glyph-name="uni0426" unicode="&#x426;" horiz-adv-x="804" 
d="M774 -152h-132v152h-567v700h150v-565h310v565h150v-565h89v-287z" />
    <glyph glyph-name="uni0427" unicode="&#x427;" horiz-adv-x="697" 
d="M622 0h-150v251q-93 -30 -177 -30q-120 1 -188 62t-68 179v238h150v-233q0 -55 39 -82t105 -27q70 0 139 28v314h150v-700z" />
    <glyph glyph-name="uni0428" unicode="&#x428;" horiz-adv-x="1051" 
d="M976 0h-901v700h150v-565h226v565h150v-565h226v565h149v-700z" />
    <glyph glyph-name="uni0429" unicode="&#x429;" horiz-adv-x="1095" 
d="M1065 -152h-132l1 152h-859v700h150v-565h226v565h150v-565h226v565h149v-565h89v-287z" />
    <glyph glyph-name="uni042A" unicode="&#x42a;" horiz-adv-x="773" 
d="M446 0h-264v565h-166v135h316v-230h114q302 -2 302 -235q0 -235 -302 -235zM332 338v-206h121q142 0 142 103t-142 103h-121z" />
    <glyph glyph-name="uni042B" unicode="&#x42b;" horiz-adv-x="923" 
d="M339 0h-264v700h150v-230h114q302 -2 302 -235q0 -235 -302 -235zM225 338v-206h121q142 0 142 103t-142 103h-121zM848 0h-150v700h150v-700z" />
    <glyph glyph-name="uni042C" unicode="&#x42c;" horiz-adv-x="667" 
d="M339 0h-264v700h150v-230h114q302 -2 302 -235q0 -235 -302 -235zM225 338v-206h121q142 0 142 103t-142 103h-121z" />
    <glyph glyph-name="uni042D" unicode="&#x42d;" horiz-adv-x="658" 
d="M45 669q90 45 202 45q72 0 137 -22.5t119 -66t86 -117t32 -167.5q0 -72 -21.5 -132t-57.5 -100.5t-85 -69t-102.5 -41t-111.5 -12.5q-105 0 -198 45v148q66 -58 176 -58q98 0 166 38.5t83 126.5h-316v129h313q-31 162 -243 164q-110 0 -179 -53v143z" />
    <glyph glyph-name="uni042E" unicode="&#x42e;" horiz-adv-x="1105" 
d="M1069 350q0 -72 -23.5 -137t-69 -116t-117.5 -81t-162 -30q-155 0 -248.5 85t-112.5 212h-111v-283h-150v700h150v-282h111q19 127 112.5 211.5t248.5 84.5q90 0 162 -30t117.5 -81t69 -116t23.5 -137zM479 350q0 -97 57 -161t162 -64q104 0 161 64t57 161t-57 161
t-161 64q-105 0 -162 -64t-57 -161z" />
    <glyph glyph-name="uni042F" unicode="&#x42f;" horiz-adv-x="695" 
d="M188 0h-173l195 257q-156 52 -156 209q0 118 80 176t201 58h285v-700h-150v238h-105zM208 466q0 -51 34.5 -77t93.5 -26h134v205h-134q-59 0 -93.5 -25.5t-34.5 -76.5z" />
    <glyph glyph-name="uni0430" unicode="&#x430;" horiz-adv-x="563" 
d="M488 124q0 -32 34 -32q14 0 26 4v-91q-38 -14 -77 -14q-76 0 -106 54q-75 -59 -173 -59q-71 0 -119.5 39.5t-48.5 107.5q0 57 34 95t79 51.5t98 13.5q59 0 114 -13v17q0 37 -29 59t-84 22q-80 0 -170 -36v120q96 32 186 32q236 0 236 -217v-153zM267 210q-43 0 -72 -16
t-29 -50q0 -26 21.5 -42.5t53.5 -16.5q63 0 108 39v75q-46 11 -82 11z" />
    <glyph glyph-name="uni0431" unicode="&#x431;" horiz-adv-x="583" 
d="M550 219q0 -111 -71 -172t-184 -61q-114 0 -185 71.5t-71 218.5q0 233 147 325q58 36 125.5 51t118 25t78.5 37v-127q-34 -28 -114.5 -40.5t-124.5 -35.5q-38 -21 -60 -58.5t-28 -77.5q54 75 156 75q92 0 152.5 -62t60.5 -169zM181 218q0 -47 28 -84t86 -37t85.5 36.5
t27.5 84.5t-27.5 84.5t-85.5 36.5q-57 0 -85.5 -37.5t-28.5 -83.5z" />
    <glyph glyph-name="uni0432" unicode="&#x432;" horiz-adv-x="549" 
d="M353 0h-294v480h286q80 0 119 -36.5t39 -90.5q0 -82 -74 -110q85 -28 85 -113q0 -57 -38 -93.5t-123 -36.5zM198 199v-104h114q64 0 64 51q0 53 -64 53h-114zM197 385v-102h106q60 0 60 50q0 52 -61 52h-105z" />
    <glyph glyph-name="uni0433" unicode="&#x433;" horiz-adv-x="440" 
d="M198 0h-139v480h366v-117h-227v-363z" />
    <glyph glyph-name="uni0434" unicode="&#x434;" horiz-adv-x="652" 
d="M149 -127h-128v233h67q75 130 70 374h395v-374h72v-233h-128v127h-348v-127zM286 374q-6 -164 -54 -268h183v268h-129z" />
    <glyph glyph-name="uni0435" unicode="&#x435;" horiz-adv-x="545" 
d="M32 240q0 65 23 115.5t60.5 79.5t79 44t84.5 15q72 0 124.5 -27t77.5 -69.5t34.5 -96t-5.5 -106.5h-338q11 -50 58 -74.5t111 -24.5q79 0 145 29v-109q-71 -30 -176 -30q-120 0 -199 67t-79 187zM385 285q5 33 -19 68t-82 35q-46 0 -79 -27.5t-34 -75.5h214z" />
    <glyph glyph-name="uni0436" unicode="&#x436;" horiz-adv-x="787" 
d="M785 0h-149l-119 179h-54v-179h-139v179h-54l-119 -179h-149l166 241l-152 239h148l115 -191h45v191h139v-191h45l115 191h148l-152 -239z" />
    <glyph glyph-name="uni0437" unicode="&#x437;" horiz-adv-x="487" 
d="M453 133q0 -61 -60 -103.5t-176 -42.5q-108 0 -183 39v111q29 -16 76 -28.5t89 -12.5q112 0 112 54q0 28 -24.5 37.5t-67.5 9.5h-89v92h89q82 0 82 45q0 51 -94 51q-40 0 -87 -12t-77 -28v110q75 40 181 40q115 0 167 -41.5t52 -101.5q0 -41 -22.5 -68t-58.5 -37
q91 -28 91 -114z" />
    <glyph glyph-name="uni0438" unicode="&#x438;" horiz-adv-x="591" 
d="M180 0h-121v480h139v-270l214 270h120v-480h-138v270z" />
    <glyph glyph-name="uni0439" unicode="&#x439;" horiz-adv-x="591" 
d="M449 578q-65 -40 -153 -40t-153 40v104q69 -38 153 -38t153 38v-104zM180 0h-121v480h139v-270l214 270h120v-480h-138v270z" />
    <glyph glyph-name="uni043A" unicode="&#x43a;" horiz-adv-x="548" 
d="M198 0h-139v480h139v-179h58l122 179h156l-165 -237l179 -243h-156l-138 190h-56v-190z" />
    <glyph glyph-name="uni043B" unicode="&#x43b;" horiz-adv-x="593" 
d="M272 370q-6 -88 -16.5 -151.5t-30.5 -118t-54 -82.5t-82 -28q-37 0 -76 14v110q15 -6 29 -6q52 0 73 93t29 279h390v-480h-139v370h-123z" />
    <glyph glyph-name="uni043C" unicode="&#x43c;" horiz-adv-x="682" 
d="M194 0h-135v480h133l149 -238l150 238h132v-480h-134v283l-113 -179h-69l-113 179v-283z" />
    <glyph glyph-name="uni043D" unicode="&#x43d;" 
d="M198 0h-139v480h139v-182h194v182h139v-480h-139v182h-194v-182z" />
    <glyph glyph-name="uni043E" unicode="&#x43e;" horiz-adv-x="594" 
d="M32 240q0 120 77 187t188 67q112 0 188.5 -67t76.5 -187t-76.5 -187t-188.5 -67q-111 0 -188 67t-77 187zM421 240q0 57 -33 93.5t-91 36.5t-90.5 -36.5t-32.5 -93.5t32.5 -93.5t90.5 -36.5t91 36.5t33 93.5z" />
    <glyph glyph-name="uni043F" unicode="&#x43f;" 
d="M198 0h-139v480h472v-480h-139v363h-194v-363z" />
    <glyph glyph-name="uni0440" unicode="&#x440;" horiz-adv-x="622" 
d="M182 410q59 84 174 84q109 0 171.5 -74.5t62.5 -179.5t-62.5 -179.5t-171.5 -74.5q-99 0 -158 65v-271h-139v700h123v-70zM448 240q0 58 -34 97.5t-92 39.5q-43 0 -76.5 -23t-48.5 -57v-114q15 -34 48.5 -57t76.5 -23q58 0 92 39.5t34 97.5z" />
    <glyph glyph-name="uni0441" unicode="&#x441;" horiz-adv-x="493" 
d="M32 233q0 66 23.5 118t62.5 82.5t86 46t99 15.5q83 0 148 -35v-122q-56 36 -128 36q-63 0 -106 -33t-43 -101q0 -65 43 -99.5t104 -34.5q77 0 135 35v-123q-75 -32 -162 -32q-108 0 -185 63.5t-77 183.5z" />
    <glyph glyph-name="uni0442" unicode="&#x442;" horiz-adv-x="476" 
d="M307 0h-138v363h-153v117h444v-117h-153v-363z" />
    <glyph glyph-name="uni0443" unicode="&#x443;" horiz-adv-x="563" 
d="M290 156l119 324h144l-213 -538q-71 -175 -207 -175q-29 0 -75 11v115q33 -7 57 -7q76 0 114 105l1 2l-227 487h147z" />
    <glyph glyph-name="uni0444" unicode="&#x444;" horiz-adv-x="748" 
d="M440 -220h-132v206q-122 5 -199.5 73.5t-77.5 180.5t77.5 180.5t199.5 73.5v206h132v-206q122 -5 199.5 -73.5t77.5 -180.5t-77.5 -180.5t-199.5 -73.5v-206zM170 240q0 -57 36 -95.5t103 -42.5v276q-67 -4 -103 -42.5t-36 -95.5zM441 378v-276q67 4 103 42.5t36 95.5
t-36 95.5t-103 42.5z" />
    <glyph glyph-name="uni0445" unicode="&#x445;" horiz-adv-x="530" 
d="M362 480h157l-173 -238l183 -242h-157l-106 147l-107 -147h-157l183 242l-174 238h157l98 -144z" />
    <glyph glyph-name="uni0446" unicode="&#x446;" horiz-adv-x="626" 
d="M598 -127h-128v127h-411v480h139v-363h189v363h139v-366h72v-241z" />
    <glyph glyph-name="uni0447" unicode="&#x447;" horiz-adv-x="540" 
d="M481 0h-138v150q-54 -20 -123 -20q-82 0 -134.5 45t-52.5 134v171h139v-158q0 -75 86 -75q50 0 85 15v218h138v-480z" />
    <glyph glyph-name="uni0448" unicode="&#x448;" horiz-adv-x="814" 
d="M755 0h-696v480h139v-363h140v363h138v-363h141v363h138v-480z" />
    <glyph glyph-name="uni0449" unicode="&#x449;" horiz-adv-x="855" 
d="M827 -127h-128v127h-640v480h139v-363h140v363h138v-363h141v363h138v-366h72v-241z" />
    <glyph glyph-name="uni044A" unicode="&#x44a;" horiz-adv-x="607" 
d="M279 330h112q91 0 142.5 -46.5t51.5 -118.5t-51.5 -118.5t-142.5 -46.5h-250v371h-124v109h262v-150zM279 100h78q41 0 63 17t22 48t-22 48t-63 17h-78v-130z" />
    <glyph glyph-name="uni044B" unicode="&#x44b;" horiz-adv-x="779" 
d="M309 0h-250v480h139v-150h111q91 0 142.5 -46.5t51.5 -118.5t-51.5 -118.5t-142.5 -46.5zM197 230v-130h78q41 0 63 17t22 48t-22 48t-63 17h-78zM720 0h-139v480h139v-480z" />
    <glyph glyph-name="uni044C" unicode="&#x44c;" horiz-adv-x="525" 
d="M309 0h-250v480h139v-150h111q91 0 142.5 -46.5t51.5 -118.5t-51.5 -118.5t-142.5 -46.5zM197 230v-130h78q41 0 63 17t22 48t-22 48t-63 17h-78z" />
    <glyph glyph-name="uni044D" unicode="&#x44d;" horiz-adv-x="506" 
d="M474 231q0 -62 -23.5 -111t-61.5 -77t-82.5 -42.5t-91.5 -14.5q-97 0 -178 42v114q64 -42 148 -42q132 0 150 88h-207v104h207q-11 44 -52 66t-100 22q-79 0 -141 -42v114q70 42 158 42q114 0 194 -66.5t80 -196.5z" />
    <glyph glyph-name="uni044E" unicode="&#x44e;" horiz-adv-x="836" 
d="M804 240q0 -120 -77 -187t-188 -67q-92 0 -164 52.5t-90 146.5h-87v-185h-139v480h139v-185h87q18 94 90 146.5t164 52.5q111 0 188 -67t77 -187zM416 240q0 -59 32 -97.5t91 -38.5q60 0 92 38.5t32 97.5t-32 97.5t-92 38.5q-59 0 -91 -38.5t-32 -97.5z" />
    <glyph glyph-name="uni044F" unicode="&#x44f;" horiz-adv-x="556" 
d="M173 0h-156l126 161q-48 21 -73 61t-25 90q0 71 50.5 119.5t141.5 48.5h260v-480h-139v143h-78zM186 308q0 -29 20.5 -45t58.5 -16h93v123h-93q-79 0 -79 -62z" />
    <glyph glyph-name="uni0451" unicode="&#x451;" horiz-adv-x="545" 
d="M461 613q0 -31 -21.5 -52.5t-52.5 -21.5t-53 21.5t-22 52.5t22 53t53 22t52.5 -22t21.5 -53zM247 613q0 -31 -21.5 -52.5t-52.5 -21.5t-53 21.5t-22 52.5t22 53t53 22t52.5 -22t21.5 -53zM32 240q0 65 23 115.5t60.5 79.5t79 44t84.5 15q72 0 124.5 -27t77.5 -69.5
t34.5 -96t-5.5 -106.5h-338q11 -50 58 -74.5t111 -24.5q79 0 145 29v-109q-71 -30 -176 -30q-120 0 -199 67t-79 187zM385 285q5 33 -19 68t-82 35q-46 0 -79 -27.5t-34 -75.5h214z" />
    <glyph glyph-name="Wgrave" unicode="&#x1e80;" horiz-adv-x="1056" 
d="M884 700h162l-216 -700h-163l-139 477l-139 -477h-163l-216 700h162l139 -529l151 529h132l151 -529zM615 764h-134l-108 148h152z" />
    <glyph glyph-name="wgrave" unicode="&#x1e81;" horiz-adv-x="817" 
d="M658 480h147l-154 -480h-147l-95 313l-95 -313h-148l-154 480h148l87 -329l96 329h132l95 -329zM495 544h-134l-108 148h152z" />
    <glyph glyph-name="Wacute" unicode="&#x1e82;" horiz-adv-x="1056" 
d="M884 700h162l-216 -700h-163l-139 477l-139 -477h-163l-216 700h162l139 -529l151 529h132l151 -529zM574 764h-134l90 148h152z" />
    <glyph glyph-name="wacute" unicode="&#x1e83;" horiz-adv-x="817" 
d="M658 480h147l-154 -480h-147l-95 313l-95 -313h-148l-154 480h148l87 -329l96 329h132l95 -329zM454 544h-134l90 148h152z" />
    <glyph glyph-name="Wdieresis" unicode="&#x1e84;" horiz-adv-x="1056" 
d="M884 700h162l-216 -700h-163l-139 477l-139 -477h-163l-216 700h162l139 -529l151 529h132l151 -529zM709 833q0 -31 -21.5 -52.5t-52.5 -21.5t-53 21.5t-22 52.5t22 53t53 22t52.5 -22t21.5 -53zM495 833q0 -31 -21.5 -52.5t-52.5 -21.5t-53 21.5t-22 52.5t22 53t53 22
t52.5 -22t21.5 -53z" />
    <glyph glyph-name="wdieresis" unicode="&#x1e85;" horiz-adv-x="817" 
d="M658 480h147l-154 -480h-147l-95 313l-95 -313h-148l-154 480h148l87 -329l96 329h132l95 -329zM589 613q0 -31 -21.5 -52.5t-52.5 -21.5t-53 21.5t-22 52.5t22 53t53 22t52.5 -22t21.5 -53zM375 613q0 -31 -21.5 -52.5t-52.5 -21.5t-53 21.5t-22 52.5t22 53t53 22
t52.5 -22t21.5 -53z" />
    <glyph glyph-name="Ygrave" unicode="&#x1ef2;" horiz-adv-x="702" 
d="M426 0h-149v248l-274 452h169l179 -314l179 314h169l-273 -452v-248zM437 764h-134l-108 148h152z" />
    <glyph glyph-name="ygrave" unicode="&#x1ef3;" horiz-adv-x="563" 
d="M290 156l119 324h144l-213 -538q-71 -175 -207 -175q-29 0 -75 11v115q33 -7 57 -7q76 0 114 105l1 2l-227 487h147zM360 544h-134l-108 148h152z" />
    <glyph glyph-name="endash" unicode="&#x2013;" horiz-adv-x="578" 
d="M523 185h-468v117h468v-117z" />
    <glyph glyph-name="emdash" unicode="&#x2014;" horiz-adv-x="774" 
d="M719 185h-664v117h664v-117z" />
    <glyph glyph-name="quoteleft" unicode="&#x2018;" horiz-adv-x="264" 
d="M175 431h-147l98 269h112z" />
    <glyph glyph-name="quoteright" unicode="&#x2019;" horiz-adv-x="259" 
d="M147 431h-112l63 269h147z" />
    <glyph glyph-name="quotesinglbase" unicode="&#x201a;" horiz-adv-x="262" 
d="M118 -145h-112l63 269h147z" />
    <glyph glyph-name="quotedblleft" unicode="&#x201c;" horiz-adv-x="456" 
d="M367 431h-147l98 269h112zM175 431h-147l98 269h112z" />
    <glyph glyph-name="quotedblright" unicode="&#x201d;" horiz-adv-x="451" 
d="M339 431h-112l63 269h147zM147 431h-112l63 269h147z" />
    <glyph glyph-name="quotedblbase" unicode="&#x201e;" horiz-adv-x="454" 
d="M310 -145h-112l63 269h147zM118 -145h-112l63 269h147z" />
    <glyph glyph-name="dagger" unicode="&#x2020;" horiz-adv-x="540" 
d="M345 -220h-149v565h-167v135h167v220h149v-220h166v-135h-166v-565z" />
    <glyph glyph-name="daggerdbl" unicode="&#x2021;" horiz-adv-x="592" 
d="M371 -220h-150v246h-171v132h171v190h-171v132h171v220h150v-220h171v-132h-171v-190h171v-132h-171v-246z" />
    <glyph glyph-name="bullet" unicode="&#x2022;" horiz-adv-x="384" 
d="M66 350q0 60 36 90.5t90 30.5q55 0 90.5 -30.5t35.5 -90.5t-35.5 -91t-90.5 -31q-54 0 -90 31t-36 91z" />
    <glyph glyph-name="ellipsis" unicode="&#x2026;" horiz-adv-x="739" 
d="M699 69q0 -40 -24 -61t-60 -21t-60.5 21t-24.5 61t24.5 61t60.5 21t60 -21t24 -61zM209 69q0 -40 -24 -61t-60 -21t-60.5 21t-24.5 61t24.5 61t60.5 21t60 -21t24 -61zM454 69q0 -40 -24 -61t-60 -21t-60.5 21t-24.5 61t24.5 61t60.5 21t60 -21t24 -61z" />
    <glyph glyph-name="perthousand" unicode="&#x2030;" horiz-adv-x="1329" 
d="M308 -60h-100l409 820h100zM391 542q0 -81 -52 -126.5t-128 -45.5q-77 0 -129.5 45.5t-52.5 126.5t52.5 126.5t129.5 45.5q76 0 128 -45.5t52 -126.5zM141 542q0 -29 17.5 -49t52.5 -20q33 0 50.5 20t17.5 49t-17.5 49t-50.5 20q-35 0 -52.5 -20t-17.5 -49zM892 158
q0 -81 -52 -126.5t-128 -45.5q-77 0 -129.5 45.5t-52.5 126.5t52.5 126.5t129.5 45.5q76 0 128 -45.5t52 -126.5zM642 158q0 -29 17.5 -49t52.5 -20q33 0 50.5 20t17.5 49t-17.5 49t-50.5 20q-35 0 -52.5 -20t-17.5 -49zM1300 158q0 -79 -52 -125.5t-128 -46.5t-129 46.5
t-53 125.5t53 125.5t129 46.5t128 -46.5t52 -125.5zM1051 158q0 -29 17.5 -49t52.5 -20q33 0 50.5 20t17.5 49t-17.5 49t-50.5 20q-35 0 -52.5 -20t-17.5 -49z" />
    <glyph glyph-name="guilsinglleft" unicode="&#x2039;" horiz-adv-x="331" 
d="M298 46h-140l-129 181v26l129 181h140l-136 -194z" />
    <glyph glyph-name="guilsinglright" unicode="&#x203a;" horiz-adv-x="331" 
d="M173 46h-140l136 194l-136 194h140l129 -181v-26z" />
    <glyph glyph-name="fraction" unicode="&#x2044;" horiz-adv-x="182" 
d="M-115 -14h-45l458 728h45z" />
    <glyph glyph-name="Euro" unicode="&#x20ac;" horiz-adv-x="727" 
d="M674 31q-93 -45 -199 -45q-123 0 -220.5 62t-131.5 179h-89v89h74v24v24h-74v89h89q35 117 131.5 179t218.5 62q111 0 201 -45v-143q-72 55 -175 55q-67 0 -122.5 -27.5t-84.5 -80.5h252v-89h-282q-1 -8 -1 -24t1 -24h282v-89h-253q29 -53 85 -80t122 -27q110 0 176 58
v-147z" />
    <glyph glyph-name="trademark" unicode="&#x2122;" horiz-adv-x="681" 
d="M381 442h-78v258h71l85 -118l86 118h71v-258h-78v141l-58 -81h-41l-58 81v-141zM192 442h-77v188h-77v70h231v-70h-77v-188z" />
    <glyph glyph-name="oneeighth" unicode="&#x215b;" horiz-adv-x="910" 
d="M546 302q0 46 40 80.5t118 34.5q73 0 116 -35t44 -82q1 -54 -49 -92q64 -34 64 -96q0 -51 -43 -86t-130 -35q-86 0 -130.5 36t-44.5 87q0 61 61 101q-46 32 -46 87zM716 165q-54 18 -59 20q-31 -27 -29 -59q0 -26 21.5 -42t62.5 -16q30 0 50.5 11t20.5 30q0 15 -10.5 26
t-22 16.5t-34.5 13.5zM772 292q-1 21 -19.5 34.5t-51.5 13.5q-28 0 -45 -11t-17 -27t11.5 -27t23.5 -16.5t37 -13.5q2 -1 36 -11q25 28 25 58zM231 -14h-45l458 728h45zM158 680h70v-324h75v-84h-258v84h89v227l-86 -28v87z" />
    <glyph glyph-name="threeeighths" unicode="&#x215c;" horiz-adv-x="921" 
d="M557 302q0 46 40 80.5t118 34.5q73 0 116 -35t44 -82q1 -54 -49 -92q64 -34 64 -96q0 -51 -43 -86t-130 -35q-86 0 -130.5 36t-44.5 87q0 61 61 101q-46 32 -46 87zM727 165q-54 18 -59 20q-31 -27 -29 -59q0 -26 21.5 -42t62.5 -16q30 0 50.5 11t20.5 30q0 15 -10.5 26
t-22 16.5t-34.5 13.5zM783 292q-1 21 -19.5 34.5t-51.5 13.5q-28 0 -45 -11t-17 -27t11.5 -27t23.5 -16.5t37 -13.5q2 -1 36 -11q25 28 25 58zM252 -14h-45l458 728h45zM332 581q0 -65 -57 -88q74 -25 74 -104q0 -61 -48 -91t-118 -30t-141 28v90q59 -34 133 -32q82 0 82 48
q0 43 -66 43h-68l1 83h56q61 0 61 39q0 42 -71 42q-63 0 -121 -38v90q61 33 134 33q66 0 107.5 -29.5t41.5 -83.5z" />
    <glyph glyph-name="fiveeighths" unicode="&#x215d;" horiz-adv-x="919" 
d="M555 302q0 46 40 80.5t118 34.5q73 0 116 -35t44 -82q1 -54 -49 -92q64 -34 64 -96q0 -51 -43 -86t-130 -35q-86 0 -130.5 36t-44.5 87q0 61 61 101q-46 32 -46 87zM725 165q-54 18 -59 20q-31 -27 -29 -59q0 -26 21.5 -42t62.5 -16q30 0 50.5 11t20.5 30q0 15 -10.5 26
t-22 16.5t-34.5 13.5zM781 292q-1 21 -19.5 34.5t-51.5 13.5q-28 0 -45 -11t-17 -27t11.5 -27t23.5 -16.5t37 -13.5q2 -1 36 -11q25 28 25 58zM251 -14h-45l458 728h45zM65 680h262v-84h-174l-5 -68q27 5 48 5q66 0 108 -32.5t42 -100.5t-51 -103t-125 -35q-73 0 -131 28v90
q48 -32 120 -32q90 0 90 54q0 56 -97 56q-53 0 -100 -18z" />
    <glyph glyph-name="seveneighths" unicode="&#x215e;" horiz-adv-x="844" 
d="M164 -14h-45l458 728h45zM480 302q0 46 40 80.5t118 34.5q73 0 116 -35t44 -82q1 -54 -49 -92q64 -34 64 -96q0 -51 -43 -86t-130 -35q-86 0 -130.5 36t-44.5 87q0 61 61 101q-46 32 -46 87zM650 165q-54 18 -59 20q-31 -27 -29 -59q0 -26 21.5 -42t62.5 -16
q30 0 50.5 11t20.5 30q0 15 -10.5 26t-22 16.5t-34.5 13.5zM706 292q-1 21 -19.5 34.5t-51.5 13.5q-28 0 -45 -11t-17 -27t11.5 -27t23.5 -16.5t37 -13.5q2 -1 36 -11q25 28 25 58zM182 271h-104l153 325h-199v84h309v-71z" />
    <glyph glyph-name="partialdiff" unicode="&#x2202;" horiz-adv-x="586" 
d="M546 290q0 -147 -70 -225.5t-193 -78.5q-110 0 -180 65t-70 169q0 101 60 163t149 62q55 0 100 -22t65 -59q-2 18 -4 30q-23 102 -105 150t-197 42v124q92 0 170 -24t140.5 -72.5t98.5 -131.5t36 -192zM175 217q0 -48 28 -84t86 -36t83.5 33.5t29.5 81.5q0 48 -29 85
t-87 37q-56 0 -83.5 -35.5t-27.5 -81.5z" />
    <glyph glyph-name="emptyset" unicode="&#x2205;" horiz-adv-x="812" 
d="M747 700l-81 -95q105 -105 105 -255q0 -151 -107 -257.5t-258 -106.5q-118 0 -213 68l-46 -54h-82l82 95q-105 107 -105 255q0 151 106.5 257.5t257.5 106.5q118 0 212 -69l47 55h82zM406 644q-122 0 -208 -86t-86 -208q0 -118 80 -201l380 443q-74 52 -166 52zM239 108
q76 -52 167 -52q122 0 208 86t86 208q0 116 -81 202z" />
    <glyph glyph-name="product" unicode="&#x220f;" horiz-adv-x="786" 
d="M271 -220h-149v798h-89v122h719v-122h-88v-798h-150v798h-243v-798z" />
    <glyph glyph-name="summation" unicode="&#x2211;" horiz-adv-x="581" 
d="M535 0h-498v81l235 269l-235 269v81h495v-135h-270l176 -201v-28l-176 -201h273v-135z" />
    <glyph glyph-name="minus" unicode="&#x2212;" horiz-adv-x="518" 
d="M459 289h-400v118h400v-118z" />
    <glyph glyph-name="radical" unicode="&#x221a;" horiz-adv-x="767" 
d="M404 0h-125l-153 345h-105v135h195l126 -310l279 610h157z" />
    <glyph glyph-name="infinity" unicode="&#x221e;" horiz-adv-x="876" 
d="M438 446q90 113 196 113q82 0 137.5 -54.5t55.5 -146.5t-55.5 -146.5t-137.5 -54.5q-106 0 -196 113q-90 -113 -196 -113q-82 0 -137.5 54.5t-55.5 146.5t55.5 146.5t137.5 54.5q106 0 196 -113zM374 358q-61 83 -115 83q-33 0 -55.5 -21.5t-22.5 -61.5t22.5 -61.5
t55.5 -21.5q55 0 115 83zM695 358q0 40 -22.5 61.5t-55.5 21.5q-57 0 -115 -83q61 -83 115 -83q33 0 55.5 21.5t22.5 61.5z" />
    <glyph glyph-name="integral" unicode="&#x222b;" horiz-adv-x="460" 
d="M161 614q0 96 54.5 138t132.5 42q55 0 104 -18v-120q-37 14 -73 14q-79 0 -79 -74v-650q0 -96 -54.5 -138t-132.5 -42q-55 0 -104 18v120q37 -14 70 -14q82 0 82 74v650z" />
    <glyph glyph-name="approxequal" unicode="&#x2248;" horiz-adv-x="615" 
d="M550 531q9 -76 -27 -118t-100 -42q-39 0 -113.5 27t-96.5 26q-35 0 -29 -43h-118q-9 77 27.5 118.5t96.5 41.5q44 0 115.5 -26.5t96.5 -26.5q35 0 30 43h118zM550 338q9 -76 -27 -118t-100 -42q-39 0 -113.5 27t-96.5 26q-35 0 -29 -43h-118q-9 77 27.5 118t96.5 41
q44 0 115.5 -26t96.5 -26q35 0 30 43h118z" />
    <glyph glyph-name="notequal" unicode="&#x2260;" horiz-adv-x="578" 
d="M195 91h-102l56 101h-90v117h156l46 82h-202v117h267l57 101h103l-57 -101h90v-117h-156l-46 -82h202v-117h-267z" />
    <glyph glyph-name="lessequal" unicode="&#x2264;" horiz-adv-x="520" 
d="M453 299v-125l-398 144v139l398 144v-124l-277 -89zM453 0h-398v118h398v-118z" />
    <glyph glyph-name="greaterequal" unicode="&#x2265;" horiz-adv-x="522" 
d="M466 325l-398 -145v125l277 89l-277 89v125l398 -145v-138zM466 0h-398v118h398v-118z" />
    <glyph glyph-name="lozenge" unicode="&#x25ca;" horiz-adv-x="594" 
d="M375 0h-155l-188 350l188 350h155l187 -350zM174 350l123 -225l124 225l-124 225z" />
    <glyph glyph-name="i.loclTRK" horiz-adv-x="259" 
d="M60 480h139v-480h-139v480zM48 614q0 38 23 58.5t58 20.5t58.5 -20.5t23.5 -58.5q0 -39 -23 -59t-59 -20q-35 0 -58 20t-23 59z" />
    <glyph glyph-name="a.ss01" horiz-adv-x="622" 
d="M441 70q-61 -84 -174 -84q-109 0 -172 74.5t-63 179.5t63 179.5t172 74.5q113 0 174 -84v70h122v-480h-122v70zM174 240q0 -58 34 -97.5t92 -39.5q43 0 76.5 23t48.5 57v114q-15 34 -48.5 57t-76.5 23q-58 0 -92 -39.5t-34 -97.5z" />
    <glyph glyph-name="aacute.ss01" horiz-adv-x="622" 
d="M441 70q-61 -84 -174 -84q-109 0 -172 74.5t-63 179.5t63 179.5t172 74.5q113 0 174 -84v70h122v-480h-122v70zM174 240q0 -58 34 -97.5t92 -39.5q43 0 76.5 23t48.5 57v114q-15 34 -48.5 57t-76.5 23q-58 0 -92 -39.5t-34 -97.5zM357 544h-134l90 148h152z" />
    <glyph glyph-name="abreve.ss01" horiz-adv-x="622" 
d="M441 70q-61 -84 -174 -84q-109 0 -172 74.5t-63 179.5t63 179.5t172 74.5q113 0 174 -84v70h122v-480h-122v70zM174 240q0 -58 34 -97.5t92 -39.5q43 0 76.5 23t48.5 57v114q-15 34 -48.5 57t-76.5 23q-58 0 -92 -39.5t-34 -97.5zM468 574q-64 -45 -157 -45
q-92 0 -156 45v109q69 -43 156 -43q88 0 157 43v-109z" />
    <glyph glyph-name="acircumflex.ss01" horiz-adv-x="622" 
d="M441 70q-61 -84 -174 -84q-109 0 -172 74.5t-63 179.5t63 179.5t172 74.5q113 0 174 -84v70h122v-480h-122v70zM174 240q0 -58 34 -97.5t92 -39.5q43 0 76.5 23t48.5 57v114q-15 34 -48.5 57t-76.5 23q-58 0 -92 -39.5t-34 -97.5zM250 692h123l124 -155h-132l-53 65
l-53 -65h-133z" />
    <glyph glyph-name="adieresis.ss01" horiz-adv-x="622" 
d="M441 70q-61 -84 -174 -84q-109 0 -172 74.5t-63 179.5t63 179.5t172 74.5q113 0 174 -84v70h122v-480h-122v70zM174 240q0 -58 34 -97.5t92 -39.5q43 0 76.5 23t48.5 57v114q-15 34 -48.5 57t-76.5 23q-58 0 -92 -39.5t-34 -97.5zM492 613q0 -31 -21.5 -52.5t-52.5 -21.5
t-53 21.5t-22 52.5t22 53t53 22t52.5 -22t21.5 -53zM278 613q0 -31 -21.5 -52.5t-52.5 -21.5t-53 21.5t-22 52.5t22 53t53 22t52.5 -22t21.5 -53z" />
    <glyph glyph-name="agrave.ss01" horiz-adv-x="622" 
d="M441 70q-61 -84 -174 -84q-109 0 -172 74.5t-63 179.5t63 179.5t172 74.5q113 0 174 -84v70h122v-480h-122v70zM174 240q0 -58 34 -97.5t92 -39.5q43 0 76.5 23t48.5 57v114q-15 34 -48.5 57t-76.5 23q-58 0 -92 -39.5t-34 -97.5zM398 544h-134l-108 148h152z" />
    <glyph glyph-name="amacron.ss01" horiz-adv-x="622" 
d="M441 70q-61 -84 -174 -84q-109 0 -172 74.5t-63 179.5t63 179.5t172 74.5q113 0 174 -84v70h122v-480h-122v70zM174 240q0 -58 34 -97.5t92 -39.5q43 0 76.5 23t48.5 57v114q-15 34 -48.5 57t-76.5 23q-58 0 -92 -39.5t-34 -97.5zM148 657h326v-110h-326v110z" />
    <glyph glyph-name="aogonek.ss01" horiz-adv-x="622" 
d="M563 0q-35 -23 -54 -49.5t-18 -48.5q-1 -16 8.5 -24t26.5 -8q19 0 37 9v-96q-35 -17 -83 -17q-54 -1 -84 28t-29 72q0 70 74 134v70q-61 -84 -174 -84q-109 0 -172 74.5t-63 179.5t63 179.5t172 74.5q113 0 174 -84v70h122v-480zM300 103q43 0 76.5 23t48.5 57v114
q-15 34 -48.5 57t-76.5 23q-58 0 -92 -39.5t-34 -97.5t34 -97.5t92 -39.5z" />
    <glyph glyph-name="aring.ss01" horiz-adv-x="622" 
d="M441 70q-61 -84 -174 -84q-109 0 -172 74.5t-63 179.5t63 179.5t172 74.5q113 0 174 -84v70h122v-480h-122v70zM174 240q0 -58 34 -97.5t92 -39.5q43 0 76.5 23t48.5 57v114q-15 34 -48.5 57t-76.5 23q-58 0 -92 -39.5t-34 -97.5zM435 636q0 -56 -36 -88.5t-89 -32.5
q-52 0 -88.5 32.5t-36.5 88.5q0 54 36.5 86t88.5 32t88.5 -32t36.5 -86zM269 635q0 -19 12 -31t30 -12t30 12t12 31t-12 30.5t-30 11.5t-30 -11.5t-12 -30.5z" />
    <glyph glyph-name="atilde.ss01" horiz-adv-x="622" 
d="M441 70q-61 -84 -174 -84q-109 0 -172 74.5t-63 179.5t63 179.5t172 74.5q113 0 174 -84v70h122v-480h-122v70zM174 240q0 -58 34 -97.5t92 -39.5q43 0 76.5 23t48.5 57v114q-15 34 -48.5 57t-76.5 23q-58 0 -92 -39.5t-34 -97.5zM489 665q14 -60 -14 -99.5t-80 -39.5
q-37 0 -84 21t-58 21q-16 0 -21.5 -11.5t-1.5 -24.5h-100q-14 60 14 99.5t79 39.5q37 0 84 -21t59 -21q16 0 21.5 11.5t1.5 24.5h100z" />
    <glyph glyph-name="ae.ss01" horiz-adv-x="949" 
d="M441 70q-61 -84 -174 -84q-109 0 -172 74.5t-63 179.5t63 179.5t172 74.5q113 0 174 -84v70h116v-71q50 85 155 85q64 0 110.5 -27t68 -71t29 -98t-7.5 -108h-337q11 -46 58 -70t110 -24q76 0 134 29v-108q-60 -31 -141 -31q-118 0 -179 87v-73h-116v70zM174 240
q0 -58 34 -97.5t92 -39.5q43 0 76.5 23t48.5 57v114q-15 34 -48.5 57t-76.5 23q-58 0 -92 -39.5t-34 -97.5zM687 387q-47 0 -79.5 -28t-33.5 -77h214q5 35 -19 70t-82 35z" />
    <glyph glyph-name="y.ss01" 
d="M531 0q-1 -115 -76.5 -174.5t-192.5 -59.5q-108 0 -189 43v120q67 -46 170 -46q149 0 149 124v38q-61 -59 -144 -59q-94 0 -144.5 55t-50.5 142v297h139v-279q0 -47 24 -71t68 -24q64 0 108 61v313h139v-480z" />
    <glyph glyph-name="yacute.ss01" 
d="M531 0q-1 -115 -76.5 -174.5t-192.5 -59.5q-108 0 -189 43v120q67 -46 170 -46q149 0 149 124v38q-61 -59 -144 -59q-94 0 -144.5 55t-50.5 142v297h139v-279q0 -47 24 -71t68 -24q64 0 108 61v313h139v-480zM340 544h-134l90 148h152z" />
    <glyph glyph-name="ycircumflex.ss01" 
d="M531 0q-1 -115 -76.5 -174.5t-192.5 -59.5q-108 0 -189 43v120q67 -46 170 -46q149 0 149 124v38q-61 -59 -144 -59q-94 0 -144.5 55t-50.5 142v297h139v-279q0 -47 24 -71t68 -24q64 0 108 61v313h139v-480zM233 692h123l124 -155h-132l-53 65l-53 -65h-133z" />
    <glyph glyph-name="ydieresis.ss01" 
d="M531 0q-1 -115 -76.5 -174.5t-192.5 -59.5q-108 0 -189 43v120q67 -46 170 -46q149 0 149 124v38q-61 -59 -144 -59q-94 0 -144.5 55t-50.5 142v297h139v-279q0 -47 24 -71t68 -24q64 0 108 61v313h139v-480zM475 613q0 -31 -21.5 -52.5t-52.5 -21.5t-53 21.5t-22 52.5
t22 53t53 22t52.5 -22t21.5 -53zM261 613q0 -31 -21.5 -52.5t-52.5 -21.5t-53 21.5t-22 52.5t22 53t53 22t52.5 -22t21.5 -53z" />
    <glyph glyph-name="ygrave.ss01" 
d="M531 0q-1 -115 -76.5 -174.5t-192.5 -59.5q-108 0 -189 43v120q67 -46 170 -46q149 0 149 124v38q-61 -59 -144 -59q-94 0 -144.5 55t-50.5 142v297h139v-279q0 -47 24 -71t68 -24q64 0 108 61v313h139v-480zM381 544h-134l-108 148h152z" />
    <glyph glyph-name="f_b" horiz-adv-x="998" 
d="M574 429q59 65 158 65q109 0 171.5 -74.5t62.5 -179.5t-62.5 -179.5t-171.5 -74.5q-115 0 -174 84v-70h-123v577q-46 20 -95 20q-43 0 -69.5 -20t-26.5 -61v-36h130v-117h-130v-363h-138v363h-83v117h83v38q0 95 56.5 145.5t143.5 50.5q81 0 150 -30l118 20v-275z
M573 183q15 -34 48.5 -57t76.5 -23q58 0 92 39.5t34 97.5t-34 97.5t-92 39.5q-43 0 -76.5 -23t-48.5 -57v-114z" />
    <glyph glyph-name="f_f_b" horiz-adv-x="1324" 
d="M900 429q59 65 158 65q109 0 171.5 -74.5t62.5 -179.5t-62.5 -179.5t-171.5 -74.5q-115 0 -174 84v-70h-123v587q-46 20 -94 20q-43 0 -69.5 -21t-26.5 -64v-42h129v-117h-129v-363h-139v363h-188v-363h-138v363h-83v117h83v29q0 97 58.5 146t150.5 49q83 0 167 -37
q54 57 150 57q81 0 150 -30l118 20v-285zM432 480v45q0 23 3 43q-43 22 -96 22q-44 0 -69.5 -21t-25.5 -61v-28h188zM900 183q15 -34 48.5 -57t76.5 -23q58 0 92 39.5t34 97.5t-34 97.5t-92 39.5q-43 0 -76.5 -23t-48.5 -57v-114z" />
    <glyph glyph-name="f_f_h" horiz-adv-x="1292" 
d="M900 435q61 59 144 59q92 0 143.5 -55.5t51.5 -141.5v-297h-139v279q0 47 -25.5 71t-67.5 24q-65 0 -107 -61v-313h-139v587q-46 20 -94 20q-43 0 -69.5 -21t-26.5 -64v-42h129v-117h-129v-363h-139v363h-188v-363h-138v363h-83v117h83v29q0 97 58.5 146t150.5 49
q83 0 167 -37q54 57 150 57q81 0 150 -30l118 20v-279zM432 480v45q0 23 3 43q-43 22 -96 22q-44 0 -69.5 -21t-25.5 -61v-28h188z" />
    <glyph glyph-name="f_f_j" horiz-adv-x="951" 
d="M890 -75q0 -85 -48 -122t-114 -37q-45 0 -80 14v111q19 -7 39 -7q64 0 64 66v413h-180v-363h-139v363h-188v-363h-138v363h-83v117h83v29q0 97 58.5 146t150.5 49q82 0 167 -37q60 63 176 63q83 0 167 -31v-118q-72 33 -141 33q-51 0 -82 -22t-31 -68v-44h319v-555z
M244 508v-28h188v45q0 23 3 43q-43 22 -96 22q-44 0 -69.5 -21t-25.5 -61z" />
    <glyph glyph-name="f_f_k" horiz-adv-x="1249" 
d="M1236 480l-167 -239l181 -241h-153l-141 190h-56v-190h-139v587q-46 20 -94 20q-43 0 -69.5 -21t-26.5 -64v-42h129v-117h-129v-363h-139v363h-188v-363h-138v363h-83v117h83v29q0 97 58.5 146t150.5 49q83 0 167 -37q54 57 150 57q81 0 150 -30l118 20v-413h61l122 179
h153zM432 480v45q0 23 3 43q-43 22 -96 22q-44 0 -69.5 -21t-25.5 -61v-28h188z" />
    <glyph glyph-name="f_h" horiz-adv-x="966" 
d="M574 435q61 59 144 59q92 0 143.5 -55.5t51.5 -141.5v-297h-139v279q0 47 -25.5 71t-67.5 24q-65 0 -107 -61v-313h-139v577q-46 20 -95 20q-43 0 -69.5 -20t-26.5 -61v-36h130v-117h-130v-363h-138v363h-83v117h83v38q0 95 56.5 145.5t143.5 50.5q81 0 150 -30l118 20
v-269z" />
    <glyph glyph-name="f_i" horiz-adv-x="611" 
d="M244 480h306v-480h-138v363h-168v-363h-138v363h-83v117h83v32q0 100 62 151t164 51q78 0 166 -31v-118q-69 32 -141 32q-51 0 -82 -21.5t-31 -64.5v-31z" />
    <glyph glyph-name="f_j" horiz-adv-x="611" 
d="M244 480h306v-555q0 -44 -14.5 -76.5t-39 -49.5t-51.5 -25t-57 -8q-44 0 -79 14v111q18 -7 39 -7q64 0 64 66v413h-168v-363h-138v363h-83v117h83v32q0 100 62 151t164 51q78 0 166 -31v-118q-69 32 -141 32q-51 0 -82 -21.5t-31 -64.5v-31z" />
    <glyph glyph-name="f_k" horiz-adv-x="923" 
d="M910 480l-167 -239l181 -241h-153l-141 190h-56v-190h-139v577q-46 20 -95 20q-43 0 -69.5 -20t-26.5 -61v-36h130v-117h-130v-363h-138v363h-83v117h83v38q0 95 56.5 145.5t143.5 50.5q81 0 150 -30l118 20v-403h61l122 179h153z" />
    <glyph glyph-name="f_l" horiz-adv-x="635" 
d="M306 714q81 0 150 -30l118 20v-704h-139v577q-46 20 -95 20q-43 0 -69.5 -20t-26.5 -61v-36h130v-117h-130v-363h-138v363h-83v117h83v38q0 95 56.5 145.5t143.5 50.5z" />
    <glyph glyph-name="uni0414.loclBGR" horiz-adv-x="829" 
d="M158 -152h-132v284h80l227 568h163l228 -568h79v-284h-132v152h-513v-152zM415 548l-152 -416h303z" />
    <glyph glyph-name="uni041B.loclBGR" horiz-adv-x="707" 
d="M276 700h154l273 -700h-162l-188 524l-187 -524h-162z" />
    <glyph glyph-name="uni0424.loclBGR" horiz-adv-x="910" 
d="M528 -94h-143v94q-161 10 -255 108t-94 242t94 242t255 108v94h143v-94q161 -11 253.5 -108.5t92.5 -241.5t-92.5 -241.5t-253.5 -108.5v-94zM186 350q0 -38 10 -73t31.5 -68t62 -54.5t95.5 -25.5v442q-55 -4 -95.5 -25.5t-62 -54.5t-31.5 -68t-10 -73zM528 570v-440
q54 4 94 25.5t61.5 54.5t31 68t9.5 72t-9.5 72t-31 68t-61.5 54.5t-94 25.5z" />
    <glyph glyph-name="uni0432.loclBGR" horiz-adv-x="591" 
d="M510 537q0 -90 -81 -141q60 -21 95.5 -69t35.5 -115q0 -100 -70 -163t-181 -63q-120 0 -190.5 71t-71.5 223v112q0 152 68 237t192 85q87 0 145 -51t58 -126zM375 521q0 30 -20 51.5t-54 21.5q-112 0 -115 -186l100 18q46 10 67.5 36t21.5 59zM186 274q0 -165 120 -165
q53 0 84 30t31 78t-34.5 79t-95.5 20l-105 -18v-24z" />
    <glyph glyph-name="uni0433.loclBGR" horiz-adv-x="488" 
d="M447 31q-76 -45 -191 -45q-228 0 -228 150q0 52 29 85.5t70 46.5t82 21.5t70 21.5t29 35q0 41 -72 41q-102 0 -177 -48v114q85 41 187 41q88 0 146 -35.5t58 -112.5q0 -52 -29 -85.5t-70 -47.5t-82 -23t-70 -21.5t-29 -33.5q0 -22 22.5 -31t70.5 -9q109 0 184 52v-116z
" />
    <glyph glyph-name="uni0434.loclBGR" horiz-adv-x="622" 
d="M32 240q0 105 63 179.5t172 74.5q113 0 174 -84v70h122v-467q0 -66 -23 -115.5t-62.5 -77t-87.5 -41t-103 -13.5q-110 0 -203 45v122q84 -50 185 -50q156 0 156 124v44q-59 -65 -158 -65q-109 0 -172 74.5t-63 179.5zM425 297q-15 34 -48.5 57t-76.5 23q-58 0 -92 -39.5
t-34 -97.5t34 -97.5t92 -39.5q43 0 76.5 22t48.5 55v117z" />
    <glyph glyph-name="uni0436.loclBGR" horiz-adv-x="787" 
d="M151 0h-149l166 240l-152 240h148l109 -181h51v401h139v-401h51l109 181h148l-152 -240l166 -240h-149l-125 189h-48v-189h-139v189h-48z" />
    <glyph glyph-name="uni0438.loclBGR" 
d="M392 480h139v-480h-123v61q-65 -75 -160 -75q-94 0 -144.5 55t-50.5 142v297h139v-279q0 -47 24 -71t68 -24q64 0 108 61v313z" />
    <glyph glyph-name="uni0439.loclBGR" 
d="M446 578q-65 -40 -153 -40t-153 40v104q69 -38 153 -38t153 38v-104zM392 480h139v-480h-123v61q-65 -75 -160 -75q-94 0 -144.5 55t-50.5 142v297h139v-279q0 -47 24 -71t68 -24q64 0 108 61v313z" />
    <glyph glyph-name="uni043A.loclBGR" horiz-adv-x="548" 
d="M548 0h-156l-138 190h-56v-190h-139v700h139v-399h58l122 179h156l-165 -237z" />
    <glyph glyph-name="uni043B.loclBGR" horiz-adv-x="560" 
d="M551 0h-148l-123 333l-123 -333h-148l198 480h146z" />
    <glyph glyph-name="uni043F.loclBGR" 
d="M182 419q65 75 160 75q92 0 143.5 -55.5t51.5 -141.5v-297h-139v279q0 47 -25.5 71t-67.5 24q-65 0 -107 -61v-313h-139v480h123v-61z" />
    <glyph glyph-name="uni0442.loclBGR" horiz-adv-x="875" 
d="M198 0h-139v480h123v-56q23 27 63 48.5t90 21.5q99 0 147 -71q73 71 160 71q92 0 135.5 -57.5t43.5 -132.5v-304h-138v295q0 37 -20.5 58t-54.5 21q-53 0 -95 -48q1 -7 1 -22v-304h-138v295q0 37 -20.5 58t-54.5 21q-59 0 -103 -58v-316z" />
    <glyph glyph-name="uni0446.loclBGR" horiz-adv-x="629" 
d="M531 125q0 -15 9 -24t23 -9h39v-219h-127v124q-55 7 -72 59q-61 -70 -155 -70t-144.5 55t-50.5 142v297h139v-279q0 -47 24 -71t68 -24q64 0 108 61v313h139v-355z" />
    <glyph glyph-name="uni0448.loclBGR" horiz-adv-x="875" 
d="M677 480h139v-480h-123v56q-23 -27 -63 -48.5t-90 -21.5q-99 0 -147 71q-73 -71 -160 -71q-92 0 -135.5 57.5t-43.5 132.5v304h138v-295q0 -37 20.5 -58t54.5 -21q53 0 95 48q-1 7 -1 22v304h138v-295q0 -37 20.5 -58t54.5 -21q59 0 103 58v316z" />
    <glyph glyph-name="uni0449.loclBGR" horiz-adv-x="914" 
d="M816 125q0 -15 9 -24t23 -9h40v-219h-127v124q-52 5 -71 54q-61 -65 -150 -65q-100 0 -146 72q-74 -72 -161 -72q-92 0 -135.5 57.5t-43.5 132.5v304h139v-295q0 -37 20 -58t54 -21q52 0 95 47q-1 8 -1 23v304h139v-295q0 -37 20 -58t54 -21q60 0 104 58v316h138v-355z
" />
    <glyph glyph-name="uni044E.loclBGR" horiz-adv-x="836" 
d="M804 240q0 -120 -77 -187t-188 -67q-92 0 -164 52.5t-90 146.5h-87v-185h-139v700h139v-405h87q18 94 90 146.5t164 52.5q111 0 188 -67t77 -187zM416 240q0 -59 32 -97.5t91 -38.5q60 0 92 38.5t32 97.5t-32 97.5t-92 38.5q-59 0 -91 -38.5t-32 -97.5z" />
    <glyph glyph-name="uni0430.ss01" horiz-adv-x="622" 
d="M441 70q-61 -84 -174 -84q-109 0 -172 74.5t-63 179.5t63 179.5t172 74.5q113 0 174 -84v70h122v-480h-122v70zM174 240q0 -58 34 -97.5t92 -39.5q43 0 76.5 23t48.5 57v114q-15 34 -48.5 57t-76.5 23q-58 0 -92 -39.5t-34 -97.5z" />
    <glyph glyph-name="uni0437.ss01" horiz-adv-x="475" 
d="M406 318q0 -91 -81 -142q60 -19 95.5 -68t35.5 -115q0 -107 -76 -166.5t-188 -59.5q-102 0 -178 42v119q71 -47 158 -47q63 0 104 28.5t41 85.5q0 53 -37 83.5t-101 16.5l-61 -14v110l68 16q85 21 85 95q0 41 -29.5 60.5t-75.5 19.5q-75 0 -144 -43v115q79 40 172 40
q88 0 150 -46t62 -130z" />
    <glyph glyph-name="uni0443.ss01" 
d="M531 0q-1 -115 -76.5 -174.5t-192.5 -59.5q-108 0 -189 43v120q67 -46 170 -46q149 0 149 124v38q-61 -59 -144 -59q-94 0 -144.5 55t-50.5 142v297h139v-279q0 -47 24 -71t68 -24q64 0 108 61v313h139v-480z" />
    <glyph glyph-name="zero.osf" horiz-adv-x="668" 
d="M631 260q0 -109 -78 -191.5t-219 -82.5q-140 0 -218 82.5t-78 191.5t78 191.5t218 82.5q141 0 219 -82.5t78 -191.5zM188 260q0 -60 38.5 -101t107.5 -41t108 41t39 101t-39 101t-108 41t-107.5 -41t-38.5 -101z" />
    <glyph glyph-name="one.osf" horiz-adv-x="464" 
d="M216 520h109v-391h114v-129h-388v129h128v241l-128 -48v135z" />
    <glyph glyph-name="two.osf" horiz-adv-x="556" 
d="M509 0h-470v64q0 28 9.5 51.5t19.5 38t36.5 31.5t37.5 22.5t47.5 21.5t43.5 19q81 37 99 53q23 20 23 45q0 27 -25 42t-66 15q-94 0 -202 -64v140q101 55 222 55q93 0 156.5 -46t63.5 -130q0 -43 -21.5 -76.5t-46.5 -50.5t-65 -37q-17 -8 -50 -23t-51 -24.5t-28 -18.5
l267 1v-129z" />
    <glyph glyph-name="three.osf" horiz-adv-x="554" 
d="M490 346q0 -52 -27.5 -90.5t-75.5 -55.5q57 -17 94 -60.5t37 -113.5q0 -68 -40 -114.5t-97 -66t-125 -19.5q-111 0 -216 43v136q97 -49 204 -47q54 0 92.5 22t38.5 67q0 41 -29.5 60t-75.5 19h-101v128l85 -1q41 0 67.5 19t26.5 53q0 37 -30.5 57.5t-82.5 20.5
q-89 0 -183 -49v135q89 45 203 45q102 0 168.5 -49t66.5 -139z" />
    <glyph glyph-name="four.osf" horiz-adv-x="613" 
d="M340 520h149v-431h100v-125h-100v-124h-143v124h-327v124zM346 89v236l-176 -236h176z" />
    <glyph glyph-name="five.osf" horiz-adv-x="547" 
d="M83 521h402v-129l-267 1l-9 -133q43 10 78 10q96 0 162.5 -54t66.5 -163q0 -75 -41 -128t-101 -76t-130 -23q-116 0 -205 43v135q81 -47 189 -47q57 0 97.5 25.5t40.5 72.5q0 49 -39 74.5t-107 25.5q-80 0 -161 -29z" />
    <glyph glyph-name="six.osf" horiz-adv-x="616" 
d="M198 402q73 38 159 38q91 0 159 -59.5t68 -163.5q0 -111 -73 -171t-180 -60q-144 0 -216 91.5t-72 256.5q0 92 27.5 163.5t73.5 113t100.5 62.5t114.5 21q95 0 171 -41v-126q-67 41 -151 41q-63 0 -114 -38.5t-67 -127.5zM195 277q16 -169 130 -169q46 0 77.5 26t31.5 79
t-34.5 77.5t-81.5 24.5q-67 0 -123 -38z" />
    <glyph glyph-name="seven.osf" horiz-adv-x="519" 
d="M20 521h486v-108l-262 -573h-162l253 552h-315v129z" />
    <glyph glyph-name="eight.osf" horiz-adv-x="628" 
d="M66 506q0 76 64 132t183 56q113 0 180.5 -58t68.5 -134q1 -92 -86 -157q111 -55 111 -161q0 -83 -69 -140.5t-203 -57.5q-132 0 -203 59t-71 144q0 50 29 96t77 75q-81 54 -81 146zM321 286q-57 20 -77 28q-56 -46 -54 -107q1 -46 34.5 -73t94.5 -27q54 0 86 21.5
t32 55.5q0 40 -24.5 59t-91.5 43zM418 491q0 36 -30 60.5t-77 24.5t-74.5 -21.5t-27.5 -52.5q0 -33 23.5 -55.5t77.5 -42.5q26 -9 60 -18q50 48 48 105z" />
    <glyph glyph-name="nine.osf" horiz-adv-x="605" 
d="M26 303q0 111 73.5 171t179.5 60q144 0 216 -91.5t72 -256.5q0 -92 -27.5 -163.5t-73.5 -113t-100.5 -62.5t-114.5 -21q-95 0 -171 41v126q68 -41 151 -41q40 0 74.5 13.5t65.5 52.5t41 101q-71 -39 -158 -39q-91 0 -159.5 59.5t-68.5 163.5zM286 412q-46 0 -78 -26
t-32 -79t34.5 -77.5t82.5 -24.5q67 0 123 38q-16 169 -130 169z" />
    <glyph glyph-name="zero.sinf" horiz-adv-x="432" 
d="M403 104q0 -94 -47 -153.5t-140 -59.5t-140 59.5t-47 153.5t47 153.5t140 59.5t140 -59.5t47 -153.5zM126 104q0 -127 90 -127q91 0 91 127t-91 127q-90 0 -90 -127z" />
    <glyph glyph-name="one.sinf" horiz-adv-x="306" 
d="M145 308h70v-324h75v-84h-258v84h89v227l-86 -28v87z" />
    <glyph glyph-name="two.sinf" horiz-adv-x="366" 
d="M40 273q63 44 143 44q67 0 108.5 -31t41.5 -92q0 -47 -29.5 -80t-79.5 -63q-26 -15 -35 -20t-25 -15.5t-22 -18t-6 -14.5l198 1v-84h-307v43q0 28 9.5 52.5t19 39.5t33.5 33.5t33.5 24t38.5 22.5q4 3 16.5 10t17 9.5t13.5 8.5t12.5 10t8.5 10.5t6.5 12.5t1.5 14
q0 42 -63 42q-68 0 -134 -50v91z" />
    <glyph glyph-name="three.sinf" horiz-adv-x="366" 
d="M321 204q0 -65 -57 -88q74 -25 74 -104q0 -61 -48 -91t-118 -30t-141 28v90q59 -34 133 -32q82 0 82 48q0 43 -66 43h-68l1 83h56q61 0 61 39q0 42 -71 42q-63 0 -121 -38v90q61 33 134 33q66 0 107.5 -29.5t41.5 -83.5z" />
    <glyph glyph-name="four.sinf" horiz-adv-x="403" 
d="M225 308h97v-254h59v-82h-59v-72h-92v72h-212v81zM230 54v135l-110 -135h110z" />
    <glyph glyph-name="five.sinf" horiz-adv-x="362" 
d="M56 309h262v-84h-174l-5 -68q27 5 48 5q66 0 108 -32.5t42 -100.5t-51 -103t-125 -35q-73 0 -131 28v90q48 -32 120 -32q90 0 90 54q0 56 -97 56q-53 0 -100 -18z" />
    <glyph glyph-name="six.sinf" horiz-adv-x="395" 
d="M127 142q48 24 103 24q59 0 101.5 -35t42.5 -98q0 -68 -45.5 -105t-113.5 -37q-186 0 -186 215q0 104 55.5 157.5t139.5 53.5q60 0 115 -26v-85q-48 29 -103 29q-94 0 -109 -93zM126 64q6 -52 26.5 -72.5t55.5 -20.5q69 0 69 58q0 56 -76 56q-39 0 -75 -21z" />
    <glyph glyph-name="seven.sinf" horiz-adv-x="340" 
d="M167 -100h-104l153 325h-199v84h309v-71z" />
    <glyph glyph-name="eight.sinf" horiz-adv-x="403" 
d="M42 202q0 46 40 80.5t118 34.5q73 0 116 -35t44 -82q1 -54 -49 -92q64 -34 64 -96q0 -51 -43 -86t-130 -35q-86 0 -130.5 36t-44.5 87q0 61 61 101q-46 32 -46 87zM212 65q-54 18 -59 20q-31 -27 -29 -59q0 -26 21.5 -42t62.5 -16q30 0 50.5 11t20.5 30q0 15 -10.5 26
t-22 16.5t-34.5 13.5zM268 192q-1 21 -19.5 34.5t-51.5 13.5q-28 0 -45 -11t-17 -27t11.5 -27t23.5 -16.5t37 -13.5q2 -1 36 -11q25 28 25 58z" />
    <glyph glyph-name="nine.sinf" horiz-adv-x="395" 
d="M21 175q0 68 45.5 105t112.5 37q187 0 187 -215q0 -104 -56 -157.5t-139 -53.5q-60 0 -115 26v86q46 -30 103 -30q94 0 109 93q-46 -23 -103 -23q-59 0 -101.5 35t-42.5 97zM186 237q-68 0 -68 -58q0 -56 76 -56q39 0 75 21q-6 52 -26.5 72.5t-56.5 20.5z" />
    <glyph glyph-name="zero.sups" horiz-adv-x="432" 
d="M403 581q0 -94 -47 -153.5t-140 -59.5t-140 59.5t-47 153.5t47 153.5t140 59.5t140 -59.5t47 -153.5zM126 581q0 -127 90 -127q91 0 91 127t-91 127q-90 0 -90 -127z" />
    <glyph glyph-name="one.sups" horiz-adv-x="306" 
d="M145 780h70v-324h75v-84h-258v84h89v227l-86 -28v87z" />
    <glyph glyph-name="two.sups" horiz-adv-x="367" 
d="M41 750q63 44 143 44q67 0 108.5 -31t41.5 -92q0 -47 -29.5 -80t-79.5 -63q-26 -15 -35 -20t-25 -15.5t-22 -18t-6 -14.5l198 1v-84h-307v43q0 28 9.5 52.5t19 39.5t33.5 33.5t33.5 24t38.5 22.5q4 3 16.5 10t17 9.5t13.5 8.5t12.5 10t8.5 10.5t6.5 12.5t1.5 14
q0 42 -63 42q-68 0 -134 -50v91z" />
    <glyph glyph-name="three.sups" horiz-adv-x="366" 
d="M321 681q0 -65 -57 -88q74 -25 74 -104q0 -61 -48 -91t-118 -30t-141 28v90q59 -34 133 -32q82 0 82 48q0 43 -66 43h-68l1 83h56q61 0 61 39q0 42 -71 42q-63 0 -121 -38v90q61 33 134 33q66 0 107.5 -29.5t41.5 -83.5z" />
    <glyph glyph-name="four.sups" horiz-adv-x="403" 
d="M225 780h97v-254h59v-82h-59v-72h-92v72h-212v81zM230 526v135l-110 -135h110z" />
    <glyph glyph-name="five.sups" horiz-adv-x="362" 
d="M56 780h262v-84h-174l-5 -68q27 5 48 5q66 0 108 -32.5t42 -100.5t-51 -103t-125 -35q-73 0 -131 28v90q48 -32 120 -32q90 0 90 54q0 56 -97 56q-53 0 -100 -18z" />
    <glyph glyph-name="six.sups" horiz-adv-x="395" 
d="M127 619q48 24 103 24q59 0 101.5 -35t42.5 -98q0 -68 -45.5 -105t-113.5 -37q-186 0 -186 215q0 104 55.5 157.5t139.5 53.5q60 0 115 -26v-85q-48 29 -103 29q-94 0 -109 -93zM126 541q6 -52 26.5 -72.5t55.5 -20.5q69 0 69 58q0 56 -76 56q-39 0 -75 -21z" />
    <glyph glyph-name="seven.sups" horiz-adv-x="340" 
d="M167 371h-104l153 325h-199v84h309v-71z" />
    <glyph glyph-name="eight.sups" horiz-adv-x="403" 
d="M42 679q0 46 40 80.5t118 34.5q73 0 116 -35t44 -82q1 -54 -49 -92q64 -34 64 -96q0 -51 -43 -86t-130 -35q-86 0 -130.5 36t-44.5 87q0 61 61 101q-46 32 -46 87zM212 542q-54 18 -59 20q-31 -27 -29 -59q0 -26 21.5 -42t62.5 -16q30 0 50.5 11t20.5 30q0 15 -10.5 26
t-22 16.5t-34.5 13.5zM268 669q-1 21 -19.5 34.5t-51.5 13.5q-28 0 -45 -11t-17 -27q0 -22 17 -33.5t55 -23.5q2 -1 36 -11q25 28 25 58z" />
    <glyph glyph-name="nine.sups" horiz-adv-x="396" 
d="M22 652q0 68 45.5 105t112.5 37q187 0 187 -215q0 -104 -56 -157.5t-139 -53.5q-60 0 -115 26v86q46 -30 103 -30q94 0 109 93q-46 -23 -103 -23q-59 0 -101.5 35t-42.5 97zM187 714q-68 0 -68 -58q0 -56 76 -56q39 0 75 21q-6 52 -26.5 72.5t-56.5 20.5z" />
    <glyph glyph-name="zero.tf" horiz-adv-x="643" 
d="M616 340q0 -156 -75 -255t-219 -99q-145 0 -220 99t-75 255t75 255t220 99q144 0 219 -99t75 -255zM177 340q0 -109 37 -165.5t108 -56.5t107.5 56.5t36.5 165.5t-36.5 165.5t-107.5 56.5t-108 -56.5t-37 -165.5z" />
    <glyph glyph-name="one.tf" horiz-adv-x="643" 
d="M301 680h110v-551h196v-129h-551v129h208v401l-174 -67v136z" />
    <glyph glyph-name="two.tf" horiz-adv-x="643" 
d="M76 622q114 72 243 72q112 0 182 -50.5t70 -150.5q0 -78 -49.5 -132.5t-134.5 -103.5q-9 -5 -26.5 -15t-27 -15.5t-24 -14t-23 -14t-19.5 -13.5t-17 -14.5t-12 -14t-8.5 -14.5t-2.5 -14l359 1v-129h-529v67q0 33 8 62.5t17 51t30.5 45t34.5 36t43 32.5t41.5 26.5
t44.5 25.5q9 5 14 8q80 44 100 63q31 30 31 70q0 37 -30.5 56.5t-84.5 19.5q-111 0 -230 -81v140z" />
    <glyph glyph-name="three.tf" horiz-adv-x="643" 
d="M560 506q0 -52 -27.5 -90.5t-75.5 -55.5q57 -17 94 -60.5t37 -113.5q0 -101 -79.5 -150.5t-202.5 -49.5q-133 0 -246 47v140q101 -57 234 -55q151 2 151 89q0 79 -122 79h-115l1 128l98 -1q53 -1 82 18t29 54q0 78 -135 78q-111 0 -211 -63v139q100 55 232 55
q117 0 186.5 -48.5t69.5 -139.5z" />
    <glyph glyph-name="four.tf" horiz-adv-x="643" 
d="M368 680h149v-431h100v-125h-100v-124h-143v124h-357v124zM374 249v248l-201 -248h201z" />
    <glyph glyph-name="five.tf" horiz-adv-x="643" 
d="M106 681h452v-129l-317 1l-9 -134q57 11 105 11q112 0 182 -53t70 -164q0 -112 -84.5 -169.5t-213.5 -57.5q-134 0 -229 46v139q85 -54 212 -54q77 0 121 25t44 73q0 100 -176 100q-100 0 -181 -29z" />
    <glyph glyph-name="six.tf" horiz-adv-x="643" 
d="M193 394q86 46 182 46q98 0 167.5 -58t69.5 -162q0 -111 -75 -172.5t-185 -61.5q-308 0 -308 348q0 93 26 163.5t71 112.5t102 63t124 21q97 0 187 -42v-132q-73 48 -167 48q-171 0 -194 -174zM193 273q10 -90 47 -127.5t100 -37.5q54 0 88 26t34 79q0 102 -133 102
q-71 0 -136 -42z" />
    <glyph glyph-name="seven.tf" horiz-adv-x="643" 
d="M48 681h553v-108l-289 -573h-162l279 552h-381v129z" />
    <glyph glyph-name="eight.tf" horiz-adv-x="643" 
d="M58 506q0 76 66 132t196 56q123 0 193 -57.5t71 -134.5q1 -92 -86 -156q111 -57 111 -162q0 -83 -71.5 -140.5t-215.5 -57.5q-143 0 -216 59t-73 144q0 51 29 96.5t77 74.5q-81 55 -81 146zM337 280q-13 5 -47.5 16t-53.5 18q-55 -46 -53 -107q1 -46 38.5 -74.5
t111.5 -28.5q55 0 91 21t36 55q0 17 -7 31t-16 22.5t-28.5 18t-32 14.5t-39.5 14zM440 491q0 37 -32.5 61t-93.5 24q-52 0 -82.5 -20.5t-30.5 -50.5q0 -17 8 -31.5t17 -23.5t30 -18.5t33 -14t40 -13.5l63 -18q50 48 48 105z" />
    <glyph glyph-name="nine.tf" horiz-adv-x="643" 
d="M31 460q0 111 75 172.5t185 61.5q308 0 308 -354q0 -90 -26 -159.5t-71 -111t-102 -62.5t-124 -21q-97 0 -187 42v132q73 -48 167 -48q171 0 194 174q-86 -46 -181 -46q-99 0 -168.5 58t-69.5 162zM303 572q-54 0 -88 -26t-34 -79q0 -102 133 -102q69 0 136 41
q-10 91 -47 128.5t-100 37.5z" />
    <glyph glyph-name="zero.tosf" horiz-adv-x="643" 
d="M618 260q0 -109 -78 -191.5t-219 -82.5q-140 0 -218 82.5t-78 191.5t78 191.5t218 82.5q141 0 219 -82.5t78 -191.5zM175 260q0 -60 38.5 -101t107.5 -41t108 41t39 101t-39 101t-108 41t-107.5 -41t-38.5 -101z" />
    <glyph glyph-name="one.tosf" horiz-adv-x="643" 
d="M299 520h110v-391h196v-129h-551v129h208v241l-174 -67v136z" />
    <glyph glyph-name="two.tosf" horiz-adv-x="643" 
d="M580 0h-525v64q0 34 15 63t37 48t56 36t60.5 26.5t62.5 19.5q73 21 106.5 40t33.5 50q0 56 -119 56q-52 0 -113.5 -20.5t-115.5 -57.5v140q110 69 242 69q117 0 186 -46.5t69 -137.5q0 -59 -36.5 -96t-103.5 -63q-17 -7 -80.5 -28t-90.5 -35l316 1v-129z" />
    <glyph glyph-name="three.tosf" horiz-adv-x="643" 
d="M559 346q0 -52 -27.5 -90.5t-75.5 -55.5q57 -17 94 -60.5t37 -113.5q0 -101 -79.5 -150.5t-201.5 -49.5q-133 0 -244 46v139q98 -55 232 -53q150 2 150 89q0 79 -120 79h-114l1 128l96 -1q51 -1 80.5 18t29.5 54q0 78 -133 78q-110 0 -210 -61v139q98 53 230 53
q116 0 185.5 -48.5t69.5 -139.5z" />
    <glyph glyph-name="four.tosf" horiz-adv-x="643" 
d="M368 520h149v-431h103v-125h-103v-124h-143v124h-357v124zM374 89v248l-201 -248h201z" />
    <glyph glyph-name="five.tosf" horiz-adv-x="643" 
d="M108 521h448v-129l-313 1l-9 -134q57 11 105 11q110 0 179 -53.5t69 -163.5q0 -112 -83.5 -169.5t-210.5 -57.5q-134 0 -229 46v139q85 -54 212 -54q74 0 117.5 25t43.5 73q0 100 -172 100q-100 0 -181 -29z" />
    <glyph glyph-name="six.tosf" horiz-adv-x="643" 
d="M193 394q86 46 182 46q98 0 167.5 -58t69.5 -162q0 -111 -75 -172.5t-185 -61.5q-308 0 -308 354q0 90 26 159.5t71 111t102 62.5t124 21q97 0 187 -42v-132q-73 48 -167 48q-171 0 -194 -174zM193 273q10 -90 47 -127.5t100 -37.5q54 0 88 26t34 79q0 102 -133 102
q-71 0 -136 -42z" />
    <glyph glyph-name="seven.tosf" horiz-adv-x="643" 
d="M48 521h553v-108l-289 -573h-162l279 552h-381v129z" />
    <glyph glyph-name="eight.tosf" horiz-adv-x="643" 
d="M58 506q0 76 66 132t196 56q123 0 193 -57.5t71 -134.5q1 -92 -86 -156q111 -57 111 -162q0 -83 -71.5 -140.5t-215.5 -57.5q-143 0 -216 59t-73 144q0 51 29 96.5t77 74.5q-81 55 -81 146zM336 280q-13 5 -47.5 16t-53.5 18q-55 -46 -53 -107q1 -46 38.5 -74.5
t111.5 -28.5q55 0 91 21t36 55q0 17 -7 31t-16 22.5t-28.5 18t-32 14.5t-39.5 14zM440 491q0 37 -32.5 61t-93.5 24q-52 0 -82.5 -20.5t-30.5 -50.5q0 -17 8 -31.5t17 -23.5t30 -18.5t33 -14t40 -13.5l63 -18q50 48 48 105z" />
    <glyph glyph-name="nine.tosf" horiz-adv-x="643" 
d="M31 300q0 111 75 172.5t185 61.5q308 0 308 -354q0 -90 -26 -159.5t-71 -111t-102 -62.5t-124 -21q-97 0 -187 42v132q73 -48 167 -48q171 0 194 174q-86 -46 -181 -46q-99 0 -168.5 58t-69.5 162zM303 412q-54 0 -88 -26t-34 -79q0 -102 133 -102q69 0 136 41
q-10 91 -47 128.5t-100 37.5z" />
    <glyph glyph-name="zero.dnom" horiz-adv-x="432" 
d="M403 204q0 -94 -47 -153.5t-140 -59.5t-140 59.5t-47 153.5t47 153.5t140 59.5t140 -59.5t47 -153.5zM126 204q0 -127 90 -127q91 0 91 127t-91 127q-90 0 -90 -127z" />
    <glyph glyph-name="one.dnom" horiz-adv-x="306" 
d="M145 408h70v-324h75v-84h-258v84h89v227l-86 -28v87z" />
    <glyph glyph-name="two.dnom" horiz-adv-x="366" 
d="M40 373q63 44 143 44q67 0 108.5 -31t41.5 -92q0 -47 -29.5 -80t-79.5 -63q-26 -15 -35 -20t-25 -15.5t-22 -18t-6 -14.5l198 1v-84h-307v43q0 28 9.5 52.5t19 39.5t33.5 33.5t33.5 24t38.5 22.5q4 3 16.5 10t17 9.5t13.5 8.5t12.5 10t8.5 10.5t6.5 12.5t1.5 14
q0 42 -63 42q-68 0 -134 -50v91z" />
    <glyph glyph-name="three.dnom" horiz-adv-x="366" 
d="M321 304q0 -65 -57 -88q74 -25 74 -104q0 -61 -48 -91t-118 -30t-141 28v90q59 -34 133 -32q82 0 82 48q0 43 -66 43h-68l1 83h56q61 0 61 39q0 42 -71 42q-63 0 -121 -38v90q61 33 134 33q66 0 107.5 -29.5t41.5 -83.5z" />
    <glyph glyph-name="four.dnom" horiz-adv-x="403" 
d="M225 408h97v-254h59v-82h-59v-72h-92v72h-212v81zM230 154v135l-110 -135h110z" />
    <glyph glyph-name="five.dnom" horiz-adv-x="362" 
d="M56 409h262v-84h-174l-5 -68q27 5 48 5q66 0 108 -32.5t42 -100.5t-51 -103t-125 -35q-73 0 -131 28v90q48 -32 120 -32q90 0 90 54q0 56 -97 56q-53 0 -100 -18z" />
    <glyph glyph-name="six.dnom" horiz-adv-x="395" 
d="M127 242q48 24 103 24q59 0 101.5 -35t42.5 -98q0 -68 -45.5 -105t-113.5 -37q-186 0 -186 215q0 104 55.5 157.5t139.5 53.5q60 0 115 -26v-85q-48 29 -103 29q-94 0 -109 -93zM126 164q6 -52 26.5 -72.5t55.5 -20.5q69 0 69 58q0 56 -76 56q-39 0 -75 -21z" />
    <glyph glyph-name="seven.dnom" horiz-adv-x="340" 
d="M167 0h-104l153 325h-199v84h309v-71z" />
    <glyph glyph-name="eight.dnom" horiz-adv-x="403" 
d="M42 302q0 46 40 80.5t118 34.5q73 0 116 -35t44 -82q1 -54 -49 -92q64 -34 64 -96q0 -51 -43 -86t-130 -35q-86 0 -130.5 36t-44.5 87q0 61 61 101q-46 32 -46 87zM212 165q-54 18 -59 20q-31 -27 -29 -59q0 -26 21.5 -42t62.5 -16q30 0 50.5 11t20.5 30q0 15 -10.5 26
t-22 16.5t-34.5 13.5zM268 292q-1 21 -19.5 34.5t-51.5 13.5q-28 0 -45 -11t-17 -27t11.5 -27t23.5 -16.5t37 -13.5q2 -1 36 -11q25 28 25 58z" />
    <glyph glyph-name="nine.dnom" horiz-adv-x="395" 
d="M21 275q0 68 45.5 105t112.5 37q187 0 187 -215q0 -104 -56 -157.5t-139 -53.5q-60 0 -115 26v86q46 -30 103 -30q94 0 109 93q-46 -23 -103 -23q-59 0 -101.5 35t-42.5 97zM186 337q-68 0 -68 -58q0 -56 76 -56q39 0 75 21q-6 52 -26.5 72.5t-56.5 20.5z" />
    <glyph glyph-name="zero.numr" horiz-adv-x="432" 
d="M403 481q0 -94 -47 -153.5t-140 -59.5t-140 59.5t-47 153.5t47 153.5t140 59.5t140 -59.5t47 -153.5zM126 481q0 -127 90 -127q91 0 91 127t-91 127q-90 0 -90 -127z" />
    <glyph glyph-name="one.numr" horiz-adv-x="306" 
d="M145 680h70v-324h75v-84h-258v84h89v227l-86 -28v87z" />
    <glyph glyph-name="two.numr" horiz-adv-x="367" 
d="M41 650q63 44 143 44q67 0 108.5 -31t41.5 -92q0 -47 -29.5 -80t-79.5 -63q-26 -15 -35 -20t-25 -15.5t-22 -18t-6 -14.5l198 1v-84h-307v43q0 28 9.5 52.5t19 39.5t33.5 33.5t33.5 24t38.5 22.5q4 3 16.5 10t17 9.5t13.5 8.5t12.5 10t8.5 10.5t6.5 12.5t1.5 14
q0 42 -63 42q-68 0 -134 -50v91z" />
    <glyph glyph-name="three.numr" horiz-adv-x="366" 
d="M321 581q0 -65 -57 -88q74 -25 74 -104q0 -61 -48 -91t-118 -30t-141 28v90q59 -34 133 -32q82 0 82 48q0 43 -66 43h-68l1 83h56q61 0 61 39q0 42 -71 42q-63 0 -121 -38v90q61 33 134 33q66 0 107.5 -29.5t41.5 -83.5z" />
    <glyph glyph-name="four.numr" horiz-adv-x="403" 
d="M225 680h97v-254h59v-82h-59v-72h-92v72h-212v81zM230 426v135l-110 -135h110z" />
    <glyph glyph-name="five.numr" horiz-adv-x="362" 
d="M56 680h262v-84h-174l-5 -68q27 5 48 5q66 0 108 -32.5t42 -100.5t-51 -103t-125 -35q-73 0 -131 28v90q48 -32 120 -32q90 0 90 54q0 56 -97 56q-53 0 -100 -18z" />
    <glyph glyph-name="six.numr" horiz-adv-x="395" 
d="M127 519q48 24 103 24q59 0 101.5 -35t42.5 -98q0 -68 -45.5 -105t-113.5 -37q-186 0 -186 215q0 104 55.5 157.5t139.5 53.5q60 0 115 -26v-85q-48 29 -103 29q-94 0 -109 -93zM126 441q6 -52 26.5 -72.5t55.5 -20.5q69 0 69 58q0 56 -76 56q-39 0 -75 -21z" />
    <glyph glyph-name="seven.numr" horiz-adv-x="340" 
d="M167 271h-104l153 325h-199v84h309v-71z" />
    <glyph glyph-name="eight.numr" horiz-adv-x="403" 
d="M42 579q0 46 40 80.5t118 34.5q73 0 116 -35t44 -82q1 -54 -49 -92q64 -34 64 -96q0 -51 -43 -86t-130 -35q-86 0 -130.5 36t-44.5 87q0 61 61 101q-46 32 -46 87zM212 442q-54 18 -59 20q-31 -27 -29 -59q0 -26 21.5 -42t62.5 -16q30 0 50.5 11t20.5 30q0 15 -10.5 26
t-22 16.5t-34.5 13.5zM268 569q-1 21 -19.5 34.5t-51.5 13.5q-28 0 -45 -11t-17 -27q0 -22 17 -33.5t55 -23.5q2 -1 36 -11q25 28 25 58z" />
    <glyph glyph-name="nine.numr" horiz-adv-x="396" 
d="M22 552q0 68 45.5 105t112.5 37q187 0 187 -215q0 -104 -56 -157.5t-139 -53.5q-60 0 -115 26v86q46 -30 103 -30q94 0 109 93q-46 -23 -103 -23q-59 0 -101.5 35t-42.5 97zM187 614q-68 0 -68 -58q0 -56 76 -56q39 0 75 21q-6 52 -26.5 72.5t-56.5 20.5z" />
    <glyph glyph-name="emdash.case" horiz-adv-x="782" 
d="M723 291h-664v118h664v-118z" />
    <glyph glyph-name="endash.case" horiz-adv-x="586" 
d="M527 291h-468v118h468v-118z" />
    <glyph glyph-name="hyphen.case" horiz-adv-x="490" 
d="M59 409h372v-118h-372v118z" />
    <glyph glyph-name="guillemotleft.case" horiz-adv-x="595" 
d="M538 156h-140l-129 181v26l129 181h140l-136 -194zM310 156h-140l-129 181v26l129 181h140l-136 -194z" />
    <glyph glyph-name="guillemotright.case" horiz-adv-x="595" 
d="M425 156h-140l136 194l-136 194h140l129 -181v-26zM197 156h-140l136 194l-136 194h140l129 -181v-26z" />
    <glyph glyph-name="guilsinglleft.case" horiz-adv-x="367" 
d="M310 156h-140l-129 181v26l129 181h140l-136 -194z" />
    <glyph glyph-name="guilsinglright.case" horiz-adv-x="367" 
d="M197 156h-140l136 194l-136 194h140l129 -181v-26z" />
    <glyph glyph-name="cent.tf" horiz-adv-x="643" 
d="M433 109q52 7 93 32v-123q-42 -18 -93 -27v-111h-96v107q-99 8 -167 71t-68 175q0 117 67.5 183t167.5 77v107h96v-110q47 -9 88 -30v-122q-35 23 -88 33v-262zM337 367q-93 -29 -93 -127q0 -49 25.5 -81t67.5 -45v253z" />
    <glyph glyph-name="currency.tf" horiz-adv-x="643" 
d="M218 177l-82 -82l-69 69l78 78q-31 45 -31 108q0 62 31 109l-78 78l68 69l83 -83q46 24 104 24t104 -24l82 83l69 -69l-78 -78q31 -49 31 -109q0 -61 -31 -108l78 -78l-69 -69l-82 82q-46 -24 -104 -24t-104 24zM233 350q0 -38 23.5 -63t65.5 -25t65.5 25t23.5 63
t-23.5 63t-65.5 25t-65.5 -25t-23.5 -63z" />
    <glyph glyph-name="dollar.tf" horiz-adv-x="643" 
d="M369 -130h-96v118q-118 11 -208 61v143q112 -74 251 -74q65 0 96.5 14.5t31.5 50.5t-40 58.5t-97 38t-114 36.5t-97 66.5t-40 114.5q0 87 60 136.5t157 58.5v118h96v-119q99 -11 170 -51v-140q-89 64 -216 62q-114 -2 -114 -63q0 -33 40 -54t97 -36.5t114 -36.5t97 -67
t40 -115q0 -187 -228 -203v-117z" />
    <glyph glyph-name="Euro.tf" horiz-adv-x="643" 
d="M281 227q31 -53 89 -80t125 -27q62 0 113 21v-135q-66 -20 -136 -20q-124 0 -225 62t-136 179h-89v89h74v24v24h-74v89h90q35 116 134 178.5t218 62.5q71 0 139 -20v-134q-55 21 -112 21q-64 0 -121.5 -28t-87.5 -80h230v-89h-262q-1 -8 -1 -24t1 -24h262v-89h-231z" />
    <glyph glyph-name="sterling.tf" horiz-adv-x="643" 
d="M601 0h-555v122h26q32 0 50.5 24t18.5 61v72h-76v112h76v62q0 122 70.5 181.5t187.5 59.5q85 0 161 -37v-122q-60 44 -139 44q-65 0 -102.5 -32t-37.5 -97v-59h194v-112h-194v-72q0 -60 -34 -85h354v-122z" />
    <glyph glyph-name="yen.tf" horiz-adv-x="643" 
d="M467 680h161l-186 -332h116v-96h-162v-52h162v-96h-162v-104h-149v104h-161v96h161v52h-161v96h115l-186 332h161l146 -294z" />
    </font>
</defs>
</svg>
